<svg width="400" height="315" viewBox="0 0 400 315" fill="none" xmlns="http://www.w3.org/2000/svg">
<mask id="mask0_701_48248" style="mask-type:alpha" maskUnits="userSpaceOnUse" x="0" y="0" width="400" height="315">
<rect width="400" height="315" fill="#C4C4C4"/>
</mask>
<g mask="url(#mask0_701_48248)">
<path d="M90.4243 193.362C90.6668 192.877 90.9092 192.635 90.9092 192.15C90.9092 191.908 90.9092 191.665 90.6668 191.665C90.4243 191.423 89.6971 190.696 89.2122 191.181C88.9698 191.423 88.7274 192.392 88.9698 192.635C89.4546 192.877 90.1819 193.362 90.4243 193.362Z" fill="#E6EBF2"/>
<path d="M87.2728 182.701C87.5152 182.943 88.2425 183.186 88.4849 182.943C88.7273 182.701 89.2122 181.731 88.9698 181.489C88.7273 181.246 87.7576 181.489 87.2728 181.489C87.2728 181.731 87.0304 182.458 87.2728 182.701Z" fill="#E6EBF2"/>
<path d="M86.3029 167.677C86.7878 167.435 87.2726 167.192 87.2726 166.708C87.2726 166.466 86.7878 165.254 86.3029 165.496C86.0605 165.496 85.5757 166.466 85.3333 166.95C85.3333 167.192 86.0605 167.919 86.3029 167.677Z" fill="#E6EBF2"/>
<path d="M82.9091 207.9C83.3939 207.173 83.8788 206.204 84.3636 205.235C83.6363 205.235 83.1515 205.235 82.9091 205.719C82.4242 206.446 82.6667 207.173 82.9091 207.9Z" fill="#E6EBF2"/>
<path d="M95.7576 167.435C96.7273 167.192 98.1818 165.738 98.1818 164.769C98.1818 163.8 96.9697 162.831 95.7576 163.073C94.5455 163.315 93.8182 164.042 94.0606 165.496C94.0606 166.708 94.7879 167.677 95.7576 167.435Z" fill="#E6EBF2"/>
<path d="M90.9089 163.801C91.1513 163.801 91.6362 163.558 91.3938 163.073C91.1513 162.589 90.9089 162.589 90.6665 162.589C90.4241 162.589 90.1816 163.073 90.1816 163.316C90.4241 163.558 90.6665 164.043 90.9089 163.801Z" fill="#E6EBF2"/>
<path d="M92.8486 151.443C93.3335 151.443 94.3032 151.201 94.3032 150.474C94.3032 149.746 93.3335 149.504 93.091 149.504C92.8486 149.504 92.1213 149.989 92.1213 150.474C92.1213 150.716 92.6062 151.443 92.8486 151.443Z" fill="#E6EBF2"/>
<path d="M80.9699 181.973C81.9396 181.973 82.9093 181.004 82.9093 180.035C82.9093 178.823 81.9396 178.096 80.7275 178.096C79.5154 178.096 78.7881 178.823 78.7881 180.035C78.7881 181.246 79.7578 181.973 80.9699 181.973Z" fill="#E6EBF2"/>
<path d="M61.5759 221.954C62.788 220.985 62.788 219.531 61.3334 217.835C60.6062 216.866 58.6668 216.866 57.9395 217.593C56.9698 218.562 56.485 221.469 57.2122 222.439C57.9395 223.408 60.1213 223.166 61.5759 221.954Z" fill="#E6EBF2"/>
<path d="M77.0909 214.927C77.8181 214.442 78.0606 213.958 78.303 213.231C78.7878 212.989 78.7878 212.504 78.7878 212.019C78.7878 211.777 78.5454 211.292 78.303 210.808C78.0606 210.565 78.0606 210.323 77.8181 210.081C76.606 208.385 73.6969 208.142 72.2424 209.354C70.7878 210.565 70.5454 213.231 71.7575 214.927C72.4848 216.623 74.9091 216.623 77.0909 214.927Z" fill="#E6EBF2"/>
<path d="M60.8485 225.346C60.6061 226.073 60.3637 227.285 60.8485 227.527C61.3334 227.769 62.3031 227.769 62.7879 227.527C63.2728 227.285 63.5152 225.589 63.2728 225.346C63.0304 225.104 60.8485 224.862 60.8485 225.346Z" fill="#E6EBF2"/>
<path d="M63.7576 238.189C64.4849 238.915 66.9091 238.915 67.8788 238.431C68.8485 237.704 68.8485 236.735 67.6364 235.281C66.4243 233.827 65.4546 233.585 64.4849 234.312C63.0303 235.523 62.7879 236.977 63.7576 238.189Z" fill="#E6EBF2"/>
<path d="M62.3031 184.639C62.788 184.154 63.2728 183.185 63.0304 182.942C62.788 182.458 61.5759 182.458 61.091 182.7C60.6062 182.942 59.8789 184.396 60.3638 184.881C60.6062 184.881 62.0607 184.881 62.3031 184.639Z" fill="#E6EBF2"/>
<path d="M76.1212 199.662C76.6061 200.389 78.0606 200.631 78.7879 200.146C79.2728 199.662 79.2728 198.45 78.5455 197.481C78.0606 196.754 77.3334 196.754 76.6061 197.239C76.1212 197.723 75.6364 198.692 76.1212 199.662Z" fill="#E6EBF2"/>
<path d="M68.3637 231.646C69.3334 231.646 70.0607 230.919 70.3031 229.708C70.5455 228.739 70.3031 228.012 69.3334 227.769C67.8788 227.042 66.9092 228.012 65.9395 228.981C66.6667 230.435 66.6667 231.646 68.3637 231.646Z" fill="#E6EBF2"/>
<path d="M68.8486 205.72C69.091 205.478 69.8183 204.993 69.3334 204.266C68.8486 203.538 68.1213 204.266 67.6365 204.266C67.394 204.266 67.394 205.235 67.394 205.235C67.8789 205.72 68.6062 205.963 68.8486 205.72Z" fill="#E6EBF2"/>
<path d="M75.394 187.062C76.3637 186.335 76.3637 185.123 75.6364 184.154C74.9091 183.185 73.9394 182.942 72.9697 183.669C72 184.396 71.7576 185.608 72.4849 186.577C73.2122 187.304 74.6667 187.546 75.394 187.062Z" fill="#E6EBF2"/>
<path d="M72 190.696C72.4848 190.696 73.2121 189.485 73.2121 189C73.2121 188.516 72.4848 187.546 72 187.546C71.5151 187.546 70.7878 188.273 70.5454 188.758C70.7878 189.243 71.5151 190.696 72 190.696Z" fill="#E6EBF2"/>
<path d="M102.061 139.085C103.03 139.085 103.758 137.389 103.758 136.662C103.758 136.177 102.546 133.996 101.576 133.996C100.606 133.996 99.8789 136.419 99.8789 137.389C100.121 137.873 100.849 139.085 102.061 139.085Z" fill="#E6EBF2"/>
<path d="M93.5759 186.577C94.0607 186.577 94.3031 186.335 94.788 186.092C95.0304 185.608 95.2729 185.123 95.5153 184.881C95.5153 184.396 94.788 183.912 94.0607 183.669C94.0607 183.427 93.5759 183.669 93.3335 183.669H93.091C92.1213 183.669 91.6365 184.154 91.8789 185.123C91.8789 185.85 92.3638 186.577 93.5759 186.577Z" fill="#E6EBF2"/>
<path d="M115.636 151.2C114.667 151.2 113.939 152.169 113.939 153.139C113.939 154.35 114.667 155.077 115.636 155.319C116.364 154.35 117.091 153.381 117.818 152.412C117.333 151.685 116.364 151.2 115.636 151.2Z" fill="#E6EBF2"/>
<path d="M107.879 165.739C108.364 165.255 108.606 164.527 109.091 164.042C108.364 164.77 107.879 165.255 107.879 165.739Z" fill="#E6EBF2"/>
<path d="M92.8485 189.486C93.3333 188.759 93.5757 188.274 94.0606 187.546C94.0606 187.546 94.0606 187.546 93.8182 187.546C93.0909 188.274 92.606 188.759 92.8485 189.486Z" fill="#E6EBF2"/>
<path d="M95.7575 170.1C95.2727 170.1 94.5454 170.343 94.5454 170.827C94.5454 171.312 95.2727 171.797 95.5151 171.797C96 171.797 96.9697 171.312 96.9697 170.827C96.9697 170.585 96 170.1 95.7575 170.1Z" fill="#E6EBF2"/>
<path d="M71.2727 235.766C71.7576 234.796 72 233.827 72.4848 232.615C71.2727 233.585 70.7879 234.796 71.2727 235.766Z" fill="#E6EBF2"/>
<path d="M73.697 224.862C73.697 225.589 73.9394 226.316 74.4243 227.042C75.1516 225.589 75.6364 223.892 76.3637 222.439C75.1516 222.923 73.9394 223.892 73.697 224.862Z" fill="#E6EBF2"/>
<path d="M66.6667 248.608C66.1818 249.092 66.1818 249.819 65.9394 250.304C65.697 250.789 65.6969 251.515 65.4545 252.242C65.2121 252.727 65.2121 253.212 65.4545 253.696C65.9394 252 66.4242 250.062 67.1515 248.365C66.9091 248.365 66.6667 248.608 66.6667 248.608Z" fill="#E6EBF2"/>
<path d="M52.6062 290.285C53.091 291.254 54.3031 291.496 55.0304 291.012C55.2728 290.769 55.7577 289.8 56.0001 289.073C56.485 289.316 56.7274 289.558 57.2122 289.558C57.4547 288.104 57.6971 286.65 57.9395 285.196C57.2122 284.469 57.4547 283.742 57.2122 282.531C57.6971 282.531 57.9395 282.531 58.4243 282.289C58.9092 280.35 59.1516 278.412 59.6365 276.473C58.9092 275.504 57.9395 275.504 56.7274 276.473C55.5153 277.442 54.3031 278.412 55.2728 280.835C54.3031 280.35 53.5759 280.108 53.3334 279.866C52.3637 279.139 51.6365 278.896 50.6668 279.623C49.6971 280.35 48.7274 281.077 48.9698 282.531C49.6971 286.892 50.6668 287.619 54.788 287.619H55.0304C54.5456 287.619 53.8183 287.862 53.3334 288.104C52.3637 288.589 51.8789 289.316 52.6062 290.285Z" fill="#E6EBF2"/>
<path d="M55.7576 266.781C55.7576 269.204 57.9394 271.385 60.6061 271.627C61.8182 266.538 63.0303 261.45 64.4849 256.119C63.0303 255.392 61.0909 255.877 60.3636 257.573C59.8788 259.027 59.8788 260.723 59.3939 262.662C57.9394 263.631 56 264.6 55.7576 266.781Z" fill="#E6EBF2"/>
<path d="M132.606 125.515C134.061 125.515 134.788 124.546 134.788 123.335C134.788 122.123 133.576 121.154 132.364 121.396C131.152 121.396 130.182 122.365 130.424 123.819C130.424 124.789 131.394 125.758 132.606 125.515Z" fill="#E6EBF2"/>
<path d="M63.7577 252.485C64.7274 252 64.9698 250.062 64.4849 249.335C63.2728 247.639 61.5758 246.912 60.3637 247.639C59.1516 248.366 58.9092 250.546 59.8789 252C60.3637 252.969 62.5455 253.212 63.7577 252.485Z" fill="#E6EBF2"/>
<path d="M109.333 149.504C110.303 149.262 111.03 149.019 111.03 147.808C111.03 146.839 109.091 145.627 108.606 146.112C107.879 146.354 107.879 147.323 107.636 148.05C107.879 148.777 108.363 149.504 109.333 149.504Z" fill="#E6EBF2"/>
<path d="M116.121 134.481C117.091 134.481 118.061 133.512 118.061 132.542C118.061 131.331 116.849 130.119 115.879 130.362C114.909 130.362 113.939 131.573 113.939 132.542C113.939 133.754 114.909 134.723 116.121 134.481Z" fill="#E6EBF2"/>
<path d="M140.121 114.612C140.606 114.612 141.333 114.127 141.333 113.642C141.576 113.158 141.333 112.189 140.849 111.704C139.879 110.735 138.424 111.704 138.182 112.431C137.94 113.158 138.909 114.612 140.121 114.612Z" fill="#E6EBF2"/>
<path d="M124.606 141.992C125.818 141.992 126.788 141.023 126.788 140.054C126.788 138.842 126.303 138.115 125.091 138.115C123.879 138.115 122.909 138.842 122.909 140.054C122.909 141.023 123.636 141.992 124.606 141.992Z" fill="#E6EBF2"/>
<path d="M55.7575 254.665C55.0303 255.392 54.0606 256.119 54.7878 257.331C55.0303 257.815 56 258.058 56.7272 258.058C57.2121 258.058 57.9394 257.331 57.9394 256.846C57.9394 255.635 57.2121 254.908 55.7575 254.665Z" fill="#E6EBF2"/>
<path d="M54.7878 306.035C55.0303 304.823 55.0303 303.612 55.2727 302.4C55.0303 302.4 55.0303 302.4 54.7878 302.642C53.8181 303.369 53.5757 304.823 54.303 305.55C54.303 305.792 54.5454 305.792 54.7878 306.035Z" fill="#E6EBF2"/>
<path d="M53.3333 316.454C53.5757 316.212 53.8181 316.212 53.8181 315.969C53.8181 314.273 54.0605 312.819 54.303 311.123L54.0605 310.881C52.8484 309.185 49.9393 308.942 48.4848 310.396C47.2727 311.608 47.2727 314.515 48.4848 316.212C49.6969 317.665 51.6363 317.908 53.3333 316.454Z" fill="#E6EBF2"/>
<path d="M7.51506 273.081C7.03021 272.354 5.57566 272.112 4.84839 272.596C3.87869 273.081 3.63627 274.535 4.36354 275.262C5.09082 275.989 6.06051 276.231 7.03021 275.746C7.99991 275.262 8.24233 273.808 7.51506 273.081Z" fill="#E6EBF2"/>
<path d="M13.091 236.977C11.6364 236.25 10.6667 237.219 9.69702 238.189C10.1819 239.4 10.4243 240.854 11.8788 240.854C12.8485 240.854 13.5758 240.127 13.8182 238.916C14.0607 237.946 13.8182 237.462 13.091 236.977Z" fill="#E6EBF2"/>
<path d="M8.00017 291.981C7.75775 292.223 7.2729 292.708 7.75775 293.435C8.2426 294.162 8.96987 294.162 9.69714 293.677C10.182 293.192 10.182 292.465 9.69714 291.981C8.96987 291.496 8.2426 291.739 8.00017 291.981Z" fill="#E6EBF2"/>
<path d="M14.5455 296.827C14.3031 297.069 14.0606 298.038 14.3031 298.281C14.5455 298.523 15.5152 299.25 16 298.765C16.2424 298.281 16.2424 297.554 16 297.312C15.7576 297.069 15.0303 296.342 14.5455 296.827Z" fill="#E6EBF2"/>
<path d="M6.78791 263.873C8.7273 263.631 10.4243 261.692 9.697 259.996C9.21215 258.542 8.24245 258.058 6.78791 258.058C5.33336 258.058 4.60609 258.785 4.36366 259.996C4.12124 260.965 3.15154 262.904 4.12124 263.873C5.33336 265.327 6.06063 264.115 6.78791 263.873Z" fill="#E6EBF2"/>
<path d="M21.8182 265.085C22.5455 264.6 22.7879 263.146 22.303 262.419C21.8182 261.692 20.1212 261.208 19.394 261.935C18.6667 262.419 18.4243 263.873 19.1515 264.6C19.394 265.327 20.8485 265.569 21.8182 265.085Z" fill="#E6EBF2"/>
<path d="M16 249.093C16.2425 248.851 16.9697 248.366 16.7273 247.639C16.4849 246.912 15.5152 247.396 15.2728 247.396C15.0303 247.639 14.7879 248.366 15.0303 248.608C15.0303 248.851 15.7576 249.336 16 249.093Z" fill="#E6EBF2"/>
<path d="M0.242424 292.708C0 292.708 0 293.678 0 293.678C0.242424 293.92 0.969697 294.163 1.21212 293.92C1.45455 293.678 2.18182 293.193 1.69697 292.466C1.45455 291.738 0.727273 292.466 0.242424 292.708Z" fill="#E6EBF2"/>
<path d="M21.091 215.413C21.3334 215.17 21.3334 214.443 21.091 213.958C21.091 213.716 20.1213 213.231 19.6364 213.473C19.1516 213.716 19.6364 214.685 19.8788 215.17C20.1213 215.413 20.8485 215.655 21.091 215.413Z" fill="#E6EBF2"/>
<path d="M16.9696 305.308C16.2423 305.792 15.7575 306.762 16.4848 307.489C16.9696 307.973 18.1817 308.215 18.6666 307.973C19.1514 307.488 19.1514 306.519 19.3939 306.035C18.6666 304.581 17.6969 304.823 16.9696 305.308Z" fill="#E6EBF2"/>
<path d="M51.1514 303.612C51.8787 302.885 51.8787 301.189 51.3938 300.219C50.1817 298.766 48.4847 298.523 47.2726 299.492C45.818 300.704 45.5756 302.885 46.3029 303.854C47.0302 304.581 50.1817 304.581 51.1514 303.612Z" fill="#E6EBF2"/>
<path d="M21.5758 280.35C20.3636 278.896 18.1818 278.411 16.9697 279.138C16 279.865 16 282.046 16.9697 283.258C17.9394 284.227 19.6364 284.469 20.8485 283.258C22.0606 282.531 22.303 281.319 21.5758 280.35Z" fill="#E6EBF2"/>
<path d="M31.0303 304.823C29.5758 301.189 27.394 301.189 24.7273 304.339C24.4849 304.339 24.2425 304.339 24 304.096C23.0303 303.612 22.3031 304.096 21.5758 305.066C21.0909 305.792 21.0909 306.519 21.5758 307.246C22.5455 309.185 23.5152 309.427 25.4546 308.216C26.9091 307.246 28.3637 306.519 29.8182 305.55C31.5152 307.973 32 308.216 33.697 306.035C33.697 305.066 32.7273 304.581 31.0303 304.823Z" fill="#E6EBF2"/>
<path d="M45.5758 288.831C46.7879 287.862 46.5455 286.408 45.3334 284.954C44.3637 283.742 42.9091 283.258 41.9394 284.227C40.9697 284.954 40.4849 288.104 40.9697 288.831C42.4243 290.042 44.1213 290.042 45.5758 288.831Z" fill="#E6EBF2"/>
<path d="M46.7879 202.327C47.2727 201.842 48 200.389 47.7576 199.904C47.2727 199.419 45.8182 199.662 45.0909 199.904C44.1212 200.146 44.1212 201.358 44.8485 202.327C45.3333 203.054 46.303 202.812 46.7879 202.327Z" fill="#E6EBF2"/>
<path d="M53.0909 243.519C51.8787 244.004 50.4242 244.004 50.6666 245.942C50.909 247.154 51.3939 247.881 52.606 247.881C53.0909 247.881 53.5757 247.881 53.8181 247.396C54.303 246.427 54.7878 245.458 55.2727 244.489C57.6969 243.762 59.1515 242.55 58.909 241.096C58.6666 239.642 56.2424 238.189 54.5454 238.673C52.8484 239.158 52.606 240.127 53.0909 243.519Z" fill="#E6EBF2"/>
<path d="M46.5453 220.742C47.2726 221.469 47.9999 221.712 48.7272 220.985C49.212 220.5 49.9393 218.804 49.4544 218.077C48.9696 217.35 47.0302 218.319 46.5453 218.562C45.8181 219.046 45.5756 220.015 46.5453 220.742Z" fill="#E6EBF2"/>
<path d="M44.3636 239.885C45.5758 239.158 46.0606 236.977 45.3333 235.766C44.6061 234.796 43.1515 234.554 42.1818 235.281C40.9697 236.008 40.7273 237.946 41.697 239.158C42.4243 240.127 43.6364 240.612 44.3636 239.885Z" fill="#E6EBF2"/>
<path d="M44.8485 228.981C45.091 228.739 45.091 228.254 44.8485 228.012C44.6061 227.769 44.1213 228.012 44.1213 228.012C43.8788 228.254 43.8788 228.497 44.1213 228.739C44.1213 228.981 44.6061 229.224 44.8485 228.981Z" fill="#E6EBF2"/>
<path d="M48.2424 274.777C48.7272 275.746 50.6666 276.231 51.8787 275.262C52.606 274.535 52.8484 273.808 52.1212 272.839C51.6363 271.869 50.6666 271.385 49.6969 271.627C48.2424 271.869 47.7575 273.808 48.2424 274.777Z" fill="#E6EBF2"/>
<path d="M53.5756 228.012C54.5453 227.285 54.5453 225.589 53.818 224.862C53.0907 224.135 52.121 223.893 51.1514 224.619C49.9392 225.346 49.9392 226.8 50.6665 227.769C51.3938 228.496 52.8483 228.739 53.5756 228.012Z" fill="#E6EBF2"/>
<path d="M42.9091 260.238C41.697 261.208 41.4546 263.631 42.4243 264.842C43.1515 265.812 45.0909 265.812 46.3031 264.842C47.7576 263.631 48.2425 262.419 47.2728 261.208C46.3031 259.754 43.8788 259.512 42.9091 260.238Z" fill="#E6EBF2"/>
<path d="M47.9998 246.669C46.7877 245.215 44.3635 244.973 42.9089 245.942C41.212 247.154 40.9695 249.577 41.9392 251.031C43.1514 252.727 45.5756 253.454 47.0301 252.485C48.4847 251.515 49.212 248.123 47.9998 246.669Z" fill="#E6EBF2"/>
<path d="M36.3636 291.981C37.8182 290.769 38.0606 288.831 36.8485 287.377C35.6364 285.681 32.7273 285.439 31.2727 286.892C30.0606 287.862 30.0606 290.527 31.0303 291.981C32.2424 293.435 34.4243 293.435 36.3636 291.981Z" fill="#E6EBF2"/>
<path d="M37.0911 216.865C37.5759 216.623 37.3335 215.412 37.0911 215.169C36.8487 214.927 36.1214 214.685 35.6365 214.927C35.1517 215.169 35.3941 215.896 35.3941 216.381C35.6365 216.623 36.8487 217.35 37.0911 216.865Z" fill="#E6EBF2"/>
<path d="M40.7271 258.542C41.212 258.058 40.4847 256.362 40.2423 255.877C39.9999 255.635 38.7877 255.635 38.3029 256.119C37.5756 256.604 37.3332 257.331 38.0605 257.815C38.7877 258.058 40.2423 259.027 40.7271 258.542Z" fill="#E6EBF2"/>
<path d="M33.9395 241.096C35.1516 240.127 35.1516 237.946 33.9395 236.492C32.7274 235.038 31.0304 235.281 29.5759 236.492C28.1213 237.946 27.8789 239.4 29.3334 240.854C30.5456 242.308 32.485 242.308 33.9395 241.096Z" fill="#E6EBF2"/>
<path d="M40.7273 276.716C40 275.989 38.5455 275.989 37.8182 276.716C36.8485 277.443 36.8485 278.896 37.5758 279.623C38.3031 280.593 40 280.593 40.7273 279.623C41.2121 278.896 41.2121 277.443 40.7273 276.716Z" fill="#E6EBF2"/>
<path d="M40.2424 272.112C40.2424 271.627 40.2424 270.415 39.9999 269.688C39.5151 268.719 37.8181 268.719 36.8484 269.688C36.1212 270.415 36.1212 271.627 36.8484 272.354C37.5757 273.081 39.0303 273.081 40.2424 272.112Z" fill="#E6EBF2"/>
<path d="M30.788 272.112C30.3031 271.627 27.8789 271.869 27.1516 273.323C26.6668 274.292 26.9092 275.262 27.8789 275.989C28.8486 276.715 29.8183 276.715 30.5455 275.989C32.0001 274.777 31.2728 272.596 30.788 272.112Z" fill="#E6EBF2"/>
<path d="M39.5152 303.369C40.4849 302.642 39.7576 301.189 39.2727 300.219C39.0303 299.25 37.8182 299.25 36.8485 299.977C35.8788 300.704 35.6364 301.673 36.6061 302.158C37.3334 302.885 38.303 304.096 39.5152 303.369Z" fill="#E6EBF2"/>
<path d="M27.3938 255.15C27.8786 254.665 28.8483 252.969 28.3635 252.242C27.8786 251.515 26.1817 252.242 25.4544 252.485C24.7271 252.727 24.7271 254.181 25.4544 254.908C25.9392 255.635 26.6665 256.119 27.3938 255.15Z" fill="#E6EBF2"/>
<path d="M350.788 583.719C486.817 583.719 597.091 473.499 597.091 337.535C597.091 201.571 486.817 91.35 350.788 91.35C214.758 91.35 104.485 201.571 104.485 337.535C104.485 473.499 214.758 583.719 350.788 583.719Z" fill="#7DE2D1"/>
<path d="M109.576 292.95C109.333 292.708 108.849 292.465 108.606 292.708C108.121 295.373 107.636 298.038 107.394 300.461C107.636 300.461 107.879 300.704 108.121 300.704C109.576 301.188 112 299.492 112 297.796C112 296.585 111.03 294.888 109.576 294.404H109.818C110.061 294.162 109.818 293.192 109.576 292.95Z" fill="#42D4C6"/>
<path d="M136.485 314.515C137.455 315 138.667 314.758 139.152 313.546C139.394 312.819 139.394 311.85 139.152 311.365C138.182 310.154 136.97 310.638 135.758 311.365C135.273 312.577 135.273 313.788 136.485 314.515Z" fill="#42D4C6"/>
<path d="M139.879 301.188C140.606 300.704 140.606 299.735 139.636 299.25C138.909 298.765 137.939 298.523 137.454 299.25C136.97 299.977 136.485 301.673 136.97 302.158C137.454 302.885 139.151 301.673 139.879 301.188Z" fill="#42D4C6"/>
<path d="M106.909 305.55C107.152 305.065 107.152 304.338 106.909 303.854L106.667 303.611C106.667 304.338 106.424 305.308 106.424 306.035C106.667 306.035 106.909 305.792 106.909 305.55Z" fill="#42D4C6"/>
<path d="M122.667 294.162C122.424 294.404 121.939 296.1 122.424 296.585C122.909 297.069 124.606 296.585 124.606 296.1C124.848 295.373 124.848 294.162 124.364 293.919C124.121 293.677 123.152 293.919 122.667 294.162Z" fill="#42D4C6"/>
<path d="M142.303 280.35C141.333 279.381 140.364 279.138 139.394 279.865C138.182 280.835 138.182 283.015 138.909 284.227C139.636 285.196 141.091 285.196 142.061 284.469C143.273 283.5 143.273 281.562 142.303 280.35Z" fill="#42D4C6"/>
<path d="M123.152 267.992C122.424 268.235 122.667 268.72 122.667 268.962C122.909 269.447 123.394 270.174 124.121 269.932C124.849 269.689 124.606 268.72 124.606 268.477C124.121 268.235 123.879 267.75 123.152 267.992Z" fill="#42D4C6"/>
<path d="M141.091 291.496C141.333 291.254 141.333 291.012 141.091 290.769C140.848 290.527 140.364 290.527 140.121 290.769C139.879 291.012 140.121 291.496 140.121 291.496C140.364 291.739 140.848 291.739 141.091 291.496Z" fill="#42D4C6"/>
<path d="M142.788 287.862C142.546 287.135 142.061 287.134 141.818 287.377C141.333 287.619 140.364 287.862 140.606 288.589C140.849 289.316 141.818 289.316 141.818 289.074C142.303 288.831 143.03 288.589 142.788 287.862Z" fill="#42D4C6"/>
<path d="M117.333 282.773C116.363 283.015 116.121 283.5 115.879 283.985C115.636 284.469 115.151 284.954 115.151 285.923C115.151 286.892 115.636 288.588 116.848 289.315C118.06 290.042 119.273 290.042 120.242 289.558C121.212 289.073 121.697 287.861 121.697 287.135C121.697 286.65 121.454 285.923 121.212 285.438C121.212 284.954 120.97 284.469 120.485 283.985C120.242 283.742 119.757 283.742 119.273 283.742C118.788 283.015 118.06 282.531 117.333 282.773Z" fill="#42D4C6"/>
<path d="M119.03 269.446C118.061 270.173 118.061 271.869 118.546 272.596C120 274.292 121.697 274.777 122.909 273.808C123.879 272.838 123.879 270.658 123.152 269.446C122.182 268.477 120.242 268.477 119.03 269.446Z" fill="#42D4C6"/>
<path d="M144 311.365C142.788 311.608 142.061 313.062 142.545 314.758C143.03 316.454 144.727 317.908 145.939 317.665C147.636 317.181 148.848 315.242 148.606 313.546C148.364 312.092 145.939 310.881 144 311.365Z" fill="#42D4C6"/>
<path d="M143.758 261.45C143.273 261.208 141.576 260.481 141.091 260.965C140.606 261.45 141.576 263.146 142.061 263.631C142.303 263.873 143.515 263.631 144 263.388C144.485 262.661 144.727 261.935 143.758 261.45Z" fill="#42D4C6"/>
<path d="M139.879 295.373C138.182 296.1 138.667 298.038 139.636 298.523C140.364 299.008 141.576 298.523 142.061 297.796C142.303 296.827 142.061 296.342 139.879 295.373Z" fill="#42D4C6"/>
<path d="M125.091 303.612C126.061 304.338 127.757 304.338 128.485 303.612C129.454 302.642 129.697 299.492 128.727 298.765C127.757 297.796 125.576 298.281 124.364 299.735C123.151 300.704 123.394 302.158 125.091 303.612Z" fill="#42D4C6"/>
<path d="M131.636 292.465C130.909 293.192 130.909 294.888 131.879 295.615C132.606 296.342 133.818 296.342 134.545 295.615C135.515 294.646 135.515 293.435 134.788 292.465C133.818 291.738 132.364 291.738 131.636 292.465Z" fill="#42D4C6"/>
<path d="M130.909 291.981C130.667 290.527 130.182 289.8 128.727 289.8C127.03 289.8 125.576 291.254 125.576 292.95C125.576 294.646 126.546 294.888 126.546 296.1C126.546 297.311 127.03 297.554 128.243 298.038C129.455 298.523 131.152 299.007 131.637 297.311C132.121 295.615 131.152 295.131 130.667 295.131C130.182 295.131 129.697 294.161 130.182 294.161C130.667 294.161 131.152 293.434 130.909 291.981Z" fill="#42D4C6"/>
<path d="M121.455 313.061C121.212 314.273 121.697 315.484 122.424 316.696C123.394 317.908 123.152 319.361 124.364 320.088C126.061 321.058 129.212 321.785 131.879 319.361C133.333 317.908 134.061 316.454 133.818 315C133.576 313.304 131.394 312.819 130.424 311.365C128.243 307.488 125.091 308.7 122.909 310.638C122.182 311.123 121.697 312.092 121.455 313.061Z" fill="#42D4C6"/>
<path d="M121.212 306.035C120.243 306.277 119.515 307.488 119.758 308.7C120.243 308.942 121.212 309.185 121.939 309.185C122.909 309.185 123.152 308.215 122.909 307.246C122.667 306.519 122.424 305.792 121.212 306.035Z" fill="#42D4C6"/>
<path d="M115.879 297.554C115.394 297.554 115.151 298.039 115.151 298.523C115.151 299.008 115.636 299.493 116.121 299.251C116.606 299.251 117.091 298.766 116.848 298.281C116.848 297.796 116.606 297.554 115.879 297.554Z" fill="#42D4C6"/>
<path d="M110.061 285.196C109.576 287.135 109.333 289.073 108.848 291.012C109.576 291.254 110.545 291.496 111.515 290.769C113.212 289.8 114.424 287.619 112.97 286.408C112 285.681 111.03 285.438 110.061 285.196Z" fill="#42D4C6"/>
<path d="M110.061 303.611C109.091 305.065 109.091 306.761 110.061 307.731C109.818 307.731 109.818 307.973 109.576 307.973C108.121 309.427 107.879 311.608 109.333 313.061C109.576 313.304 109.818 313.546 110.061 313.546C110.061 313.788 110.061 314.031 110.061 314.273C110.061 315.727 111.03 318.392 113.94 317.908C116.606 317.423 118.061 315.727 117.818 314.031C117.818 313.061 116.849 312.092 115.879 311.365C116.121 309.911 115.879 308.458 115.152 307.488C114.909 307.246 114.909 307.246 114.667 307.004C115.152 306.277 115.636 305.308 115.636 304.096C114.909 303.611 114.182 302.885 113.455 302.642C112.485 302.158 110.788 302.642 110.061 303.611Z" fill="#42D4C6"/>
<path d="M116.606 290.527C115.636 290.769 114.909 291.496 114.909 292.708C114.909 293.677 115.151 294.404 116.121 294.646C117.576 295.131 118.545 294.161 119.273 292.95C118.545 291.738 118.303 290.285 116.606 290.527Z" fill="#42D4C6"/>
<path d="M171.879 256.119C172.606 257.331 173.576 257.815 175.03 257.815C176.485 257.815 177.212 256.846 177.455 255.392C177.455 254.423 178.424 252.242 177.212 251.515C176 250.546 175.273 251.758 174.545 252C172.606 252.485 171.152 254.665 171.879 256.119Z" fill="#42D4C6"/>
<path d="M172.606 243.035C173.333 243.761 174.545 243.761 175.273 243.277C176 242.55 176.242 241.338 175.515 240.611C174.788 239.885 173.576 239.884 172.848 240.369C172.121 240.854 172.121 242.308 172.606 243.035Z" fill="#42D4C6"/>
<path d="M140.364 247.396C140.364 247.881 140.364 249.092 140.849 249.819C141.576 250.788 143.03 250.546 144 249.577C144.727 248.85 144.485 247.638 143.758 246.912C142.788 246.185 141.333 246.185 140.364 247.396Z" fill="#42D4C6"/>
<path d="M174.303 215.654C174.06 215.896 174.06 216.865 174.303 217.35C174.545 217.592 175.515 217.835 176 217.592C176.242 217.35 176.727 216.381 176.485 215.896C176 214.927 174.545 215.412 174.303 215.654Z" fill="#42D4C6"/>
<path d="M177.939 222.924C178.182 222.681 178.182 221.954 177.939 221.712C177.455 221.469 176.97 221.227 176.485 221.469C176.242 221.712 175.515 222.439 176 222.924C176.727 223.894 177.455 222.924 177.939 222.924Z" fill="#42D4C6"/>
<path d="M187.879 161.861C185.697 162.346 184.727 164.769 184.97 166.708C185.212 168.646 188.606 170.827 190.788 169.858C192.485 169.131 191.758 167.192 190.788 166.465C189.818 165.738 190.303 165.738 190.303 164.527C190.788 163.315 190.061 161.377 187.879 161.861Z" fill="#42D4C6"/>
<path d="M124.849 280.108C125.334 281.561 128 282.531 129.455 282.046C131.152 281.561 131.394 280.592 130.424 277.442C131.152 277.442 131.879 277.2 132.364 276.715C132.364 276.473 132.364 275.988 132.606 275.746C132.606 275.504 132.606 275.261 132.606 275.019V274.777C133.576 274.292 134.303 273.565 134.546 272.838C134.546 273.081 134.788 273.323 135.031 273.565C136.485 275.019 138.909 275.019 140.364 273.565C141.818 272.111 142.061 269.688 140.849 268.477C139.394 266.781 136.97 266.538 135.758 267.508C135.031 268.234 134.546 269.446 134.546 270.658C134.061 270.415 133.576 270.173 133.091 270.173C131.394 270.415 130.909 270.9 130.667 272.838C130.182 272.838 129.697 273.081 129.455 273.323C129.455 273.565 129.212 273.808 129.212 274.05C128.485 274.534 128 275.019 127.515 275.504C127.031 275.988 127.031 276.473 127.273 276.958C125.334 277.684 124.606 278.896 124.849 280.108Z" fill="#42D4C6"/>
<path d="M112.243 277.442C112.485 275.988 113.697 276.231 114.667 275.746C115.394 275.262 116.121 274.535 116.606 273.565C116.849 273.081 117.091 272.354 117.333 271.869C117.576 271.142 117.576 270.658 117.576 269.931C117.818 267.75 117.091 266.781 115.636 266.296C115.394 266.296 115.394 266.296 115.394 266.296C114.182 270.173 113.212 274.05 112.243 277.927C112 277.685 112.243 277.442 112.243 277.442Z" fill="#42D4C6"/>
<path d="M133.576 243.519C132.606 243.762 132.848 244.488 132.848 244.973C132.848 245.215 133.576 245.7 133.818 245.7C134.303 245.7 134.788 244.973 134.788 244.731C134.788 244.246 134.303 243.277 133.576 243.519Z" fill="#42D4C6"/>
<path d="M134.546 259.027C135.515 260.238 137.94 260.238 138.909 259.269C139.879 258.3 139.879 255.877 138.909 254.665C138.182 253.696 136 253.938 135.03 255.15C133.576 256.846 133.334 258.058 134.546 259.027Z" fill="#42D4C6"/>
<path d="M149.333 195.785C148.606 196.754 148.121 197.723 147.394 198.45C148.121 198.45 148.849 197.965 149.091 197.481C149.576 197.238 149.576 196.511 149.333 195.785Z" fill="#42D4C6"/>
<path d="M166.788 303.369C167.273 302.884 166.788 302.158 166.303 301.673C166.061 301.431 165.333 301.431 165.091 301.673C164.848 301.915 165.091 302.642 165.091 303.127C165.576 303.369 166.545 303.854 166.788 303.369Z" fill="#42D4C6"/>
<path d="M166.788 267.75C166.545 267.992 165.818 268.72 166.303 269.204C166.788 269.689 167.515 269.447 167.758 269.204C168 268.962 168 268.235 168 267.992C167.758 267.75 167.03 267.508 166.788 267.75Z" fill="#42D4C6"/>
<path d="M161.697 189C162.909 189 163.879 187.546 163.879 185.85C163.879 184.396 162.909 183.427 161.697 183.669C160.485 183.669 158.545 185.608 158.545 186.577C158.545 188.031 159.758 189 161.697 189Z" fill="#42D4C6"/>
<path d="M163.879 206.446C161.939 206.688 160.242 208.142 160.242 209.838C160.242 209.838 160.242 209.838 160 209.596C159.515 209.111 158.303 209.111 157.818 209.354C157.333 209.838 157.333 210.808 157.333 211.292C158.303 212.504 159.273 212.019 159.757 211.535C160 211.292 160 211.05 160.242 210.808C160.727 212.261 161.697 213.473 163.151 213.231C165.333 212.988 167.515 210.808 167.273 208.869C167.273 207.658 165.576 206.446 163.879 206.446Z" fill="#42D4C6"/>
<path d="M162.424 193.119C161.94 193.119 160.97 193.362 160.485 193.846C159.515 194.815 160 195.542 161.455 197.481C162.667 197.238 164.121 197.238 164.121 195.542C164.121 194.088 163.394 193.362 162.424 193.119Z" fill="#42D4C6"/>
<path d="M169.939 277.442C169.939 278.411 170.182 279.138 171.152 279.381C172.606 279.865 173.576 278.896 174.303 277.685C173.576 276.473 173.333 275.019 171.879 275.504C170.667 275.746 169.939 276.473 169.939 277.442Z" fill="#42D4C6"/>
<path d="M168.485 222.681C168 223.408 168 224.135 168.727 224.377C169.212 224.862 170.182 224.377 170.424 224.135C170.667 223.892 171.152 223.165 170.424 222.681C169.697 221.954 168.97 221.954 168.485 222.681Z" fill="#42D4C6"/>
<path d="M149.818 196.269C151.03 196.269 152.485 196.754 153.212 195.542C153.455 195.3 153.455 195.058 153.455 194.815C154.182 194.331 154.667 193.604 154.667 192.877C154.667 191.908 153.94 191.181 152.97 191.181C151.758 192.635 150.788 194.331 149.576 195.785C149.576 195.785 149.576 196.027 149.818 196.269Z" fill="#42D4C6"/>
<path d="M180.121 200.631C180.364 202.569 182.546 204.508 184.243 204.265C186.424 204.023 188.364 202.085 188.121 200.388C187.879 198.692 185.212 196.269 183.515 196.269C181.576 196.269 180.121 198.45 180.121 200.631Z" fill="#42D4C6"/>
<path d="M192 175.431C191.515 175.431 191.273 176.4 191.273 176.885C191.273 177.127 191.758 177.612 192.242 177.612C192.727 177.612 192.97 176.885 192.97 176.4C192.97 176.4 192.485 175.431 192 175.431Z" fill="#42D4C6"/>
<path d="M175.03 174.704C173.576 174.946 173.091 175.915 173.091 177.127C173.333 178.096 174.061 178.096 174.788 178.096C175.757 178.096 176.485 177.127 176.242 176.4C176 175.431 175.273 174.946 175.03 174.704Z" fill="#42D4C6"/>
<path d="M190.546 151.928C190.788 151.928 191.758 151.443 191.758 150.958C191.758 150.716 191.273 150.473 190.788 150.231C190.303 150.473 190.061 150.958 189.576 151.2C189.818 151.443 190.303 151.928 190.546 151.928Z" fill="#42D4C6"/>
<path d="M165.333 176.885C166.303 176.885 167.03 175.915 166.788 175.188C166.788 174.946 166.545 174.704 166.303 174.462C165.576 175.188 164.848 175.915 164.121 176.885C164.606 176.885 164.848 177.127 165.333 176.885Z" fill="#42D4C6"/>
<path d="M175.758 164.042C176.242 163.8 176.97 163.8 177.455 163.558C178.909 163.8 179.636 163.073 179.636 161.862C179.636 161.377 179.394 160.892 179.152 160.408C178.182 161.862 176.97 163.073 175.758 164.042Z" fill="#42D4C6"/>
<path d="M139.152 239.885C138.424 240.612 138.667 242.065 139.394 242.792C140.121 243.519 141.576 243.277 142.303 242.55C143.03 241.823 143.03 240.369 142.303 239.642C141.576 238.915 139.879 239.158 139.152 239.885Z" fill="#42D4C6"/>
<path d="M176.97 183.427C176.485 183.427 176 184.154 176 184.396C176 184.638 176.485 185.85 176.97 185.85C177.455 185.85 177.939 184.881 177.939 184.396C177.939 183.912 177.697 183.185 176.97 183.427Z" fill="#42D4C6"/>
<path d="M140.606 216.865C139.879 216.381 138.667 215.169 137.697 216.138C136.727 217.108 137.697 218.319 138.182 219.046C138.667 219.773 139.636 219.773 140.606 219.046C141.333 218.561 141.576 217.592 140.606 216.865Z" fill="#42D4C6"/>
<path d="M146.667 217.35C145.939 217.834 145.939 220.742 147.152 220.984C148.121 221.227 149.333 220.5 149.576 219.773C149.576 218.561 147.394 216.865 146.667 217.35Z" fill="#42D4C6"/>
<path d="M142.061 227.285C140.606 228.739 140.606 230.435 142.061 231.889C143.515 233.342 146.424 233.342 147.879 231.646C148.849 230.435 148.849 227.769 147.636 226.558C145.939 225.346 143.758 225.589 142.061 227.285Z" fill="#42D4C6"/>
<path d="M141.333 213.473C141.091 213.958 141.333 214.685 141.576 214.927C142.061 215.169 142.788 214.685 143.03 214.442C143.273 214.2 143.273 213.231 142.788 212.746C142.303 212.262 141.333 213.231 141.333 213.473Z" fill="#42D4C6"/>
<path d="M152 242.308C151.03 241.823 150.061 241.823 149.333 242.55C148.364 243.762 149.091 245.942 149.818 246.427C150.303 246.912 152.727 246.427 153.212 244.973C153.455 244.004 153.212 242.792 152 242.308Z" fill="#42D4C6"/>
<path d="M156.121 301.673C155.152 301.431 154.424 301.673 153.455 301.673C153.212 301.431 152.97 300.946 152.727 300.704C151.515 299.492 149.576 298.765 148.364 299.492C146.909 300.219 145.939 301.673 145.697 303.369C145.697 303.854 145.939 304.581 146.182 305.065C147.636 306.762 149.818 306.762 151.515 305.55C152 305.308 152.242 305.065 152.727 304.823C153.212 305.55 153.697 306.277 154.182 306.762C155.152 307.973 155.879 307.973 157.333 307.246C158.546 306.519 159.03 305.308 158.788 303.854C158.303 302.4 157.333 301.915 156.121 301.673Z" fill="#42D4C6"/>
<path d="M149.818 277.685C148.848 278.654 149.091 281.077 150.303 282.288C151.515 283.5 153.212 283.258 154.667 281.804C155.879 280.35 155.879 278.654 154.424 277.442C153.212 275.988 151.273 276.231 149.818 277.685Z" fill="#42D4C6"/>
<path d="M155.394 291.981C153.697 292.708 154.182 294.646 155.152 295.131C155.879 295.615 157.091 295.131 157.576 294.404C158.061 293.435 157.091 291.738 155.394 291.981Z" fill="#42D4C6"/>
<path d="M122.424 245.215C122.909 245.215 123.152 244.973 123.636 244.488C124.849 243.519 125.818 242.308 124.606 240.127C125.576 240.611 126.303 240.612 126.788 240.854C127.758 241.581 128.727 241.581 129.455 240.854C130.424 240.127 131.152 239.158 130.667 237.704C129.939 234.796 129.212 233.585 127.273 233.342C126.303 235.281 125.333 237.219 124.606 239.4C124.121 241.338 123.152 243.277 122.424 245.215Z" fill="#42D4C6"/>
<path d="M126.546 262.177C125.576 262.419 124.849 263.146 124.606 263.873C124.606 264.115 124.364 264.115 124.364 264.358C124.364 265.812 125.091 266.296 126.546 266.296C126.788 266.054 127.03 265.812 127.273 265.569C128 265.569 128.97 265.327 129.212 264.842C129.697 263.873 127.758 261.692 126.546 262.177Z" fill="#42D4C6"/>
<path d="M120.485 250.062C118.788 254.665 117.091 259.512 115.636 264.115C116.121 264.6 116.606 264.842 117.091 265.327C118.788 266.539 120.97 265.812 121.455 263.873C121.939 262.419 121.697 260.723 121.697 258.785C123.394 257.815 125.091 256.604 125.091 254.423C125.091 252 122.909 250.304 120.485 250.062Z" fill="#42D4C6"/>
<path d="M136.727 230.435C135.515 229.95 134.303 230.192 133.091 231.404C132.121 232.373 132.364 233.827 133.576 235.281C134.788 236.492 136 236.492 136.97 235.765C137.212 235.523 137.455 234.796 137.697 234.069C139.152 234.069 140.121 233.585 139.879 231.646C139.394 230.192 137.697 229.95 136.727 230.435Z" fill="#42D4C6"/>
<path d="M128.242 245.7C127.515 246.427 127.515 247.396 128.242 248.123C128.97 249.092 129.939 249.335 130.909 249.092C132.364 248.608 132.606 246.669 132.121 245.7C131.394 244.973 129.455 244.488 128.242 245.7Z" fill="#42D4C6"/>
<path d="M131.636 228.981C130.666 228.981 130.424 230.192 130.424 230.677C130.424 231.161 130.666 231.888 131.636 231.888C132.363 231.888 132.606 231.161 132.848 230.677C132.848 230.192 132.606 228.981 131.636 228.981Z" fill="#42D4C6"/>
<path d="M162.424 255.392C163.152 254.665 163.152 253.454 162.424 252.727C161.697 252 160.242 251.758 159.515 252.484C158.788 253.211 158.788 254.665 159.515 255.15C160 255.877 161.697 256.119 162.424 255.392Z" fill="#42D4C6"/>
<path d="M158.303 234.069C157.333 235.038 157.091 236.25 158.06 237.219C159.273 238.673 161.697 238.915 162.667 237.704C163.394 236.735 163.151 234.796 162.182 233.827C161.212 232.858 159.273 233.1 158.303 234.069Z" fill="#42D4C6"/>
<path d="M161.455 218.319C161.212 218.804 161.455 219.531 161.697 219.773C161.94 220.015 162.667 220.5 163.152 220.258C163.394 219.773 163.394 219.046 163.152 218.804C162.909 218.319 161.94 217.835 161.455 218.319Z" fill="#42D4C6"/>
<path d="M155.636 227.285C154.667 227.042 153.939 228.011 154.182 228.738C154.182 229.223 154.667 230.677 155.879 230.677C157.091 230.677 157.091 228.981 156.848 228.496C156.848 228.011 156.121 227.285 155.636 227.285Z" fill="#42D4C6"/>
<path d="M154.909 262.904C154.424 263.631 153.697 265.327 154.424 265.811C155.151 266.296 156.606 265.569 157.333 265.085C158.061 264.6 157.818 263.388 157.091 262.661C156.364 262.177 155.394 261.935 154.909 262.904Z" fill="#42D4C6"/>
<path d="M142.303 208.627C142.303 208.142 142.303 207.415 142.061 206.931C141.091 208.385 140.121 209.838 139.152 211.535C140.849 211.535 142.303 210.323 142.303 208.627Z" fill="#42D4C6"/>
<path d="M151.758 208.869C151.273 207.9 149.818 206.204 149.333 206.204C148.364 206.204 147.879 208.142 148.606 209.596C148.848 210.081 149.333 210.323 149.818 210.323C148.848 211.05 147.879 211.777 146.909 212.504C144.97 210.081 144.485 210.081 143.03 212.262C143.515 213.715 144.485 214.2 146.182 213.715C148.121 217.108 150.303 216.865 152.485 213.473C152.727 213.473 152.97 213.473 153.212 213.473C154.424 213.715 154.909 213.231 155.394 212.262C155.879 211.535 155.636 210.808 155.151 210.081C153.939 208.627 152.97 208.385 151.758 208.869Z" fill="#42D4C6"/>
<path d="M249.212 175.915C284.424 175.915 312.97 147.384 312.97 112.188C312.97 76.9931 284.424 48.4615 249.212 48.4615C214 48.4615 185.455 76.9931 185.455 112.188C185.455 147.384 214 175.915 249.212 175.915Z" fill="#1BA9F5"/>
<path d="M194.424 123.577C193.939 123.577 193.212 123.577 192.97 123.819C191.515 124.789 190.788 126.242 191.273 127.696C191.515 128.423 192.242 129.15 192.97 129.15C195.151 129.877 196.606 129.15 198.06 126.727C197.818 126.242 197.333 125.516 197.091 125.031L197.333 124.789C197.576 124.304 197.576 122.608 196.364 122.366C195.151 122.123 194.667 123.092 194.424 123.577Z" fill="#0D90E0"/>
<path d="M193.697 143.204C193.939 143.931 194.424 144.416 194.909 145.143C194.909 144.901 194.909 144.659 194.909 144.659C194.667 143.931 194.182 143.446 193.697 143.204Z" fill="#0D90E0"/>
<path d="M196.363 115.339C196.848 115.339 197.091 114.369 196.848 113.885C196.848 113.4 196.121 112.915 195.636 113.158C195.151 113.4 194.909 113.885 194.909 114.369C195.151 114.854 195.879 115.339 196.363 115.339Z" fill="#0D90E0"/>
<path d="M286.303 141.266C286.545 141.024 286.788 140.297 286.303 140.054C285.818 139.812 285.333 139.812 284.848 140.054C284.606 140.054 284.121 141.024 284.606 141.509C285.091 141.994 285.818 141.509 286.303 141.266Z" fill="#0D90E0"/>
<path d="M286.545 162.104C285.576 161.377 284.606 160.65 283.879 159.681C283.151 158.469 282.182 158.227 281.212 158.954C280.97 159.196 280.97 159.196 280.727 159.439C279.515 159.439 278.303 159.923 278.061 160.65C277.576 161.862 278.303 163.8 279.273 164.285C280 164.527 280.727 164.285 281.212 163.8C281.212 164.042 281.212 164.042 281.212 164.285C281.212 165.254 281.455 165.981 281.939 166.465C283.636 165.254 285.576 164.285 287.273 162.831C287.273 162.831 287.03 162.346 286.545 162.104Z" fill="#0D90E0"/>
<path d="M273.454 133.996C273.939 134.239 274.424 133.754 274.666 133.269C274.909 133.027 274.909 131.815 274.424 131.573C273.939 131.331 273.212 132.058 272.969 132.542C272.969 133.027 272.969 133.996 273.454 133.996Z" fill="#0D90E0"/>
<path d="M281.939 152.169C283.394 150.715 282.909 146.839 280.97 145.627C279.515 144.658 278.06 146.354 278.06 147.808C278.06 149.019 277.818 148.535 276.848 149.262C275.636 149.989 274.667 151.442 276.363 152.896C278.06 154.108 280.485 153.381 281.939 152.169Z" fill="#0D90E0"/>
<path d="M272.727 169.373C273.212 170.1 274.667 170.585 275.151 169.858C275.636 169.373 276.606 167.677 275.879 166.95C275.151 166.223 273.939 166.95 273.212 167.192C272.485 167.677 272 168.404 272.727 169.373Z" fill="#0D90E0"/>
<path d="M215.758 143.204C215.515 142.477 215.03 141.992 214.303 141.75C214.061 141.508 213.818 141.266 213.333 141.266C212.606 141.266 212.121 141.75 211.636 141.75C211.152 142.719 211.394 143.689 211.636 143.931C211.636 144.173 211.879 144.415 212.121 144.9C212.848 145.869 214.061 145.869 214.788 145.142C215.273 144.658 216 143.689 215.758 143.204Z" fill="#0D90E0"/>
<path d="M195.636 136.904C196.121 135.208 194.667 132.3 192.97 131.816C191.273 131.331 189.818 132.058 189.091 133.027C189.818 135.208 190.545 137.146 191.515 139.085C193.697 139.327 195.151 138.358 195.636 136.904Z" fill="#0D90E0"/>
<path d="M222.303 117.035C221.818 117.035 221.091 117.277 221.091 117.762C221.091 118.004 220.848 118.973 221.818 119.216C222.788 119.458 223.03 118.489 223.03 118.246C223.03 118.004 222.545 117.277 222.303 117.035Z" fill="#0D90E0"/>
<path d="M221.818 131.816C222.303 132.543 223.515 132.542 224.242 132.058C224.97 131.331 224.97 130.604 223.515 129.15C221.576 128.908 221.091 131.089 221.818 131.816Z" fill="#0D90E0"/>
<path d="M212.121 147.808C211.879 148.777 212.364 149.746 213.333 150.231C214.303 150.473 215.273 149.989 215.273 149.019C215.273 148.293 215.03 147.323 214.545 147.081C214.06 146.839 212.606 147.081 212.121 147.808Z" fill="#0D90E0"/>
<path d="M227.151 163.073C228.121 163.316 229.333 162.589 230.06 161.619C230.303 161.377 230.303 161.377 230.545 161.135C231.515 159.439 230.545 157.985 231.03 157.742C231.273 157.5 233.212 156.531 232.727 155.077C231.273 152.169 228.848 154.108 228.121 153.381C227.394 152.654 227.151 150.473 226.182 149.262C225.454 148.292 224.485 147.808 223.515 147.566C223.03 146.354 221.818 145.385 220.606 145.142C219.394 144.9 218.182 145.869 217.697 147.566C217.454 149.262 218.424 151.442 219.636 151.685C219.636 152.412 220.121 153.139 220.606 153.866C222.545 156.046 224.485 153.623 225.212 155.562C225.697 157.016 224.485 157.258 224.727 158.712C224.485 158.954 224.485 158.954 224.485 159.196C224.242 160.892 225.697 162.831 227.151 163.073Z" fill="#0D90E0"/>
<path d="M209.697 153.623C208.242 153.623 208 155.077 207.515 156.288C208.485 157.258 209.454 158.227 210.909 157.258L211.151 157.015C211.879 157.985 213.091 158.954 214.303 159.196C215.515 159.196 216.242 158.469 216.485 157.258C216.727 155.319 215.757 153.865 214.303 153.865C213.091 153.865 212.121 154.108 211.636 154.835C211.151 153.865 210.424 153.623 209.697 153.623Z" fill="#0D90E0"/>
<path d="M301.818 147.081C301.576 146.596 300.364 146.839 300.121 147.081C299.879 147.324 299.636 148.051 299.879 148.536C300.121 149.02 300.848 148.778 301.333 148.536L301.576 148.293C301.576 148.293 301.576 148.293 301.576 148.051C301.818 147.808 302.061 147.324 301.818 147.081Z" fill="#0D90E0"/>
<path d="M209.697 87.474C209.939 87.474 210.424 86.7467 210.182 86.5043C209.939 86.0194 209.454 85.777 209.212 85.777C208.969 85.777 208 86.0194 208 86.9891C208.242 87.7164 209.454 87.474 209.697 87.474Z" fill="#0D90E0"/>
<path d="M207.272 81.9001C206.303 81.6578 205.818 82.1424 205.575 83.1116C205.333 84.0808 205.818 85.0501 206.788 85.2924C207.757 85.5347 208.969 84.8078 208.969 83.8385C208.969 82.627 208.242 82.1424 207.272 81.9001Z" fill="#0D90E0"/>
<path d="M197.818 75.6C197.333 75.8423 197.091 76.5693 197.333 77.0539C197.576 77.5385 197.818 78.2654 198.303 78.0231C198.788 77.7808 199.03 77.2962 199.03 76.8116C199.03 76.3269 198.303 75.3577 197.818 75.6Z" fill="#0D90E0"/>
<path d="M273.212 139.813C273.697 140.055 274.182 139.085 274.424 138.843C274.424 138.6 274.182 137.873 273.939 137.873C273.454 137.631 272.969 138.358 272.727 138.6C272.727 138.6 272.727 139.57 273.212 139.813Z" fill="#0D90E0"/>
<path d="M189.091 93.0463C190.303 92.804 191.03 90.8655 190.545 89.4117C190.545 89.1694 190.303 88.6848 190.06 88.4424C189.333 89.8963 188.848 91.5924 188.364 93.0463C188.606 93.0463 188.848 93.0463 189.091 93.0463Z" fill="#0D90E0"/>
<path d="M202.424 84.8078C202.909 84.5655 203.394 84.3232 203.151 83.5963C202.909 82.8694 202.424 82.3847 201.454 82.6271C200.727 82.8694 200.485 83.5963 200.727 84.3232C201.212 84.8078 202.182 85.0501 202.424 84.8078Z" fill="#0D90E0"/>
<path d="M197.818 86.504C197.818 87.7155 198.545 88.9271 199.515 88.9271C200.485 88.9271 202.182 87.9578 202.182 87.2309C202.182 86.0194 200.97 84.5655 200 84.5655C199.03 84.3232 198.061 85.2924 197.818 86.504Z" fill="#0D90E0"/>
<path d="M194.667 102.981C194.667 104.192 195.636 105.646 196.848 105.646C198.06 105.889 200.727 103.95 200.727 102.981C200.727 101.527 199.03 100.073 197.333 100.073C195.879 99.8308 194.909 100.8 194.667 102.981Z" fill="#0D90E0"/>
<path d="M232.485 139.085C232 137.389 230.303 136.177 228.848 136.177C227.151 136.177 225.697 137.146 224.727 138.6C224.485 139.085 224.485 139.812 224.485 140.296C224.969 141.993 226.424 142.962 227.879 142.962C227.394 144.173 228.606 145.869 230.303 146.596C230.788 146.839 231.515 146.839 232 146.596C232.485 146.839 232.969 146.839 233.697 146.839C235.151 146.596 236.121 145.869 236.363 144.416C236.848 143.204 236.121 141.993 235.151 141.266C234.424 140.781 233.454 140.539 232.727 140.054C232.727 139.812 232.727 139.327 232.485 139.085Z" fill="#0D90E0"/>
<path d="M205.091 109.766C204.606 110.493 204.364 112.431 205.091 113.643C205.818 114.854 207.03 115.339 208 115.339C209.212 115.339 209.939 114.369 210.182 113.643C210.424 112.916 210.909 111.462 210.182 110.493C209.454 109.523 209.212 108.312 208 108.069C207.03 107.827 206.788 108.069 206.303 108.554C206.061 108.796 205.576 109.039 205.091 109.766Z" fill="#0D90E0"/>
<path d="M239.515 158.227C238.303 157.985 237.576 158.712 237.091 159.681C236.606 161.135 236.848 162.831 237.818 163.315C237.818 163.315 237.818 163.315 238.061 163.315C237.818 163.8 237.576 164.042 237.576 164.527C237.333 165.496 238.303 166.708 239.273 166.95C240.727 167.192 242.424 166.223 242.667 165.254C242.909 164.285 242.424 163.073 241.697 162.346C241.939 162.104 242.182 161.862 242.424 161.619C242.909 160.892 241.454 158.469 239.515 158.227Z" fill="#0D90E0"/>
<path d="M234.182 136.904C233.939 136.662 233.939 136.42 233.939 136.177C233.939 136.177 233.454 136.177 233.454 136.42C233.454 136.662 233.454 137.147 233.697 137.147C233.697 137.389 233.939 136.904 234.182 136.904Z" fill="#0D90E0"/>
<path d="M211.636 126.485C211.636 126.727 211.636 126.727 211.636 126.485C211.636 126.969 211.636 127.212 211.394 127.696C211.151 129.635 213.818 130.362 214.545 129.635C215.03 129.15 215.273 128.181 215.03 127.212C216.242 126 215.515 125.031 215.03 124.789C214.545 124.546 214.545 123.335 215.03 123.577C215.515 123.819 216.242 123.335 216.727 122.123C217.212 120.669 216.97 119.7 215.515 119.215C214.061 118.489 212.121 119.215 211.394 120.912C210.667 122.608 211.394 123.092 210.909 124.062C210.182 125.031 210.667 125.758 211.636 126.485Z" fill="#0D90E0"/>
<path d="M226.424 96.9233C227.394 96.1963 226.424 93.5309 225.212 93.2886C224 93.0463 222.303 94.0156 222.303 94.9848C222.303 95.954 225.455 97.4079 226.424 96.9233Z" fill="#0D90E0"/>
<path d="M220.121 108.069C221.333 108.554 222.788 109.523 224.485 109.039C224.727 108.554 225.212 107.827 225.454 107.342C227.394 107.1 228.848 106.131 228.848 105.162C228.848 104.192 228.364 103.465 227.394 103.223C225.697 102.739 224.97 102.981 224 104.677C222.545 104.919 221.333 105.162 220.121 105.646C219.151 105.889 219.151 107.585 220.121 108.069Z" fill="#0D90E0"/>
<path d="M201.939 130.846C200.97 130.604 199.758 131.331 199.515 132.785C200 133.269 200.485 133.996 201.212 134.238C202.182 134.481 202.667 133.996 202.909 133.027C203.151 132.058 202.909 131.089 201.939 130.846Z" fill="#0D90E0"/>
<path d="M196.364 92.804C195.394 92.5617 194.667 91.8348 193.939 91.1079C193.697 90.8656 192.485 90.8656 192 91.1079C191.515 91.3502 191.03 92.3194 191.03 93.0463C191.03 93.531 191.758 94.0156 192.242 94.2579C193.212 94.5002 194.424 94.7425 195.394 94.9848C196.364 95.2271 196.848 94.5002 196.848 93.531C196.848 93.2886 196.848 92.804 196.364 92.804Z" fill="#0D90E0"/>
<path d="M200.727 120.912C200.242 120.669 199.757 120.912 199.757 121.396C199.515 121.881 199.757 122.366 200.242 122.609C200.727 122.851 201.212 122.609 201.454 122.124C201.454 121.396 201.212 121.154 200.727 120.912Z" fill="#0D90E0"/>
<path d="M214.06 161.862C214.303 160.65 213.091 159.196 211.879 158.712C210.182 158.227 208.727 158.954 208.242 160.65C208.242 160.65 208.242 160.65 208.242 160.892C209.454 161.862 210.666 162.831 212.121 163.8C213.091 163.315 214.06 162.589 214.06 161.862Z" fill="#0D90E0"/>
<path d="M201.454 135.692C201.212 135.692 200.97 135.935 200.97 135.935C200.97 135.45 200.97 134.966 200.485 134.723C199.758 134.239 198.303 134.239 197.818 134.966C197.333 135.692 198.061 137.146 198.788 137.873C198.303 138.842 198.303 139.812 198.545 141.023C198.788 142.477 198.061 143.689 198.788 144.9C199.273 145.627 200 146.354 200.97 146.839C200.727 147.081 200.242 147.566 200.242 148.05C199.758 149.019 199.515 150.231 199.273 151.442C200.485 153.139 201.939 154.592 203.394 156.046C203.879 156.046 204.121 155.804 204.364 155.319C205.333 153.139 206.061 150.958 205.576 148.535C205.576 148.05 205.333 147.808 205.091 147.566C205.333 147.566 205.576 147.566 206.061 147.323C208 146.596 209.212 145.627 209.697 144.173C210.182 142.477 208.485 141.266 208.242 139.327C207.758 135.208 204.364 134.723 201.454 135.692Z" fill="#0D90E0"/>
<path d="M226.909 170.342C227.394 168.889 226.666 166.95 225.454 166.465C224 165.739 221.575 166.95 221.091 168.404C221.091 168.646 221.091 168.889 221.091 169.131C222.788 169.858 224.242 170.585 225.939 171.312C226.424 171.069 226.666 170.827 226.909 170.342Z" fill="#0D90E0"/>
<path d="M219.879 96.9232C219.151 96.9232 218.909 97.4078 218.909 97.6501C218.909 98.1348 218.909 98.8617 219.636 99.104C220.363 99.3463 220.606 98.1348 220.606 97.8924C220.606 97.6501 220.363 97.1655 219.879 96.9232Z" fill="#0D90E0"/>
<path d="M217.454 131.331C217.212 131.815 216.97 133.027 217.939 133.269C218.909 133.512 219.394 132.542 219.636 132.058C219.879 131.573 219.879 130.846 219.151 130.362C218.182 130.362 217.697 131.089 217.454 131.331Z" fill="#0D90E0"/>
<path d="M190.545 87.4731C191.758 87.7154 193.212 86.2616 193.454 84.3231C193.454 83.5962 193.212 83.1116 192.727 82.627C192 84.3231 191.273 85.777 190.545 87.4731Z" fill="#0D90E0"/>
<path d="M201.212 93.5309C200.969 94.9847 201.939 95.9539 203.879 96.1963C205.333 96.1963 206.303 95.7116 206.303 94.7424C206.545 93.5309 204.848 91.1078 203.879 90.8655C202.424 90.8655 201.454 91.5924 201.212 93.5309Z" fill="#0D90E0"/>
<path d="M203.151 72.9347C203.636 72.4501 203.394 71.2386 203.394 70.2693C203.394 70.027 203.394 69.3001 202.667 69.3001C202.424 69.3001 202.182 69.3001 202.182 69.5424C201.697 70.027 201.212 70.754 200.727 71.2386C200.727 71.4809 200.727 71.4809 200.727 71.7232C200.485 72.6924 202.182 73.6617 203.151 72.9347Z" fill="#0D90E0"/>
<path d="M228.606 122.608C228.121 122.608 227.151 122.608 227.151 123.093C227.151 123.577 227.879 124.062 228.121 124.062C228.606 124.062 229.091 124.062 229.333 123.335C229.333 122.85 228.848 122.608 228.606 122.608Z" fill="#0D90E0"/>
<path d="M291.879 150.716C291.879 151.927 293.091 153.139 294.303 152.412C294.788 152.169 294.788 150.716 295.03 149.746C295.03 149.504 295.273 149.019 294.303 148.777C293.818 148.535 292.121 149.504 291.879 150.716Z" fill="#0D90E0"/>
<path d="M192.242 110.977C190.303 110.492 188.121 111.704 187.879 113.158C187.879 114.127 188.121 114.854 188.606 115.339C187.151 115.339 186.424 115.823 186.182 117.762C185.939 119.458 186.667 120.912 187.879 120.912C189.091 121.154 191.515 119.216 191.515 118.246C191.515 117.519 191.273 116.792 191.03 116.308C191.757 116.308 192.242 115.823 192.727 115.096C193.454 114.369 195.151 112.916 194.424 111.462C193.697 110.008 192.97 111.219 192.242 110.977Z" fill="#0D90E0"/>
<path d="M248.485 124.546C248 125.758 248.727 127.696 249.697 127.939C250.424 128.181 252.121 126.969 252.363 126C252.848 124.789 252.121 123.819 250.909 123.577C249.697 123.092 248.727 123.335 248.485 124.546Z" fill="#0D90E0"/>
<path d="M188.121 107.827C188.121 109.039 189.818 110.977 191.03 110.977C192 110.977 193.697 109.281 193.697 108.312C193.697 107.342 192.727 106.131 191.757 106.131C189.576 105.646 188.121 106.373 188.121 107.827Z" fill="#0D90E0"/>
<path d="M306.667 129.392C305.455 130.604 305.212 134.239 306.182 135.45C306.667 135.935 307.152 136.177 307.879 136.419C308.848 133.996 309.818 131.573 310.545 128.908C309.091 128.423 307.636 128.665 306.667 129.392Z" fill="#0D90E0"/>
<path d="M253.576 158.712C253.091 159.923 253.333 161.619 254.061 162.588C253.576 163.073 254.303 165.012 254.788 165.012C255.758 165.254 256.727 165.981 257.455 165.254C257.939 165.012 257.939 164.527 257.697 164.285C259.152 164.042 260.606 163.073 261.091 161.862C261.818 159.923 260.606 157.742 257.939 156.773C256.242 156.046 254.303 157.015 253.576 158.712Z" fill="#0D90E0"/>
<path d="M251.636 171.312C251.394 172.281 252.121 173.25 253.091 173.492C254.303 173.735 255.515 173.008 255.758 172.038C256 170.827 255.515 170.342 254.303 170.1C253.091 169.615 251.879 170.1 251.636 171.312Z" fill="#0D90E0"/>
<path d="M239.03 132.542C238.545 132.542 238.303 132.542 237.818 132.785C237.576 132.3 237.091 131.815 236.848 131.331C236.606 131.331 236.364 131.331 236.121 131.331C234.909 131.815 234.909 132.3 234.667 133.027C234.424 133.996 234.667 134.481 234.909 134.723C235.394 134.723 236.364 134.965 237.091 134.723C237.091 134.723 237.091 134.723 237.091 134.965C237.576 135.692 238.788 135.692 239.515 135.208C240.485 134.965 240.485 133.027 239.03 132.542Z" fill="#0D90E0"/>
<path d="M264 147.565C262.061 147.081 260.364 147.808 259.879 149.504C259.394 151.2 260.121 152.896 261.333 153.139C263.03 153.623 265.454 152.412 265.939 150.715C266.424 149.746 265.212 148.05 264 147.565Z" fill="#0D90E0"/>
<path d="M294.788 153.623C294.303 154.108 294.303 155.077 294.303 155.562C294.545 155.804 295.03 156.046 295.273 156.046C296 155.319 296.485 154.593 297.212 153.866L296.97 153.623C296.242 152.896 295.273 152.654 294.788 153.623Z" fill="#0D90E0"/>
<path d="M265.212 156.289C264.727 156.531 265.212 157.5 265.454 157.985C265.454 158.227 266.182 158.469 266.424 158.227C266.666 157.985 266.909 157.258 266.666 157.016C266.666 156.531 265.454 156.046 265.212 156.289Z" fill="#0D90E0"/>
<path d="M269.091 160.408C267.636 159.681 265.212 161.135 264.485 163.316C264 165.012 264.727 166.466 266.424 166.95C268.606 167.677 270.303 166.95 271.03 164.769C271.515 163.316 270.546 161.135 269.091 160.408Z" fill="#0D90E0"/>
<path d="M257.939 137.146C256.969 136.904 255.515 137.873 254.788 139.569C255.03 139.812 255.272 140.781 255.757 141.023C256.969 141.75 258.666 141.023 259.151 140.054C259.636 139.085 258.909 137.389 257.939 137.146Z" fill="#0D90E0"/>
<path d="M240 168.162C238.303 168.404 238.06 169.615 237.576 169.131C237.091 168.646 236.363 167.435 235.151 167.919C233.939 168.162 233.697 171.796 233.939 172.281C234.182 172.523 234.666 173.25 234.666 173.735C235.879 173.977 236.848 174.219 238.06 174.462C238.06 174.462 238.303 174.462 238.545 174.462C239.03 174.462 239.515 174.704 240.242 174.704C241.212 174.462 242.182 173.977 242.909 172.523C243.394 170.585 241.697 167.919 240 168.162Z" fill="#0D90E0"/>
<path d="M247.757 162.346C246.788 162.104 245.333 162.589 245.091 163.8C244.848 164.769 245.333 165.739 246.545 166.223C247.757 166.708 248.727 166.223 248.969 165.254C249.212 163.8 248.727 162.589 247.757 162.346Z" fill="#0D90E0"/>
<path d="M240.485 144.416C239.273 144.173 238.788 144.9 238.788 145.627C238.788 146.354 238.545 148.05 239.515 148.292C240.485 148.535 241.697 147.081 241.939 146.596C241.939 145.627 241.454 144.658 240.485 144.416Z" fill="#0D90E0"/>
<path d="M253.818 144.173C253.091 144.173 251.636 144.173 251.394 145.142C251.151 146.112 252.606 147.081 253.091 147.323C254.06 147.808 254.545 146.838 254.788 146.112C255.273 145.142 254.545 144.173 253.818 144.173Z" fill="#0D90E0"/>
<path d="M259.151 174.219C257.939 173.008 256.242 172.765 255.272 173.492C254.788 173.977 254.545 174.704 254.545 175.189C256.242 174.946 257.939 174.946 259.636 174.462C259.394 174.704 259.394 174.462 259.151 174.219Z" fill="#0D90E0"/>
<path d="M248.97 141.508C248.485 141.508 247.758 141.992 247.515 142.235C247.273 143.689 247.758 144.658 248.727 144.658C249.212 144.658 250.182 144.173 250.424 143.689C250.909 142.962 249.939 141.508 248.97 141.508Z" fill="#0D90E0"/>
<path d="M244.121 152.654C243.636 153.623 245.091 155.804 246.303 156.046C247.273 156.289 248.727 155.562 248.97 154.835C249.697 152.896 249.212 150.958 247.757 150.473C246.545 149.989 244.606 151.2 244.121 152.654Z" fill="#0D90E0"/>
</g>
</svg>
