<svg width="400" height="315" viewBox="0 0 400 315" fill="none" xmlns="http://www.w3.org/2000/svg">
<g clip-path="url(#clip0_701_47881)">
<path d="M-3.15163 303.611C-4.12133 304.338 -5.09103 305.065 -4.36375 306.519C-3.8789 307.731 -3.63648 308.7 -3.15163 309.911C-3.15163 311.365 -2.42435 312.092 -1.21223 311.85C-0.000108705 311.85 0.72715 310.881 0.969574 309.427C0.969574 308.7 0.969603 307.731 1.45445 307.246C2.18172 306.034 2.18172 304.823 1.45445 303.611C0.484755 302.884 -2.18193 302.884 -3.15163 303.611Z" fill="#E6EBF2"/>
<path d="M250.424 196.269C251.394 196.754 253.091 196.027 253.818 194.815C254.788 193.119 254.303 191.908 252.606 190.938C251.151 190.211 249.697 190.211 248.97 191.423C248.242 193.119 248.97 195.785 250.424 196.269Z" fill="#E6EBF2"/>
<path d="M37.3331 307.246C37.0907 307.246 36.6059 307.489 36.8483 307.973C36.8483 308.458 37.3332 308.458 37.5756 308.458C37.818 308.458 38.0604 307.973 37.818 307.731C37.818 307.489 37.5756 307.246 37.3331 307.246Z" fill="#E6EBF2"/>
<path d="M61.5757 291.981C62.5454 292.466 63.2727 292.466 63.7576 291.981H61.5757Z" fill="#E6EBF2"/>
<path d="M56.9695 300.462C55.0301 299.492 53.0907 299.977 51.6362 301.673C51.3938 301.915 51.1513 302.4 50.9089 302.885C50.1816 302.4 49.4543 301.915 48.9695 301.431C47.5149 300.704 46.7877 300.704 45.818 301.915C44.8483 303.127 44.8483 304.339 45.3331 305.55C46.0604 306.762 47.2725 307.004 48.4847 306.762C49.2119 306.762 49.9392 306.277 50.6665 306.035C50.6665 306.277 50.6665 306.519 50.6665 306.519C50.9089 307.731 52.121 308.458 53.3331 308.215C54.0604 308.215 54.5453 307.731 54.7877 307.004C55.515 307.004 56.2422 306.762 56.7271 306.277C57.9392 305.065 58.1816 303.369 57.9392 301.673C57.9392 301.431 57.4544 300.704 56.9695 300.462Z" fill="#E6EBF2"/>
<path d="M2.42413 291.981H-3.87892C-4.36376 292.95 -4.12133 294.404 -3.15164 295.373C-2.18194 296.1 -0.484954 296.342 0.727168 295.615C2.18171 294.646 1.93927 292.95 1.69685 292.465C1.93927 292.223 2.18171 292.223 2.42413 291.981Z" fill="#E6EBF2"/>
<path d="M36.6061 291.981H32.4849C31.7576 292.708 31.5152 293.677 32.0001 294.888C32.4849 296.1 33.4546 297.554 34.4243 298.523C35.394 299.735 37.8182 299.735 39.2728 299.008C40.0001 298.523 41.4546 296.827 40.0001 295.373C37.091 294.888 37.8183 293.192 36.6061 291.981Z" fill="#E6EBF2"/>
<path d="M68.1211 293.435C67.1514 293.677 66.4241 294.404 66.4241 295.615C66.6665 296.827 67.8786 297.796 68.8483 297.554C69.818 297.312 70.7877 296.1 70.5453 295.131C70.3029 293.919 69.0908 293.192 68.1211 293.435Z" fill="#E6EBF2"/>
<path d="M65.2119 304.581C64.4847 304.338 63.2726 305.308 63.2726 306.035C63.0302 307.004 63.7574 307.488 65.9392 307.731C67.1513 306.519 65.9392 304.581 65.2119 304.581Z" fill="#E6EBF2"/>
<path d="M11.8787 296.1C10.909 296.342 10.1818 297.796 10.4242 299.008C10.6666 299.977 11.8787 300.704 13.0908 300.462C14.3029 300.219 14.7878 299.25 14.5454 298.038C14.0605 296.585 13.0908 295.858 11.8787 296.1Z" fill="#E6EBF2"/>
<path d="M18.1818 302.4C17.2121 302.642 16.2424 303.854 16.2424 304.823C16.2424 305.792 17.4546 306.761 18.6667 306.519C19.8788 306.277 20.6061 305.308 20.6061 304.338C20.1212 302.885 19.1515 302.158 18.1818 302.4Z" fill="#E6EBF2"/>
<path d="M250.424 181.488C251.152 180.277 250.909 177.854 249.697 176.885C249.455 176.885 249.455 176.642 249.212 176.642C249.697 176.4 250.182 176.158 250.667 175.673C251.879 174.461 252.121 173.008 252.121 171.311C252.121 170.827 252.364 170.1 252.606 169.615C254.061 167.919 253.818 166.465 251.879 165.254C252.121 165.011 252.364 165.011 252.364 164.769C252.606 164.042 252.364 163.073 251.394 162.346C250.667 169.131 249.212 175.673 247.515 182.215C248.727 182.458 249.94 181.973 250.424 181.488Z" fill="#E6EBF2"/>
<path d="M11.1513 307.731C11.1513 306.762 10.1816 305.55 9.21194 306.035C8.48467 306.277 7.03011 307.246 7.27254 308.215C7.51496 309.185 8.96951 309.185 9.69678 309.427C10.1816 309.185 11.1513 308.7 11.1513 307.731Z" fill="#E6EBF2"/>
<path d="M24.4849 291.981C24.9697 292.708 26.1818 292.95 26.6667 292.465C26.6667 292.465 26.6667 292.465 26.9091 292.223C26.6667 292.95 26.6667 293.677 26.9091 294.161C27.6364 295.373 29.5758 296.1 30.7879 295.373C31.7576 294.888 32 293.192 31.2727 291.738H24.4849V291.981Z" fill="#E6EBF2"/>
<path d="M27.3938 306.762C25.6968 307.246 24.7271 308.458 25.212 310.154C25.4544 311.85 26.909 313.061 28.1211 312.577C29.8181 312.092 31.2726 310.154 31.0302 308.215C30.7877 307.488 28.8483 306.519 27.3938 306.762Z" fill="#E6EBF2"/>
<path d="M162.424 280.35C162.909 280.108 163.394 280.108 163.636 279.865C163.152 280.108 162.909 280.108 162.424 280.35Z" fill="#E6EBF2"/>
<path d="M239.03 206.688C240.242 207.415 242.424 207.173 243.151 206.204C244.121 204.992 243.636 202.327 242.182 201.6C241.939 201.358 241.455 201.358 240.97 201.6C240.242 203.296 239.515 204.992 238.788 206.446C239.03 206.688 239.03 206.688 239.03 206.688Z" fill="#E6EBF2"/>
<path d="M252.364 149.019C252.606 149.261 252.606 149.261 252.849 149.261C253.818 149.746 254.303 149.261 254.546 148.535C255.03 147.565 254.788 146.596 253.818 146.354C253.333 146.111 252.849 146.354 252.364 146.354C252.606 147.323 252.606 148.292 252.364 149.019Z" fill="#E6EBF2"/>
<path d="M239.515 215.411C239.515 214.2 236.121 212.988 235.636 213.231C234.424 215.411 233.212 217.592 232 219.773C232.242 220.5 232.727 220.984 233.455 221.469C235.394 222.923 238.303 221.711 238.303 220.015C238.303 218.319 237.333 217.834 237.818 217.35C238.303 216.865 239.758 216.381 239.515 215.411Z" fill="#E6EBF2"/>
<path d="M261.091 155.077C259.879 154.35 258.666 154.35 257.939 155.562C257.212 156.773 257.454 159.196 258.424 159.923C259.636 160.892 261.333 160.408 262.303 158.954C263.03 157.742 262.545 156.046 261.091 155.077Z" fill="#E6EBF2"/>
<path d="M259.152 142.477C260.121 142.961 260.606 142.477 260.849 141.75C261.333 140.781 261.091 139.811 260.121 139.569C259.394 139.327 258.667 139.569 258.182 139.569C257.697 140.781 258.182 141.992 259.152 142.477Z" fill="#E6EBF2"/>
<path d="M226.424 250.788C227.151 250.062 226.909 247.881 226.424 247.154C225.939 246.669 224 246.669 223.273 247.396C222.545 248.123 222.788 249.092 223.515 249.819C224.485 251.031 225.697 251.515 226.424 250.788Z" fill="#E6EBF2"/>
<path d="M216.727 242.308C217.697 242.792 218.424 242.308 218.909 241.096C219.394 239.885 219.394 238.915 218.909 238.188C217.939 239.4 216.969 240.369 216 241.581C216 242.065 216.242 242.308 216.727 242.308Z" fill="#E6EBF2"/>
<path d="M225.212 235.523C225.454 234.069 224.485 233.585 223.273 233.1C221.818 234.069 221.576 235.038 222.303 236.492C223.515 236.977 224.727 237.219 225.212 235.523Z" fill="#E6EBF2"/>
<path d="M205.576 252.97C205.333 253.455 206.061 253.939 206.546 253.939C207.03 253.939 207.758 253.697 207.758 252.97C207.758 252.485 207.515 252 207.03 252C206.303 252 205.576 252.485 205.576 252.97Z" fill="#E6EBF2"/>
<path d="M270.545 188.031C270.06 188.273 270.06 189.242 270.303 189.727C270.545 189.969 271.03 190.454 271.515 190.211C272 189.969 272 189.242 272 188.758C272 188.515 271.273 187.788 270.545 188.031Z" fill="#E6EBF2"/>
<path d="M271.515 181.488C273.212 181.731 273.697 179.55 273.455 178.823C273.212 178.096 269.576 178.096 269.091 178.823C268.606 179.55 269.818 181.246 271.515 181.488Z" fill="#E6EBF2"/>
<path d="M261.576 169.858C262.303 168.888 262.06 167.192 261.091 166.708C260.121 166.223 258.909 166.465 258.182 167.435C257.454 168.404 257.697 169.858 258.667 170.342C259.636 171.069 261.091 170.827 261.576 169.858Z" fill="#E6EBF2"/>
<path d="M279.03 172.523C280.727 173.492 282.424 173.25 283.394 171.796C284.606 169.858 283.879 166.708 282.424 165.981C280.727 165.254 278.788 165.738 277.818 167.192C276.606 169.131 277.091 171.554 279.03 172.523Z" fill="#E6EBF2"/>
<path d="M269.576 127.697C269.818 127.939 270.546 127.697 270.788 127.455C271.03 127.212 270.545 126.485 270.303 126.242C270.061 126 269.091 125.758 268.849 126.242C268.606 126.727 269.333 127.455 269.576 127.697Z" fill="#E6EBF2"/>
<path d="M257.939 175.673C258.424 176.885 260.121 177.369 261.333 176.158C261.818 175.673 262.061 174.462 261.818 173.735C261.576 173.25 260.606 172.523 259.879 172.523C258.424 172.523 257.697 174.462 257.939 175.673Z" fill="#E6EBF2"/>
<path d="M268.848 163.8C269.333 162.588 270.061 161.619 268.848 160.408C267.879 159.681 266.909 159.681 266.182 160.408C265.697 160.892 265.454 161.619 265.697 162.346C265.697 163.558 266.424 164.042 268.848 163.8Z" fill="#E6EBF2"/>
<path d="M257.939 126.727C259.636 127.696 263.273 126.242 264 123.819C264.485 122.123 262.303 121.396 261.091 121.638C259.879 121.881 260.364 121.638 259.394 120.911C258.424 120.185 256.727 119.458 255.758 121.638C254.545 123.819 256.242 125.758 257.939 126.727Z" fill="#E6EBF2"/>
<path d="M213.333 253.696C214.303 254.181 215.758 253.696 216.243 252.727C217.212 250.788 217.212 249.092 216 248.608C214.788 248.123 212.606 248.85 211.879 250.061C211.394 251.031 212.121 253.211 213.333 253.696Z" fill="#E6EBF2"/>
<path d="M211.152 282.289C211.636 282.289 212.121 282.532 212.364 281.804C212.606 281.32 212.364 280.835 212.121 280.835C211.636 280.592 210.909 280.35 210.424 281.077C210.182 281.562 211.152 282.289 211.152 282.289Z" fill="#E6EBF2"/>
<path d="M146.182 286.408C146.424 286.165 146.424 286.166 146.667 285.923C145.212 286.408 143.758 286.893 142.303 287.135C143.03 287.862 144.97 287.62 146.182 286.408Z" fill="#E6EBF2"/>
<path d="M80.2425 305.308C79.7576 303.611 78.5455 303.611 78.3031 302.642C78.0607 301.431 77.3334 301.431 76.1212 301.188C74.9091 301.188 72.9697 301.188 72.9697 302.885C72.9697 304.581 74.1818 304.823 74.6667 304.823C75.1515 304.823 76.1213 305.55 75.394 305.792C74.9091 306.035 74.6667 306.761 75.1515 307.973C75.6364 309.185 76.6061 309.911 78.0606 309.427C79.7576 308.942 80.7273 307.004 80.2425 305.308Z" fill="#E6EBF2"/>
<path d="M104.727 302.885C106.424 301.431 106.909 299.977 106.182 299.008C105.454 298.039 102.788 297.796 101.818 298.765C101.091 299.492 101.091 301.673 101.818 302.642C102.545 303.369 104 303.369 104.727 302.885Z" fill="#E6EBF2"/>
<path d="M111.515 293.193C112 292.708 112.242 292.223 112.485 291.738C111.273 291.738 109.818 291.738 108.606 291.738C108.606 292.223 108.848 292.95 109.333 293.193C109.818 294.163 110.788 293.92 111.515 293.193Z" fill="#E6EBF2"/>
<path d="M239.515 229.465C240.485 230.192 241.939 229.95 242.424 228.981C242.909 228.011 242.667 226.558 241.697 226.073C240.727 225.588 239.758 225.831 239.03 226.8C238.546 227.769 238.546 228.981 239.515 229.465Z" fill="#E6EBF2"/>
<path d="M231.03 234.311C232 234.796 232.727 234.311 233.212 233.342C233.939 232.373 233.455 230.919 232.485 230.435C231.515 229.95 230.303 230.435 230.061 231.404C229.818 232.615 230.061 233.827 231.03 234.311Z" fill="#E6EBF2"/>
<path d="M229.576 224.135C229.818 223.65 230.06 223.165 230.06 222.681C229.333 223.65 228.606 224.861 228.121 225.831C228.606 225.588 229.091 225.104 229.576 224.135Z" fill="#E6EBF2"/>
<path d="M87.7574 298.039C88.2423 297.797 88.4847 297.312 88.2422 296.827C87.9998 296.342 87.515 296.1 87.0301 296.342C86.5453 296.585 86.3029 297.07 86.5453 297.554C86.7877 298.039 87.2726 298.282 87.7574 298.039Z" fill="#E6EBF2"/>
<path d="M90.1818 291.981H87.0303C87.5151 292.223 88 292.223 88.4848 292.466C88.9697 292.466 89.6969 292.223 90.1818 291.981Z" fill="#E6EBF2"/>
<path d="M135.273 290.285C136 291.254 137.212 291.496 138.182 290.769C139.151 290.042 139.151 288.831 138.667 287.862C137.454 288.104 136.242 288.346 135.03 288.588C135.03 289.315 135.03 289.8 135.273 290.285Z" fill="#E6EBF2"/>
<path d="M167.515 294.646L167.758 294.162C167.515 293.919 167.273 293.677 167.03 293.919C166.788 294.162 167.03 294.404 166.788 294.646C167.03 294.646 167.273 294.646 167.515 294.646Z" fill="#E6EBF2"/>
<path d="M56.7271 293.677C57.212 293.435 57.4544 292.708 57.6968 291.981H51.6362C51.6362 292.223 51.8786 292.708 51.8786 292.95C52.6059 294.404 55.0302 294.646 56.7271 293.677Z" fill="#E6EBF2"/>
<path d="M184.485 278.169C184.242 278.654 184 279.138 184.485 279.623C184.97 280.108 185.454 279.623 185.697 279.381C185.939 279.138 186.424 278.169 185.939 277.685C185.455 277.442 184.485 277.927 184.485 278.169Z" fill="#E6EBF2"/>
<path d="M83.1513 291.981H81.4543C81.9392 292.223 82.1816 292.466 82.6665 292.466C82.9089 292.466 82.9089 292.223 83.1513 291.981Z" fill="#E6EBF2"/>
<path d="M268.606 144.173C268.849 143.688 268.364 142.719 267.879 142.477C267.637 142.235 266.667 142.235 266.424 142.719C266.182 143.204 266.424 143.931 266.667 144.173C267.152 144.415 268.364 144.658 268.606 144.173Z" fill="#E6EBF2"/>
<path d="M238.545 236.492C237.576 237.946 238.06 241.096 239.757 242.065C241.454 243.277 243.879 242.55 245.333 240.127C246.303 238.431 246.06 236.492 244.363 235.281C242.909 234.069 239.757 234.554 238.545 236.492Z" fill="#E6EBF2"/>
<path d="M247.273 219.288C246.061 218.319 244.121 218.319 243.394 219.288C241.94 220.985 243.394 222.923 244.121 223.892C244.849 224.861 247.273 223.65 248 221.954C248.485 220.742 248.243 220.015 247.273 219.288Z" fill="#E6EBF2"/>
<path d="M252.121 243.519C250.667 242.792 248.727 243.035 248.242 244.246C247.515 245.942 248 248.365 249.697 249.335C250.667 249.819 252.606 249.335 253.333 248.123C254.061 246.185 253.818 244.488 252.121 243.519Z" fill="#E6EBF2"/>
<path d="M252.606 227.527C251.636 227.042 249.455 227.769 248.727 228.738C248.242 229.708 248.485 231.161 249.455 231.646C251.152 232.858 253.091 232.615 253.818 231.404C254.546 230.677 253.818 228.254 252.606 227.527Z" fill="#E6EBF2"/>
<path d="M262.545 200.631C263.273 200.873 264.242 200.873 264.727 200.389C265.212 199.904 265.455 197.965 264.485 197.481C263.515 196.996 262.545 197.239 261.818 198.208C261.333 199.177 261.576 200.389 262.545 200.631Z" fill="#E6EBF2"/>
<path d="M260.606 223.892C259.879 223.65 258.182 223.165 257.939 224.135C257.697 225.104 258.667 226.315 259.152 226.8C259.879 227.285 260.849 226.8 261.333 226.073C262.061 224.861 261.333 224.135 260.606 223.892Z" fill="#E6EBF2"/>
<path d="M259.879 210.565C261.818 209.596 263.03 207.658 261.818 205.719C260.364 203.538 258.424 203.296 256.485 204.265C253.818 205.719 255.758 208.142 253.818 208.385C251.879 208.627 252.364 206.688 249.697 207.415C247.03 207.9 245.818 210.808 247.273 212.261C248.727 213.715 250.424 212.988 250.667 213.473C250.909 213.958 251.394 215.896 252.848 215.654C256 214.927 254.545 212.261 255.515 211.535C256.242 211.05 258.424 211.292 259.879 210.565Z" fill="#E6EBF2"/>
<path d="M237.576 244.973C236.121 244.004 234.424 244.488 233.455 245.942C232.242 247.881 232.727 249.577 234.667 250.789C236.121 251.758 238.303 251.515 239.273 250.062C240.243 248.85 239.515 246.185 237.576 244.973Z" fill="#E6EBF2"/>
<path d="M231.273 266.296C230.303 265.811 228.848 266.054 228.364 266.781C227.879 267.75 228.121 269.688 228.848 269.931C229.818 270.415 231.757 269.931 232.242 268.961C232.727 268.235 232.242 266.781 231.273 266.296Z" fill="#E6EBF2"/>
<path d="M217.455 256.604C216.485 256.119 214.545 256.604 214.061 257.573C213.333 258.785 214.061 261.935 215.03 262.419C216.242 263.146 218.182 262.177 219.151 260.481C219.879 259.027 219.394 257.573 217.455 256.604Z" fill="#E6EBF2"/>
<path d="M207.03 263.388C206.545 262.662 204.848 261.692 203.636 261.935C202.182 262.177 201.454 262.904 200.97 264.115C200.485 265.327 200.97 266.296 201.454 266.781C201.939 267.265 203.151 268.235 204.364 267.992C205.576 267.75 206.788 267.992 207.273 267.023C207.757 266.296 207.757 265.812 207.515 265.327C207.515 264.6 207.515 264.115 207.03 263.388Z" fill="#E6EBF2"/>
<path d="M213.333 285.196C212.364 284.712 209.697 286.892 209.939 288.104C210.182 289.315 213.091 289.558 213.818 288.346C214.545 287.377 214.545 285.438 213.333 285.196Z" fill="#E6EBF2"/>
<path d="M210.424 250.304C210.666 250.061 210.424 248.85 209.939 248.365H209.697C209.212 248.85 208.727 249.335 208.242 249.819C208.242 250.304 208.727 250.788 208.97 250.788C209.212 251.031 210.182 250.546 210.424 250.304Z" fill="#E6EBF2"/>
<path d="M233.212 259.269C232.485 260.238 233.212 262.177 234.909 263.146C235.879 263.631 236.606 263.388 237.333 262.662C238.303 261.45 238.06 259.512 237.091 259.027C235.879 258.058 233.939 258.3 233.212 259.269Z" fill="#E6EBF2"/>
<path d="M229.333 259.027C229.333 258.542 228.606 257.815 228.121 257.573C227.636 257.331 226.909 257.815 226.424 258.3C225.697 259.027 225.212 259.996 224.485 260.965C224 261.692 224.242 262.419 225.212 262.904C225.454 262.904 225.939 262.904 226.182 262.661C226.909 261.692 227.636 261.45 228.606 261.208C228.848 260.723 229.333 259.754 229.333 259.027Z" fill="#E6EBF2"/>
<path d="M259.394 233.827C259.394 234.312 259.394 235.281 259.878 235.765C260.606 236.492 262.06 235.765 262.303 234.796C262.545 234.311 262.06 233.585 262.06 233.342C260.848 232.615 259.636 233.1 259.394 233.827Z" fill="#E6EBF2"/>
<path d="M228.848 274.777C228.363 275.504 228.363 276.958 229.333 277.442C230.303 277.927 231.03 277.684 231.757 276.715C232.242 275.988 232 275.261 231.273 274.535C230.303 274.05 229.333 274.05 228.848 274.777Z" fill="#E6EBF2"/>
<path d="M223.273 266.296C221.818 265.569 220.606 266.054 219.879 267.75C219.151 268.962 219.394 270.173 220.121 270.658C221.091 271.385 224 270.9 224.485 269.931C225.454 268.719 224.97 267.265 223.273 266.296Z" fill="#E6EBF2"/>
<path d="M284.121 201.358C282.424 200.631 280.97 203.054 281.454 204.023C281.939 204.75 284.121 205.477 284.848 204.508C285.818 203.054 285.818 202.085 284.121 201.358Z" fill="#E6EBF2"/>
<path d="M276.606 187.546C276.606 188.515 279.03 189.969 280 189.242C280.727 188.758 280.97 187.304 280.242 186.577C279.273 185.608 276.606 186.577 276.606 187.546Z" fill="#E6EBF2"/>
<path d="M279.758 208.142C280.242 207.415 279.758 206.688 279.515 206.446C279.273 206.204 278.061 205.719 277.333 206.446C276.848 207.173 277.818 208.142 278.061 208.385C278.303 208.385 279.273 208.627 279.758 208.142Z" fill="#E6EBF2"/>
<path d="M286.788 143.688C285.333 142.962 281.697 143.688 280.727 145.142C279.757 146.596 280.485 149.262 282.424 150.473C284.121 151.442 286.788 150.715 287.758 149.262C288.97 147.081 288.485 144.658 286.788 143.688Z" fill="#E6EBF2"/>
<path d="M291.636 185.608C291.151 185.365 290.182 185.608 289.939 185.85C289.212 186.577 289.455 187.546 290.182 188.031C290.667 188.273 292.121 188.758 292.848 187.546C293.333 186.577 292.121 185.608 291.636 185.608Z" fill="#E6EBF2"/>
<path d="M290.182 213.231C289.697 213.958 290.667 214.443 290.909 214.686C291.151 214.928 291.879 214.443 292.121 214.201C292.364 213.716 292.121 212.988 291.879 212.988C291.394 212.746 290.424 212.504 290.182 213.231Z" fill="#E6EBF2"/>
<path d="M292.363 162.346C291.636 162.346 291.151 163.558 291.151 164.042C291.151 164.527 291.879 165.011 292.363 165.011C292.848 165.011 293.333 164.285 293.576 163.8C293.576 163.558 293.091 162.346 292.363 162.346Z" fill="#E6EBF2"/>
<path d="M279.03 238.188C277.818 237.462 275.879 237.704 275.394 238.431C274.909 239.158 275.879 240.854 276.606 241.581C277.576 242.308 278.788 241.823 279.273 240.854C280.242 239.642 280 238.673 279.03 238.188Z" fill="#E6EBF2"/>
<path d="M258.182 236.492C256.97 236.008 256 237.219 255.515 237.704C255.03 238.431 255.515 239.158 256.242 239.642C257.212 240.127 258.424 239.885 258.424 238.915C258.909 238.188 259.394 236.735 258.182 236.492Z" fill="#E6EBF2"/>
<path d="M261.576 215.896C260.606 217.108 260.849 218.804 262.061 219.531C263.515 220.5 265.94 220.258 266.424 218.804C267.152 217.35 266.667 215.169 265.455 214.442C264.485 213.715 262.303 214.442 261.576 215.896Z" fill="#E6EBF2"/>
<path d="M263.03 240.854C262.546 241.096 261.818 241.096 261.333 241.581C260.364 242.55 260.606 244.488 261.576 244.973C262.546 245.7 264.243 245.215 264.727 244.488C265.212 243.761 264.485 242.065 263.03 240.854Z" fill="#E6EBF2"/>
<path d="M265.455 260.238C265.212 259.996 264.242 259.996 264 260.481C263.758 260.965 264 261.692 264.242 261.935C264.485 262.177 265.697 262.419 265.939 261.935C266.424 261.45 265.939 260.481 265.455 260.238Z" fill="#E6EBF2"/>
<path d="M258.667 258.785C258.424 259.27 259.152 259.997 259.394 260.239C259.636 260.482 260.364 260.239 260.606 259.997C260.848 259.755 260.364 259.027 260.121 258.785C259.879 258.542 258.909 258.3 258.667 258.785Z" fill="#E6EBF2"/>
<path d="M266.909 185.85C265.697 184.881 264.485 184.396 263.03 183.912C261.576 183.427 259.394 184.638 258.667 185.85C258.182 186.819 258.182 187.546 258.909 188.031C260.848 189.485 262.788 190.696 265.212 190.696C265.697 190.696 266.182 190.454 266.182 190.454C268.606 189.485 268.606 187.304 266.909 185.85Z" fill="#E6EBF2"/>
<path d="M270.06 220.742C269.818 220.985 270.06 221.227 270.303 221.47C270.545 221.47 271.03 221.47 271.03 221.227V220.742C270.788 220.5 270.303 220.5 270.06 220.742Z" fill="#E6EBF2"/>
<path d="M270.545 200.146C270.788 199.662 270.545 198.692 270.545 198.45C269.333 197.723 268.121 197.723 267.879 198.45C267.636 199.177 267.879 200.146 268.364 200.873C268.606 201.6 270.303 201.115 270.545 200.146Z" fill="#E6EBF2"/>
<path d="M273.454 222.923C272.485 222.439 272 222.681 271.758 222.681C271.758 223.65 270.788 225.104 271.515 225.831C272.485 226.558 273.939 225.588 274.667 225.346C274.667 225.104 274.667 224.862 274.909 224.619C274.909 223.408 274.424 223.408 273.454 222.923Z" fill="#E6EBF2"/>
<path d="M243.636 274.534C242.424 274.05 240.97 275.261 241.212 276.473C241.454 276.958 242.667 277.442 243.636 277.685C243.879 277.685 244.364 277.927 244.848 277.2C245.333 276.473 244.848 275.019 243.636 274.534Z" fill="#E6EBF2"/>
<path d="M113.212 300.704C112.242 300.946 112 301.915 112.485 302.885C113.212 304.338 114.182 305.065 114.909 304.823C115.636 304.581 116.606 302.4 116.121 301.431C115.879 300.946 114.182 300.219 113.212 300.704Z" fill="#E6EBF2"/>
<path d="M123.394 303.127C121.697 304.339 121.212 306.277 122.667 308.215C123.636 309.669 125.818 310.154 127.273 309.185C128.727 308.215 128.97 305.55 127.515 303.612C126.545 302.4 124.848 302.158 123.394 303.127Z" fill="#E6EBF2"/>
<path d="M137.697 297.796C136.485 295.858 133.576 295.373 131.879 296.342C130.424 297.312 129.697 300.462 130.909 302.158C131.879 303.854 134.545 304.096 136.727 302.642C138.182 301.431 138.667 299.25 137.697 297.796Z" fill="#E6EBF2"/>
<path d="M141.576 308.215C140.606 307.004 138.666 306.519 137.697 307.246C136.242 308.458 136 311.123 136.97 312.577C137.697 313.546 139.636 313.546 140.606 312.819C142.303 311.365 142.788 309.669 141.576 308.215Z" fill="#E6EBF2"/>
<path d="M125.333 290.527C125.333 291.011 125.576 291.254 125.818 291.496C126.545 292.223 127.515 292.223 128.242 291.496C128.727 291.011 129.212 290.527 129.212 289.8C127.758 290.285 126.545 290.285 125.333 290.527Z" fill="#E6EBF2"/>
<path d="M96.4848 298.765C95.9999 298.523 95.2726 298.765 94.7878 299.008C94.5453 299.493 95.0302 300.22 95.2726 300.462C95.515 300.705 96.4847 300.705 96.7272 299.977C96.9696 299.493 96.7272 299.008 96.4848 298.765Z" fill="#E6EBF2"/>
<path d="M89.6969 306.277C88.2423 306.035 87.2726 306.277 86.3029 307.246C85.5757 308.215 85.5757 309.185 85.8181 309.911C86.0605 310.638 86.7878 311.85 87.9999 312.092C89.212 312.334 90.4241 313.061 91.1514 312.334C91.8787 311.85 92.1211 311.365 92.1211 310.881C92.1211 310.396 92.606 309.669 92.3635 308.942C92.1211 308.215 90.909 306.761 89.6969 306.277Z" fill="#E6EBF2"/>
<path d="M101.091 291.981H95.7573C95.7573 292.708 95.7573 293.435 95.9998 293.677C96.9695 294.888 98.424 295.131 99.8785 293.919C100.848 293.435 101.091 292.708 101.091 291.981Z" fill="#E6EBF2"/>
<path d="M104.727 311.123C105.939 310.154 105.939 308.7 104.727 307.004C104 306.035 102.061 305.792 101.333 306.519C100.364 307.246 99.6363 310.396 100.364 311.123C101.091 312.335 103.273 312.092 104.727 311.123Z" fill="#E6EBF2"/>
<path d="M147.636 297.796C148.606 297.069 148.848 294.646 148.121 293.435C147.394 292.465 145.212 292.465 144 293.192C143.273 293.919 142.788 295.373 143.515 296.1C144.727 298.038 146.667 298.765 147.636 297.796Z" fill="#E6EBF2"/>
<path d="M179.151 272.111C179.636 272.596 180.363 272.838 182.06 272.111C182.303 271.385 182.303 270.9 182.06 270.415C180.848 270.9 179.879 271.385 179.151 272.111Z" fill="#E6EBF2"/>
<path d="M170.424 282.288C169.697 282.531 168.969 283.742 169.212 284.469C169.454 285.438 171.151 286.165 172.363 284.954C173.091 283.258 171.394 282.046 170.424 282.288Z" fill="#E6EBF2"/>
<path d="M173.091 275.262C173.576 275.747 174.788 275.747 175.273 275.02C175.515 274.777 175.758 274.292 175.758 273.808C174.788 274.292 174.061 274.777 173.091 275.262Z" fill="#E6EBF2"/>
<path d="M187.394 281.319C185.939 279.865 183.757 281.804 184 282.773C184.242 283.742 185.939 284.954 186.909 284.469C188.121 283.5 188.606 282.531 187.394 281.319Z" fill="#E6EBF2"/>
<path d="M178.909 283.258C178.182 283.742 178.667 284.954 178.909 285.196C179.151 285.438 179.879 286.165 180.606 285.681C181.333 285.196 181.091 284.469 180.848 283.985C180.606 283.742 179.879 282.773 178.909 283.258Z" fill="#E6EBF2"/>
<path d="M200.485 271.869C201.455 271.142 200.485 269.931 200.242 269.446C200 268.961 199.03 268.961 198.545 268.961C197.576 269.204 197.576 270.415 198.061 270.9C198.303 271.627 199.515 272.596 200.485 271.869Z" fill="#E6EBF2"/>
<path d="M192.485 263.388C190.546 264.842 188.364 266.296 186.424 267.75C186.909 268.477 187.636 268.962 188.121 268.719C189.091 268.477 189.818 267.265 189.333 266.296C189.818 266.054 190.788 266.296 190.303 266.781C189.818 267.265 190.061 267.992 191.03 268.962C192 269.931 192.97 270.173 194.182 269.204C195.394 268.235 195.636 266.054 194.424 264.842C193.697 263.631 192.97 263.631 192.485 263.388Z" fill="#E6EBF2"/>
<path d="M188.364 294.646C187.636 295.131 188.363 295.858 188.606 296.342C188.848 296.585 189.576 296.585 189.818 296.342C190.06 296.1 190.303 295.373 190.06 294.888C189.818 294.646 188.848 294.161 188.364 294.646Z" fill="#E6EBF2"/>
<path d="M167.757 296.342C167.273 297.311 165.818 298.281 166.303 299.25C166.788 300.219 168.485 299.734 169.454 299.977C169.697 299.734 169.697 299.734 169.939 299.492C170.182 298.281 169.939 298.038 169.212 297.311C168.727 296.585 168 296.342 167.757 296.342Z" fill="#E6EBF2"/>
<path d="M150.06 303.854C149.091 303.127 147.879 303.612 147.151 304.096C146.182 304.581 146.667 305.55 147.151 306.277C147.879 307.004 149.091 307.246 149.576 306.519C149.818 305.792 150.788 304.581 150.06 303.854Z" fill="#E6EBF2"/>
<path d="M150.788 309.912C149.576 310.638 149.091 312.335 149.576 313.062C150.061 314.031 152 314.515 152.727 313.788C153.454 313.304 153.697 311.365 152.485 309.912C152.242 309.912 151.273 309.427 150.788 309.912Z" fill="#E6EBF2"/>
<path d="M152 301.915C151.757 302.4 151.515 303.369 151.757 303.854C152 304.581 153.697 304.823 154.424 304.096C154.666 303.612 154.666 302.885 154.666 302.642C153.939 301.431 152.485 301.189 152 301.915Z" fill="#E6EBF2"/>
<path d="M154.424 292.223C153.697 292.95 154.182 294.646 154.424 295.131C154.909 295.858 156.121 295.858 156.848 295.131C157.818 294.404 157.333 293.435 156.848 292.95C156.364 292.708 155.151 291.496 154.424 292.223Z" fill="#E6EBF2"/>
<path d="M204.606 278.896C204.606 277.685 203.394 276.715 202.424 277.685C201.454 278.654 200 279.381 199.757 281.319C200.242 281.804 200.485 282.531 200.969 283.015C200.242 284.711 200.485 286.65 201.697 287.135C202.424 287.619 203.394 287.377 204.121 286.65C205.333 285.438 205.333 284.711 204.121 282.773C204.121 281.561 204.606 280.35 204.606 278.896Z" fill="#E6EBF2"/>
<path d="M165.091 286.165C164.364 285.196 162.182 285.196 160.727 285.923C159.515 286.892 159.03 288.346 159.757 289.558C160.727 291.012 162.909 291.496 164.121 290.769C165.576 289.8 166.061 287.619 165.091 286.165Z" fill="#E6EBF2"/>
<path d="M-140.364 -99.3462H286.545C348.848 -99.3462 399.272 -48.9462 399.272 13.3268C399.272 75.5999 348.848 126 286.545 126H-140.364C-202.667 126 -253.091 75.5999 -253.091 13.3268C-253.333 -48.9462 -202.667 -99.3462 -140.364 -99.3462Z" fill="#E6EBF2"/>
<path d="M-345.454 32.7115H105.697C168 32.7115 218.424 83.1115 218.424 145.385C218.424 207.658 168 258.058 105.697 258.058H-345.454C-407.757 258.3 -458.182 207.658 -458.182 145.385C-458.182 83.1115 -407.757 32.7115 -345.454 32.7115Z" fill="#7DE2D1"/>
<path d="M63.7576 219.046C64.2424 218.804 64 217.835 64 217.35C64 217.108 63.2727 216.865 62.7879 216.865C62.303 216.865 62.3031 217.835 62.5455 218.319C62.5455 218.562 63.2727 219.288 63.7576 219.046Z" fill="#42D4C6"/>
<path d="M78.5454 243.277C80.4848 242.308 81.2121 240.612 80.2424 238.431C79.5151 236.735 77.3333 236.008 75.8788 236.735C74.4242 237.461 73.6969 240.127 74.6666 242.065C75.3939 243.519 76.8484 244.004 78.5454 243.277Z" fill="#42D4C6"/>
<path d="M71.9999 253.696C70.7878 254.181 70.5454 255.635 71.0303 256.362C71.5151 257.331 72.7272 257.573 73.6969 256.846C74.6666 256.119 74.909 254.908 74.4242 253.938C73.6969 253.454 72.9696 253.212 71.9999 253.696Z" fill="#42D4C6"/>
<path d="M111.758 239.158C111.03 239.642 110.788 239.885 110.546 240.611C110.303 241.096 109.818 241.581 110.061 242.55C110.303 243.519 111.03 245.215 112.243 245.7C113.455 246.184 114.667 245.942 115.636 245.458C116.606 244.731 116.606 243.761 116.606 243.035C117.091 244.246 118.546 244.973 119.758 244.731C121.455 244.488 121.697 243.519 122.909 243.519C124.121 243.519 124.364 242.792 124.606 241.581C124.849 240.369 125.333 238.673 123.636 238.188C121.94 237.946 121.455 238.915 121.455 239.4C121.455 239.885 120.485 240.611 120.485 239.885C120.243 239.4 119.758 238.915 118.303 239.158C116.849 239.4 116.121 240.127 116.364 241.581C116.121 240.854 115.636 240.127 114.909 239.885C113.697 239.642 112.727 238.673 111.758 239.158Z" fill="#42D4C6"/>
<path d="M83.1515 256.846C82.1818 256.119 81.2121 255.15 79.9999 256.361C79.2727 257.088 79.2727 257.573 79.5151 258.3H82.6666C82.9091 257.815 83.1515 257.331 83.1515 256.846Z" fill="#42D4C6"/>
<path d="M61.3334 235.523C62.0607 236.977 63.7576 237.704 64.9698 236.977C66.4243 236.008 67.394 233.585 66.4243 231.888C65.9394 230.919 64 230.435 62.7879 231.162C61.0909 232.131 60.6061 233.827 61.3334 235.523Z" fill="#42D4C6"/>
<path d="M61.0907 255.877C61.5756 256.846 62.7877 257.088 63.7574 256.604C64.7271 256.119 65.212 255.15 64.7271 254.181C64.2423 253.212 63.0301 252.727 62.0604 253.212C60.8483 253.454 60.3635 254.908 61.0907 255.877Z" fill="#42D4C6"/>
<path d="M65.2119 241.823C63.5149 242.55 62.7877 244.488 63.515 246.427C64.2422 248.365 67.1513 249.577 69.0907 248.608C70.7877 247.881 71.7574 244.973 71.0301 243.035C70.3028 241.339 67.8786 240.612 65.2119 241.823Z" fill="#42D4C6"/>
<path d="M51.1516 228.012C50.1819 228.496 49.9395 230.192 50.6668 231.888C51.1516 231.888 51.8789 232.373 52.3638 232.131C53.8183 231.646 54.5456 230.192 54.0607 228.981C53.8183 228.254 52.1213 227.527 51.1516 228.012Z" fill="#42D4C6"/>
<path d="M48.0002 237.461C47.5154 237.946 47.5154 238.673 47.5154 238.915C48.2427 240.127 49.4548 240.612 49.9396 239.885C50.4245 239.4 50.6669 238.673 50.4245 237.946C50.4245 236.977 48.7275 236.735 48.0002 237.461Z" fill="#42D4C6"/>
<path d="M60.1214 214.685C60.6062 214.442 60.6062 213.715 60.6062 213.473C60.6062 213.231 59.6365 212.261 59.1516 212.504C58.6668 212.746 58.6668 213.958 58.9092 214.2C58.9092 214.442 59.6365 214.927 60.1214 214.685Z" fill="#42D4C6"/>
<path d="M53.5757 244.488C52.3635 244.973 51.8787 247.396 52.3635 248.608C52.8484 249.577 55.2726 250.061 56.2423 249.577C57.212 249.092 57.6969 247.638 57.212 246.669C56.4848 244.973 54.7878 244.004 53.5757 244.488Z" fill="#42D4C6"/>
<path d="M48.2424 252.97C48.2424 253.454 48.4849 253.939 48.7273 254.182C48.9697 254.424 50.1818 254.182 50.1818 253.697C50.1818 253.454 49.4546 252.485 49.2122 252.485C48.9697 252.242 48.2424 252.727 48.2424 252.97Z" fill="#42D4C6"/>
<path d="M57.697 256.362C57.4545 255.15 54.7879 254.665 53.3333 255.877C52.6061 256.604 52.3636 257.331 52.606 258.058H57.697C57.697 257.573 57.697 256.846 57.697 256.362Z" fill="#42D4C6"/>
<path d="M123.151 227.285C123.151 227.527 122.909 227.527 123.151 227.285C122.182 227.285 121.697 227.769 121.212 229.465C120.97 229.708 120.727 229.95 120.485 230.192C119.757 231.162 120.485 232.615 121.697 232.373C123.151 232.131 124.848 232.131 125.818 230.919C125.818 230.192 125.818 229.465 125.818 228.981C127.273 227.769 128 226.073 127.515 225.104C127.03 224.377 126.303 224.135 125.333 224.377C123.394 224.619 123.151 225.346 123.151 227.285Z" fill="#42D4C6"/>
<path d="M113.939 248.85C113.212 248.85 111.758 249.335 111.273 250.546C110.788 251.758 109.818 252.727 110.303 253.454C110.545 254.181 111.03 254.423 111.515 254.665C111.758 254.665 111.758 254.908 112 254.908V255.15C112.242 255.635 112.485 255.877 113.212 255.635C113.697 255.635 113.697 255.392 113.939 255.15C114.909 254.908 116.121 254.423 116.848 253.212C117.576 252 117.333 250.788 116.606 249.819C115.879 248.85 114.909 248.608 113.939 248.85Z" fill="#42D4C6"/>
<path d="M157.333 211.05C158.061 212.504 159.515 212.989 161.212 212.262C163.152 211.292 163.879 209.112 162.909 207.173C162.182 205.719 160 204.992 158.303 205.719C157.091 206.446 156.364 208.869 157.333 211.05Z" fill="#42D4C6"/>
<path d="M132.121 252.969C131.636 253.696 131.151 254.423 130.909 255.15V255.392C132.606 254.908 134.303 254.665 135.757 254.181C134.788 253.212 133.818 252.727 132.121 252.969Z" fill="#42D4C6"/>
<path d="M151.515 222.196C151.03 221.227 149.818 220.985 148.606 221.469C146.909 222.196 146.182 223.892 146.667 225.104C147.152 226.073 147.879 226.8 148.849 227.042C148.364 227.769 148.606 228.496 149.091 229.223C149.818 230.435 151.273 229.95 152.485 229.708C152.727 228.496 153.212 227.042 151.758 226.315C151.515 226.315 151.515 226.315 151.273 226.315C151.758 225.104 152 223.165 151.515 222.196Z" fill="#42D4C6"/>
<path d="M161.697 193.362C160.97 192.635 160 192.392 159.273 193.119C158.788 193.604 158.303 194.331 158.303 194.815C158.545 196.512 159.758 196.754 161.455 196.754C161.939 195.542 162.909 194.573 161.697 193.362Z" fill="#42D4C6"/>
<path d="M178.909 168.404C178.424 168.404 177.939 168.646 177.697 169.373C177.697 170.1 178.182 170.827 178.909 170.827C179.636 170.827 180.121 170.1 180.121 169.615C179.879 168.646 179.152 168.161 178.909 168.404Z" fill="#42D4C6"/>
<path d="M115.151 223.65C114.667 223.893 114.667 224.62 114.909 224.62C115.151 224.862 115.636 225.589 116.364 225.347C117.091 225.105 116.606 224.135 116.606 223.892C116.121 223.65 115.636 223.165 115.151 223.65Z" fill="#42D4C6"/>
<path d="M119.272 214.685C119.515 213.958 119.03 212.746 118.303 212.504C117.333 212.261 115.636 212.988 116.121 214.685C116.848 216.138 119.03 215.412 119.272 214.685Z" fill="#42D4C6"/>
<path d="M124.121 221.469C125.091 222.923 126.545 223.65 128.242 223.65C128.727 223.65 129.455 223.408 129.939 222.923C131.394 221.227 131.394 219.288 129.939 217.592C129.697 217.35 129.455 216.865 128.97 216.623C129.697 216.138 130.182 215.654 130.909 214.927C131.879 213.715 132.121 212.988 131.152 211.777C130.182 210.565 128.97 210.323 127.758 210.565C126.303 210.808 125.818 212.019 125.818 213.231C125.818 214.2 126.061 214.927 126.061 215.896C125.818 216.138 125.333 216.381 125.091 216.865C123.879 218.077 123.394 220.015 124.121 221.469Z" fill="#42D4C6"/>
<path d="M116.121 220.5C116.848 221.469 120.242 220.985 120.727 219.773C121.212 218.562 118.788 216.866 117.576 217.35C116.364 217.835 115.394 219.531 116.121 220.5Z" fill="#42D4C6"/>
<path d="M53.3334 236.008C52.8486 236.492 51.6365 237.461 52.3638 238.431C53.091 239.4 54.5456 238.915 55.2729 238.673C56.2425 238.431 56.0001 237.462 55.5153 236.492C55.0304 235.765 53.8183 235.281 53.3334 236.008Z" fill="#42D4C6"/>
<path d="M128 251.515C128.242 249.819 127.273 249.577 126.545 249.335C126.061 249.335 125.333 248.608 125.818 248.365C126.303 248.123 126.788 247.638 126.303 246.185C125.818 244.731 125.091 244.246 123.636 244.246C121.939 244.488 120.97 246.185 121.212 247.881C121.455 249.577 122.424 249.819 122.667 250.788C122.667 252 123.394 252.242 124.606 252.485C124.848 252.485 125.091 252.485 125.091 252.485C125.091 252.727 125.091 252.969 125.091 253.211C125.333 253.696 125.576 253.938 126.061 253.938C126.545 253.696 126.788 253.454 126.788 252.969V252.727C127.515 252.485 128 252.242 128 251.515Z" fill="#42D4C6"/>
<path d="M113.94 229.708C114.424 229.465 114.424 228.496 114.424 228.254C114.182 228.012 113.94 227.285 113.212 227.527C112.485 227.769 112.728 228.254 112.728 228.496C112.97 228.981 113.455 229.95 113.94 229.708Z" fill="#42D4C6"/>
<path d="M19.394 249.819C19.1516 249.819 18.4243 250.062 18.4243 250.304C18.4243 250.788 18.6667 251.273 18.9092 251.515C18.6667 252 18.6667 252.485 18.6667 252.727C18.9091 253.212 19.394 254.181 20.3637 253.938C21.3334 253.696 20.8486 252.242 20.8486 252C20.8486 251.758 20.6061 251.515 20.3637 251.273C20.3637 251.273 20.3637 251.273 20.6061 251.031C20.6061 250.304 19.6364 250.062 19.394 249.819Z" fill="#42D4C6"/>
<path d="M30.3031 252.969C29.3334 252.727 28.3637 252.969 28.1213 253.938C27.8789 254.908 28.6061 256.119 29.3334 256.362C30.0607 256.604 31.0303 255.635 31.2728 254.423C31.5152 253.696 31.2728 252.969 30.3031 252.969Z" fill="#42D4C6"/>
<path d="M33.2122 244.973C33.4546 245.216 33.697 245.458 33.9394 245.458C34.1819 245.458 34.1819 244.973 34.1819 244.731C33.9395 244.488 33.697 244.488 33.4546 244.488C33.4546 244.488 33.2122 244.973 33.2122 244.973Z" fill="#42D4C6"/>
<path d="M32.485 238.915C32.2425 239.158 32.2425 239.158 32.0001 239.4C31.5153 240.612 31.7577 240.854 32.2426 241.823C32.7274 242.55 33.4547 242.792 33.6971 243.035C34.1819 242.308 35.8789 241.338 35.6365 240.369C35.1516 239.158 33.4547 239.4 32.485 238.915Z" fill="#42D4C6"/>
<path d="M36.6062 223.408C35.6365 223.892 35.1516 224.862 35.6365 225.831C36.3638 227.042 38.0607 227.769 38.788 227.527C39.5153 227.042 39.7577 225.104 39.2728 224.135C38.788 223.165 37.5759 222.681 36.6062 223.408Z" fill="#42D4C6"/>
<path d="M36.1212 249.092C34.6666 249.819 33.9394 252 34.6667 253.454C35.1515 254.423 37.3333 254.908 38.7879 254.423C40.2424 253.696 40.7273 252.242 40.2424 251.031C39.5152 249.335 37.3333 248.365 36.1212 249.092Z" fill="#42D4C6"/>
<path d="M46.0607 249.092C46.7879 248.608 46.7879 246.912 46.5455 246.185C46.0607 245.215 45.091 245.215 44.1212 245.7C43.1515 246.185 43.394 247.154 43.8788 247.881C44.1213 248.365 45.3334 249.577 46.0607 249.092Z" fill="#42D4C6"/>
<path d="M33.2123 231.646C32.7274 231.404 31.2729 231.646 31.0305 232.131C30.788 232.615 31.7577 233.827 32.2426 233.827C32.7274 233.827 33.9395 233.827 33.9395 233.342C34.182 232.858 33.6971 231.889 33.2123 231.646Z" fill="#42D4C6"/>
<path d="M13.091 241.338C13.8183 240.854 13.3334 240.127 13.091 239.642C12.8486 239.4 12.1213 239.158 11.8789 239.4C11.6365 239.642 11.394 240.369 11.394 240.611C11.6365 241.096 12.3637 241.823 13.091 241.338Z" fill="#42D4C6"/>
<path d="M11.8788 254.665C13.0909 256.119 15.5152 254.908 15.5152 253.938C15.5152 252.969 13.8182 251.273 12.8485 251.758C11.394 252.242 10.6667 252.969 11.8788 254.665Z" fill="#42D4C6"/>
<path d="M11.1515 230.919C11.394 230.435 10.1818 229.223 9.69697 228.738C8.9697 228.254 8 228.738 7.75757 229.95C7.27272 230.919 8.00002 231.646 8.72729 231.646C9.45457 231.646 11.1515 231.404 11.1515 230.919Z" fill="#42D4C6"/>
<path d="M180.364 178.581C180.849 178.581 181.333 177.854 181.333 177.369C181.333 176.885 181.091 175.915 180.606 176.158C180.121 176.158 179.636 176.642 179.394 177.127C179.394 177.369 179.879 178.581 180.364 178.581Z" fill="#42D4C6"/>
<path d="M17.6971 256.119C16.2426 255.634 14.0608 256.604 13.3335 258.059H20.1214C19.6365 257.331 18.6668 256.361 17.6971 256.119Z" fill="#42D4C6"/>
<path d="M39.0305 242.065C37.8183 241.823 36.8486 242.308 36.3638 243.277C36.1214 244.246 36.6062 245.458 37.5759 245.7C38.5456 245.942 39.7577 245.458 40.2426 244.246C40.7274 243.277 40.2426 242.308 39.0305 242.065Z" fill="#42D4C6"/>
<path d="M174.06 200.388C174.545 202.085 175.03 203.781 175.273 205.235C172.363 206.204 172.121 206.688 173.576 208.869C175.273 209.111 176 208.142 176 206.446C179.879 205.961 180.606 203.781 178.182 200.631C178.182 200.388 178.424 200.146 178.424 199.904C179.151 198.935 178.909 198.208 178.182 197.481C177.697 196.754 176.97 196.754 176 196.754C173.818 197.481 173.333 198.208 174.06 200.388Z" fill="#42D4C6"/>
<path d="M98.6665 227.527C97.212 228.254 96.9695 229.465 97.9392 231.161C98.6665 232.615 99.8786 232.858 101.576 231.888C102.788 231.162 103.273 230.192 102.788 229.223C102.303 228.012 99.6362 227.042 98.6665 227.527Z" fill="#42D4C6"/>
<path d="M96.2423 218.077C95.515 218.562 95.0301 219.289 95.515 220.016C95.9998 220.985 96.7271 221.469 97.6968 221.227C98.6665 220.742 99.1514 219.531 98.6665 218.804C98.1817 217.835 97.212 217.592 96.2423 218.077Z" fill="#42D4C6"/>
<path d="M103.03 238.915C102.788 238.915 102.788 238.915 102.545 238.915C102.06 238.188 101.091 237.946 100.121 237.946C99.1514 236.977 97.9393 236.492 97.212 236.977C96.4847 237.461 95.9998 238.188 96.2423 239.158C96.4847 239.885 96.4847 240.369 96.9695 240.612C96.9695 241.096 97.212 241.823 97.4544 242.55C97.9392 243.519 99.8787 244.004 100.848 243.519C100.848 243.519 101.091 243.519 101.091 243.277C101.333 243.519 101.576 244.004 102.06 244.246C103.03 244.973 104.485 244.246 104.242 243.035C104.242 241.823 104.485 240.127 103.03 238.915Z" fill="#42D4C6"/>
<path d="M100.121 256.119C98.909 256.604 98.4241 257.331 98.6666 258.3H104C104 257.815 104 257.331 104 257.088C103.273 255.635 101.818 255.392 100.121 256.119Z" fill="#42D4C6"/>
<path d="M153.212 243.277C152.97 242.55 152 241.823 151.03 242.308C149.576 243.035 150.303 244.973 151.03 245.458C150.788 246.427 150.788 247.881 151.273 248.608C153.455 247.638 155.394 246.669 157.333 245.7C157.333 244.731 156.849 243.761 156.121 243.277C155.637 242.55 154.424 242.792 153.212 243.277Z" fill="#42D4C6"/>
<path d="M88.9698 234.312C88.7274 234.796 88.9698 235.765 89.2122 236.25C89.4547 236.492 90.4244 236.735 90.9092 236.492C91.8789 236.25 92.8486 235.765 93.8183 235.281C94.5456 234.796 94.788 234.312 94.3031 233.342C94.0607 233.342 93.5759 232.858 93.3335 233.1C92.3638 233.585 91.3941 233.342 90.4244 233.1C90.1819 233.1 89.2122 233.827 88.9698 234.312Z" fill="#42D4C6"/>
<path d="M94.7881 250.304C95.5154 251.515 97.9396 252 98.9093 251.273C99.879 250.788 100.121 248.365 99.6366 247.396C99.1517 246.427 97.6971 246.185 96.7274 246.669C95.0305 247.638 94.3032 249.092 94.7881 250.304Z" fill="#42D4C6"/>
<path d="M87.0303 242.792C86.0606 243.035 85.0909 244.973 85.3333 245.942C85.5758 246.669 87.2727 247.638 88.2424 247.396C88.7273 247.396 88.9697 247.154 89.2122 246.669C89.697 247.881 91.1516 248.608 92.1213 247.881C93.091 247.396 92.8485 244.004 91.6364 243.277C90.9091 242.792 89.697 243.761 89.2122 244.973C88.7273 243.519 88 242.55 87.0303 242.792Z" fill="#42D4C6"/>
<path d="M142.788 194.815C141.333 195.3 140.364 196.996 140.606 198.208C140.848 199.419 142.788 199.904 144.727 199.419C145.697 199.177 146.424 197.723 145.939 196.754C145.454 195.542 143.757 194.573 142.788 194.815Z" fill="#42D4C6"/>
<path d="M134.545 245.458C133.818 245.7 133.091 246.185 133.333 247.396C133.576 248.123 134.545 248.608 135.515 248.608C134.788 249.577 135.515 251.031 136.242 251.273C136.97 251.515 138.182 250.788 138.424 250.061C138.667 249.092 138.182 248.608 136.242 248.123C136.485 247.638 136.485 246.912 136.485 246.185C136.242 245.458 135.273 245.215 134.545 245.458Z" fill="#42D4C6"/>
<path d="M144.485 207.9C143.03 208.385 142.546 209.596 143.273 211.535C143.758 212.746 145.455 213.958 146.424 213.715C147.879 213.231 148.849 211.05 148.364 209.596C148.121 208.142 146.182 207.173 144.485 207.9Z" fill="#42D4C6"/>
<path d="M138.424 219.531C136.97 220.015 136 222.438 136.727 224.135C137.212 225.346 138.667 225.831 140.121 225.346C141.576 224.862 143.03 222.681 142.788 221.712C142.061 220.015 139.879 219.046 138.424 219.531Z" fill="#42D4C6"/>
<path d="M137.697 245.215C138.424 245.942 139.394 246.427 140.364 246.427C141.576 246.669 142.788 245.942 144 244.973C145.212 244.004 146.667 244.004 147.394 242.792C148.364 240.854 148.606 237.704 146.182 235.281C144.485 233.827 143.03 233.585 141.576 233.827C139.879 234.312 139.637 236.492 138.182 237.462C134.061 240.369 135.515 243.277 137.697 245.215Z" fill="#42D4C6"/>
<path d="M139.152 228.981C138.424 228.738 137.455 228.738 136.97 229.223C136 230.192 136.485 231.646 137.212 232.615C138.424 232.615 139.636 232.615 140.121 231.404C140.606 230.435 140.121 229.465 139.152 228.981Z" fill="#42D4C6"/>
<path d="M93.818 228.254C94.7877 227.769 95.515 225.831 95.0301 225.104C94.5453 224.135 92.6059 223.65 91.6362 224.135C90.6665 224.619 90.4241 226.073 90.9089 227.042C91.6362 228.011 92.8483 228.496 93.818 228.254Z" fill="#42D4C6"/>
<path d="M183.273 188.758C183.03 188.515 182.788 188.273 182.788 188.031C182.303 187.062 181.333 187.062 180.364 187.062C179.394 187.304 179.152 187.788 178.909 188.758C178.424 190.938 178.909 191.908 181.091 192.15C182.788 192.392 184.485 192.877 185.939 193.119C185.697 196.027 185.939 196.269 188.606 196.027C189.333 194.815 189.091 194.088 188.121 193.119C188.364 192.877 188.364 192.877 188.364 192.635C188.364 192.392 188.121 192.15 187.879 192.15C188.606 189.242 187.152 188.031 183.273 188.758Z" fill="#42D4C6"/>
<path d="M104.242 250.546C104 251.031 104 251.516 104.485 252.001C104.727 252.243 105.697 252.243 106.182 252.001C106.667 251.758 106.182 250.789 105.939 250.546C105.455 250.304 104.485 250.061 104.242 250.546Z" fill="#42D4C6"/>
<path d="M85.3334 210.323C84.6061 210.808 84.1213 212.504 84.8485 213.473C85.5758 214.442 87.5152 214.2 88.0001 212.988C88.2425 212.504 87.2728 211.292 86.5455 210.565C86.3031 210.323 86.0607 209.838 85.3334 210.323Z" fill="#42D4C6"/>
<path d="M2.66678 249.577C1.45466 249.335 -1.45443 250.546 -1.69686 251.758C-1.93928 253.211 -0.484745 254.665 1.21222 255.15C2.90919 255.635 3.8789 254.665 4.36375 252.485C4.84859 251.515 3.8789 249.819 2.66678 249.577Z" fill="#42D4C6"/>
<path d="M82.1819 230.435C82.6668 231.646 84.6062 232.373 85.5759 231.888C86.788 231.404 87.0304 229.465 86.0607 227.769C85.5759 226.8 84.6062 226.558 83.8789 227.042C82.6668 227.769 81.6971 229.465 82.1819 230.435Z" fill="#42D4C6"/>
<path d="M217.939 150.231C217.212 149.988 216.242 150.958 216.242 151.927C216.242 152.896 216.727 153.623 217.697 153.381C217.939 153.381 217.939 153.381 218.182 153.138C218.182 152.169 218.424 151.2 218.424 150.231C218.182 150.231 217.939 150.231 217.939 150.231Z" fill="#42D4C6"/>
<path d="M188.848 155.319C189.818 155.562 190.788 154.835 191.03 153.623C191.03 152.654 190.303 151.685 189.333 151.442C188.363 151.2 187.151 152.169 187.151 153.138C187.151 154.35 187.879 155.077 188.848 155.319Z" fill="#42D4C6"/>
<path d="M215.758 129.15C215.273 130.362 214.545 131.573 215.758 132.542C216.485 133.027 217.212 133.027 217.939 132.785C217.697 131.573 217.697 130.362 217.455 128.908C216.97 128.908 216.242 128.908 215.758 129.15Z" fill="#42D4C6"/>
<path d="M169.454 200.388C168.485 200.631 167.757 201.6 168 202.569C168.242 203.296 168.727 204.023 169.212 204.265C170.667 204.75 171.636 203.781 172.363 202.327C171.394 201.115 170.909 199.904 169.454 200.388Z" fill="#42D4C6"/>
<path d="M209.212 178.338C209.212 179.55 210.424 180.519 211.394 180.519C212.364 180.519 213.333 179.308 213.333 178.338C213.333 177.369 212.121 176.4 211.152 176.4C210.182 176.158 209.212 177.127 209.212 178.338Z" fill="#42D4C6"/>
<path d="M206.061 187.788C206.061 189.485 207.273 190.696 209.212 190.696C209.939 189 210.667 187.304 211.152 185.608C210.909 185.123 210.424 184.881 209.697 184.881C208.485 185.123 206.061 186.819 206.061 187.788Z" fill="#42D4C6"/>
<path d="M213.818 139.569C213.333 139.569 212.848 140.054 212.606 140.296C212.606 140.539 212.848 141.266 213.091 141.266C213.576 141.266 214.303 141.266 214.545 140.539C215.03 140.054 214.061 139.569 213.818 139.569Z" fill="#42D4C6"/>
<path d="M213.576 172.523C213.576 173.25 214.061 173.977 214.788 174.219C215.03 173.008 215.515 171.796 215.758 170.585C215.515 170.585 215.515 170.585 215.273 170.585C214.303 170.585 213.576 171.312 213.576 172.523Z" fill="#42D4C6"/>
<path d="M204.364 169.373C204.606 170.584 205.334 171.311 206.546 171.069C208.243 171.069 209.212 168.888 208.97 168.161C208.97 167.435 207.03 165.981 205.576 166.708C204.606 167.192 204.121 168.161 204.364 169.373Z" fill="#42D4C6"/>
<path d="M207.03 157.015C208 157.015 208.97 156.046 209.212 155.319C209.212 154.35 208.243 153.138 207.273 152.896C206.303 152.896 205.334 153.623 205.334 154.592C205.091 155.804 206.061 157.015 207.03 157.015Z" fill="#42D4C6"/>
<path d="M200.727 199.177C199.515 199.662 199.03 201.358 199.515 202.812C200 203.781 200.485 204.265 200.97 204.265C201.212 204.508 201.455 204.508 201.697 204.75C202.667 203.296 203.636 201.6 204.606 199.904C203.879 198.935 201.939 198.45 200.727 199.177Z" fill="#42D4C6"/>
<path d="M90.9091 255.15C90.4242 254.423 89.4545 254.423 88.4848 254.908C87.2727 256.119 86.5454 257.088 87.0303 257.815C87.0303 257.815 87.2727 258.058 87.5152 258.058H90.6666C91.3939 257.573 91.3939 255.877 90.9091 255.15Z" fill="#42D4C6"/>
<path d="M173.091 221.712C172.121 222.196 171.394 225.104 172.121 226.315C172.606 227.285 174.303 227.769 175.273 227.285C176.727 226.8 177.454 225.588 177.212 224.377C177.454 224.377 177.697 224.377 177.939 224.619C179.394 224.862 181.091 223.65 181.091 222.681C181.333 221.227 179.636 219.288 178.182 219.046C176.727 219.046 175.273 220.258 175.03 221.712C174.303 221.469 173.576 221.469 173.091 221.712Z" fill="#42D4C6"/>
<path d="M176.485 194.088C176.727 194.573 177.697 195.058 178.182 195.3C179.636 194.815 179.636 193.846 179.394 193.119C179.152 192.392 178.424 191.665 177.455 192.15C176.97 192.392 176.485 193.604 176.485 194.088Z" fill="#42D4C6"/>
<path d="M144.727 250.789C143.757 250.062 142.788 249.819 141.818 249.819C140.606 250.062 139.151 251.758 138.667 253.454C141.576 252.485 144.485 251.515 147.151 250.546C146.424 250.062 145.454 250.304 144.727 250.789Z" fill="#42D4C6"/>
<path d="M178.182 215.896C179.151 215.896 179.394 214.685 179.151 213.715C178.667 212.746 177.939 212.261 176.97 212.746C176.242 213.231 174.788 213.958 175.273 215.169C175.758 216.381 177.455 215.896 178.182 215.896Z" fill="#42D4C6"/>
<path d="M170.182 237.946C171.152 237.219 172.121 236.492 173.091 235.765C172.848 235.765 172.606 235.765 172.606 235.765C171.394 236.25 170.667 236.977 170.182 237.946Z" fill="#42D4C6"/>
<path d="M182.546 204.992C180.849 204.992 179.152 206.688 179.152 208.385C179.152 210.081 181.091 211.777 183.515 211.777C185.212 211.777 186.424 210.565 186.424 208.869C186.424 206.688 184.727 204.992 182.546 204.992Z" fill="#42D4C6"/>
<path d="M172.606 163.558C172.364 163.558 171.636 164.043 171.636 164.285C171.636 164.77 172.121 165.255 172.364 165.497C172.606 165.497 173.576 165.497 173.818 164.77C174.061 163.8 173.091 163.558 172.606 163.558Z" fill="#42D4C6"/>
<path d="M188.848 220.985C187.879 221.469 187.151 222.438 187.151 223.408C187.879 222.681 188.848 221.712 189.576 220.985C189.333 220.742 189.091 220.742 188.848 220.985Z" fill="#42D4C6"/>
<path d="M175.03 185.608C175.03 186.335 175.758 187.304 176.242 187.304C176.97 187.304 177.697 186.577 178.182 186.335C178.182 184.881 177.455 184.396 176.727 184.396C176 184.154 175.03 184.639 175.03 185.608Z" fill="#42D4C6"/>
<path d="M199.758 179.792C198.061 179.792 196.364 181.731 196.121 183.427C196.121 185.365 197.818 186.819 200.243 186.819C202.182 186.819 203.636 185.608 203.636 183.911C203.879 181.973 201.94 179.792 199.758 179.792Z" fill="#42D4C6"/>
<path d="M167.515 231.646C168 232.615 169.455 233.342 170.424 232.858C171.636 232.373 172.121 231.162 171.636 229.95C171.152 228.981 169.939 228.254 168.97 228.738C168.243 229.223 167.273 230.919 167.515 231.646Z" fill="#42D4C6"/>
<path d="M165.576 216.138C164.121 215.896 162.667 217.108 162.424 218.319C162.424 219.046 162.667 219.531 162.909 220.258C162.182 220.258 161.212 220.258 160.485 220.5C158.788 221.227 158.061 223.165 158.788 225.104C160 227.527 161.697 228.254 164.121 227.285C166.061 226.558 167.03 223.892 166.061 221.954C166.061 221.712 165.818 221.712 165.818 221.469C166.788 220.985 167.515 220.015 167.515 218.562C167.758 217.35 166.545 216.138 165.576 216.138Z" fill="#42D4C6"/>
<path d="M155.879 235.765C156.606 237.704 158.788 238.915 160.485 238.188C162.182 237.462 163.636 234.069 162.909 232.373C162.424 230.677 159.758 229.95 158.061 230.677C156.606 231.404 155.394 234.069 155.879 235.765Z" fill="#42D4C6"/>
<path d="M194.909 197.481C196.121 197.481 196.606 195.785 196.849 195.058C197.091 194.331 196.364 193.361 195.152 193.361C193.94 193.361 193.212 193.846 193.455 194.815C193.697 195.785 193.697 197.481 194.909 197.481Z" fill="#42D4C6"/>
<path d="M195.879 181.973C196.606 181.731 196.364 180.761 196.121 180.277C196.121 180.035 195.394 179.792 195.152 179.792C194.909 180.035 194.424 180.519 194.424 181.004C194.667 181.488 195.151 182.215 195.879 181.973Z" fill="#42D4C6"/>
<path d="M193.454 187.304C192.727 187.546 192.485 188.273 192.727 189C193.212 189.727 193.939 189.969 194.424 189.485C194.909 189 194.909 188.273 194.909 188.031C194.424 187.546 194.182 187.062 193.454 187.304Z" fill="#42D4C6"/>
<path d="M188.606 210.323C186.909 211.05 186.182 213.231 187.151 215.412C187.879 217.35 189.576 217.835 191.273 217.108C192.242 216.623 192.97 215.654 193.454 214.685C193.697 214.927 193.939 215.169 194.182 215.412C195.879 213.473 197.333 211.292 198.788 209.112C198.303 208.869 197.576 208.627 197.091 208.627C195.636 208.627 194.182 210.081 193.454 212.019V211.777C192.727 210.323 190.06 209.596 188.606 210.323Z" fill="#42D4C6"/>
<path d="M197.091 141.992C196.364 142.719 194.182 143.446 194.424 144.9C194.667 146.354 195.879 146.111 196.606 146.354C198.303 147.565 200.727 147.081 201.455 145.627C201.939 144.173 201.697 143.204 200.485 142.235C199.273 141.023 198.303 141.265 197.091 141.992Z" fill="#42D4C6"/>
<path d="M191.515 167.677C191.515 169.131 192.727 170.342 194.424 170.342C195.879 170.342 196.848 169.858 196.848 168.404C196.848 166.465 195.636 164.527 194.182 164.527C192.727 164.527 191.515 166.223 191.515 167.677Z" fill="#42D4C6"/>
<path d="M-140.363 126.242H216.97C207.758 73.1769 161.455 32.7115 105.94 32.7115H-251.636C-242.424 85.7769 -196.121 126.242 -140.363 126.242Z" fill="#00BFB3"/>
<path d="M315.394 97.8923C314.909 98.6192 315.152 99.3461 316.121 99.8307C317.091 100.073 317.818 100.073 318.061 99.1038C318.061 99.3461 318.061 99.5884 318.061 99.5884C318.303 100.558 319.03 100.558 319.758 100.315C320.727 100.073 321.455 99.1038 320.97 98.3769C320.727 97.65 320.242 97.1653 319.515 96.923C319.03 96.923 318.303 97.65 318.061 98.6192C318.303 97.8923 318.303 96.1961 317.576 95.9538C317.091 95.7115 315.879 97.1653 315.394 97.8923Z" fill="#D3DAE0"/>
<path d="M322.909 104.677C323.879 105.162 325.334 104.677 325.819 103.708C326.303 102.738 325.819 101.285 324.606 100.8C323.637 100.315 322.667 100.8 322.182 101.769C321.455 102.738 321.697 104.192 322.909 104.677Z" fill="#D3DAE0"/>
<path d="M324.606 87.9577C325.091 87.7154 325.333 86.9884 325.333 86.7461C325.091 86.2615 324.849 85.5346 324.364 85.5346C323.879 85.7769 323.394 86.2615 323.394 86.7461C323.636 86.9884 324.121 88.2 324.606 87.9577Z" fill="#D3DAE0"/>
<path d="M316.364 60.3345C316.606 59.8499 316.606 58.6384 316.121 58.3961C315.637 58.1538 314.667 58.3961 314.182 58.8807C313.94 59.123 313.697 60.8191 314.182 61.0615C314.909 61.3038 316.121 60.5769 316.364 60.3345Z" fill="#D3DAE0"/>
<path d="M312.727 98.6192C313.697 98.3769 314.182 97.65 314.182 96.6808C314.182 95.7115 312.243 94.7423 311.515 95.2269C310.788 95.7115 310.788 96.4384 310.546 97.1654C310.546 98.1346 311.758 98.8615 312.727 98.6192Z" fill="#D3DAE0"/>
<path d="M313.697 75.1153C314.909 74.873 315.394 73.9038 315.394 72.6923C315.152 71.4807 314.424 70.9961 313.212 71.2384C312 71.4807 311.273 72.45 311.515 73.6615C311.758 74.3884 312.728 75.1153 313.697 75.1153Z" fill="#D3DAE0"/>
<path d="M325.334 92.3192C324.849 93.5307 325.576 96.6807 326.546 96.9231C327.758 97.4077 329.697 96.4384 330.424 94.7423C331.152 93.2884 330.425 92.0769 328.485 91.1076C327.758 90.8653 325.818 91.35 325.334 92.3192Z" fill="#D3DAE0"/>
<path d="M326.546 57.9116C327.516 58.3962 328.728 58.1539 329.212 57.1846C329.697 56.2154 329.455 55.0039 328.243 54.2769C327.273 53.55 326.303 53.7923 325.819 55.0039C325.091 56.2154 325.334 57.4269 326.546 57.9116Z" fill="#D3DAE0"/>
<path d="M329.697 84.0808C328.485 84.3231 327.515 85.2923 328 86.0193C328.242 86.9885 329.94 88.2 330.909 87.9577C331.879 87.7154 332.606 86.5039 332.364 85.2923C332.121 84.3231 331.152 83.8385 329.697 84.0808Z" fill="#D3DAE0"/>
<path d="M335.03 68.573C335.758 69.0576 337.212 68.573 337.697 67.8461C337.939 67.1192 337.455 66.1499 336.243 65.423C335.515 64.9384 334.788 65.1807 334.546 65.9076C334.061 66.8769 334.061 67.8461 335.03 68.573Z" fill="#D3DAE0"/>
<path d="M274.425 92.8039C275.152 92.5616 276.606 91.35 276.606 90.6231C276.364 89.8962 274.424 89.6539 273.697 89.8962C272.728 89.8962 272.485 90.6231 272.728 91.8346C272.97 92.3192 273.455 93.0462 274.425 92.8039Z" fill="#D3DAE0"/>
<path d="M329.455 77.2971C329.94 77.2971 330.424 77.2971 330.909 77.0547C331.152 76.8123 331.394 75.8425 330.909 75.3577C330.182 74.8729 329.697 75.8426 329.455 76.085C328.97 76.3274 329.212 77.2971 329.455 77.2971Z" fill="#D3DAE0"/>
<path d="M328.485 76.5695C328.485 76.3271 327.273 75.8423 327.03 75.8423C326.788 75.8423 326.303 76.5695 326.303 76.812C326.546 77.2968 327.03 77.7817 327.273 77.7817C327.758 77.7817 328.728 77.0544 328.485 76.5695Z" fill="#D3DAE0"/>
<path d="M330.909 80.931C330.909 81.1735 331.152 81.4159 331.637 81.4159C332.122 81.4159 332.122 80.931 332.122 80.6886C332.122 80.4462 331.637 80.2038 331.394 80.4462C331.152 80.4462 330.667 80.6886 330.909 80.931Z" fill="#D3DAE0"/>
<path d="M281.455 75.3577C282.182 75.1154 283.637 74.1461 283.394 73.6615C283.152 73.1769 281.697 72.45 280.97 72.45C280 72.2077 279.515 73.1769 279.758 74.3884C279.758 75.3577 280.728 75.6 281.455 75.3577Z" fill="#D3DAE0"/>
<path d="M281.212 97.8923C281.697 99.1039 283.637 100.073 285.333 99.5885C287.03 99.1038 287.515 97.8923 287.03 95.9539C286.788 94.7423 285.091 93.7731 284.121 94.0154C282.667 94.5 280.97 96.9231 281.212 97.8923Z" fill="#D3DAE0"/>
<path d="M286.788 111.461C287.758 111.946 288.727 111.704 289.455 110.735C289.939 110.008 290.182 109.281 289.455 108.554C288.485 107.342 287.273 107.585 285.818 108.069C285.818 109.523 285.333 110.735 286.788 111.461Z" fill="#D3DAE0"/>
<path d="M285.334 103.223C285.091 102.738 283.394 102.254 283.152 102.254C282.667 102.738 281.697 103.708 281.94 104.192C282.182 104.677 283.152 105.162 283.637 104.919C284.364 104.919 285.334 103.708 285.334 103.223Z" fill="#D3DAE0"/>
<path d="M289.697 105.405C289.939 105.647 290.667 105.405 290.909 105.162C291.152 104.92 290.667 104.193 290.424 103.95C290.182 103.708 289.212 103.708 288.97 104.193C288.485 104.435 289.455 105.162 289.697 105.405Z" fill="#D3DAE0"/>
<path d="M339.637 48.4623C339.879 48.2199 339.879 47.0078 339.637 46.7653C339.394 46.5229 338.424 47.2502 338.182 47.4926C337.94 47.735 338.182 48.4623 338.424 48.4623C338.667 48.7047 339.394 48.7047 339.637 48.4623Z" fill="#D3DAE0"/>
<path d="M282.182 111.946C280.485 112.431 279.515 113.642 279.758 115.096C280 116.065 282.182 117.277 283.394 117.035C284.606 116.792 285.091 115.823 284.606 114.127C284.121 112.431 283.394 111.704 282.182 111.946Z" fill="#D3DAE0"/>
<path d="M303.273 104.192C302.788 104.435 302.303 105.162 302.303 105.646C302.303 106.131 302.788 107.1 303.273 107.342C304.727 107.827 305.212 106.858 305.697 105.888C305.212 104.677 304.485 103.95 303.273 104.192Z" fill="#D3DAE0"/>
<path d="M299.394 88.6856C299.636 88.6856 300.606 88.4432 300.606 87.4734C300.606 86.7461 299.394 86.7462 299.152 86.7462C298.909 86.7462 298.424 87.4734 298.424 87.7159C298.424 88.2007 298.909 88.6856 299.394 88.6856Z" fill="#D3DAE0"/>
<path d="M303.515 66.8769C304 66.6346 304.97 66.15 304.97 65.6654C304.97 65.1808 304 64.4539 303.515 64.4539C303.03 64.4539 301.818 65.4231 301.818 65.9077C301.576 66.3923 303.03 67.1192 303.515 66.8769Z" fill="#D3DAE0"/>
<path d="M296 113.158C297.94 114.127 299.637 113.642 300.606 112.673C301.818 111.704 300.849 109.281 299.637 107.827C298.667 106.615 295.758 106.858 294.788 108.069C293.818 109.281 294.061 112.188 296 113.158Z" fill="#D3DAE0"/>
<path d="M307.152 83.3538C308.121 84.0807 308.849 83.3538 309.091 82.6269C309.333 81.9 309.333 80.2038 308.849 79.9615C308.364 79.7192 306.909 80.4461 306.424 80.9308C305.697 81.9 306.182 82.8692 307.152 83.3538Z" fill="#D3DAE0"/>
<path d="M308.606 86.5038C308.849 87.473 310.061 88.4423 310.788 88.2C311.515 87.9577 312 86.7461 311.758 85.7769C311.515 84.8077 311.031 84.5654 310.303 84.8077C309.334 85.05 308.606 85.5346 308.606 86.5038Z" fill="#D3DAE0"/>
<path d="M302.303 100.8C303.03 100.558 303.758 100.315 304.243 99.8308C304.243 100.073 304.485 100.315 304.727 100.315C304.97 100.558 306.182 100.558 306.424 100.315C306.667 99.8308 305.94 98.8616 305.697 98.8616C305.455 98.8616 305.455 98.8616 305.212 98.8616C305.455 98.3769 305.455 97.65 305.455 96.9231C305.212 94.9846 302.788 93.2885 300.849 93.7731C299.152 94.0154 297.455 96.4385 297.697 98.3769C297.697 100.073 299.637 101.042 302.303 100.8Z" fill="#D3DAE0"/>
<path d="M308.606 102.254C308.364 102.981 308.849 104.192 309.334 104.677C310.061 105.404 310.788 104.919 310.788 104.677C311.031 104.192 311.031 103.465 310.788 102.981C310.546 102.496 310.546 101.769 310.061 101.285C309.576 100.8 308.849 101.527 308.606 102.254Z" fill="#D3DAE0"/>
<path d="M373.333 2.9077C373.818 3.15001 374.303 2.18078 374.303 1.69616C374.303 1.45386 374.061 0.726929 373.576 0.726929C373.091 0.726929 372.606 1.21155 372.606 1.69616C372.606 1.93847 372.849 2.9077 373.333 2.9077Z" fill="#D3DAE0"/>
<path d="M378.182 54.5192C379.637 55.2461 382.061 54.2769 383.031 52.823C383.516 51.8538 382.788 50.3999 381.576 49.673C379.879 48.9461 378.425 49.4307 377.697 50.8846C376.728 52.3384 377.212 54.2769 378.182 54.5192Z" fill="#D3DAE0"/>
<path d="M383.273 21.8077C384 22.05 384.727 22.5346 385.212 23.0192C386.182 24.2308 387.152 24.7154 388.606 24.2308C389.576 23.9885 390.546 21.3231 390.303 20.1115C390.061 18.9 389.576 17.6885 388.121 17.9308C386.909 17.9308 385.697 17.9308 384.485 17.9308C383.273 17.4462 382.303 17.9308 381.818 18.9C381.334 20.1115 382.061 21.0808 383.273 21.8077Z" fill="#D3DAE0"/>
<path d="M366.546 31.9846C367.515 32.4692 368.728 31.5 369.455 30.7731C369.697 30.2884 369.94 28.8346 369.455 27.8654C369.697 27.8654 369.697 27.6231 369.697 27.3808C369.697 26.8961 369.455 26.4115 368.97 26.1692C368.728 25.9269 367.515 26.1692 367.515 26.6538C367.515 26.8961 367.515 27.1384 367.758 27.3808C366.788 27.8654 365.818 28.8346 365.576 29.3192C365.334 30.0461 365.576 31.5 366.546 31.9846Z" fill="#D3DAE0"/>
<path d="M372.121 13.8115C371.636 15.0231 371.879 16.9615 374.061 16.9615C376.243 16.9615 377.697 15.0231 377.94 13.0846C378.182 11.1462 375.515 8.23847 373.091 8.48078C371.394 8.72308 371.394 10.9039 372.121 11.8731C372.849 12.8423 372.606 12.6 372.121 13.8115Z" fill="#D3DAE0"/>
<path d="M388.849 6.3C388.849 7.02692 389.334 7.51154 389.576 7.99616C391.031 8.23846 391.758 7.26923 392 6.3C392 5.33077 391.515 5.08847 390.788 4.84616C389.576 4.60385 388.849 5.33077 388.849 6.3Z" fill="#D3DAE0"/>
<path d="M387.394 45.3115C388.122 44.3423 387.879 43.373 386.909 42.8884C385.697 42.1615 384.728 42.4038 384 43.373C383.515 44.3423 383.758 45.5538 384.485 46.0384C385.455 46.523 386.667 46.2807 387.394 45.3115Z" fill="#D3DAE0"/>
<path d="M399.273 11.1461C399.273 10.1769 399.273 8.96538 399.273 7.99615C398.546 7.99615 397.819 8.48077 397.819 9.45C397.819 10.1769 398.303 10.6615 398.546 11.1461C398.788 11.1461 399.031 11.1461 399.273 11.1461Z" fill="#D3DAE0"/>
<path d="M382.546 38.0423C381.576 37.8 380.364 38.5269 380.122 39.7384C379.879 40.95 380.364 41.9192 381.576 42.1615C382.788 42.4038 383.758 41.6769 384 40.7077C384.243 39.7384 383.515 38.2846 382.546 38.0423Z" fill="#D3DAE0"/>
<path d="M389.576 38.5269C390.788 38.7693 392 38.0423 392 36.8308C392 35.8616 391.03 34.4077 389.818 34.4077C388.849 34.4077 387.637 35.1346 387.637 36.3462C387.394 37.5577 388.121 38.5269 389.576 38.5269Z" fill="#D3DAE0"/>
<path d="M368.97 41.4346C368.242 41.4346 367.758 42.1615 367.273 42.6461C366.788 43.373 366.788 44.3423 367.758 44.5846C368.727 44.8269 369.455 45.0692 370.182 44.1C370.424 43.373 369.455 41.4346 368.97 41.4346Z" fill="#D3DAE0"/>
<path d="M359.031 63.7269C359.515 64.2115 361.212 63.7269 361.455 62.5154C361.455 62.273 361.455 62.273 361.455 62.0307C361.94 61.7884 362.425 61.5461 362.425 61.0615C362.909 59.6077 362.667 57.9115 361.455 57.4269C360.243 56.7 357.818 57.4269 357.334 58.3961C356.849 59.123 357.576 60.5769 358.546 61.5461C358.061 62.273 358.546 63.4846 359.031 63.7269Z" fill="#D3DAE0"/>
<path d="M345.212 47.2503C345.455 47.0079 344.97 46.5231 344.97 46.5231C344.727 46.5231 344.243 46.7655 344.243 46.7655C344.243 47.0079 344.243 47.2503 344.485 47.4928C344.485 47.7352 344.97 47.7352 345.212 47.2503Z" fill="#D3DAE0"/>
<path d="M344.243 80.2038C344 80.2038 343.516 80.9307 343.516 81.173C343.516 81.6576 344 82.6269 344.728 82.3846C345.212 82.1423 345.697 81.173 345.455 80.9307C345.212 80.6884 344.728 80.2038 344.243 80.2038Z" fill="#D3DAE0"/>
<path d="M350.303 78.2654C350.061 77.7808 349.576 77.2961 348.849 77.0538C348.364 76.8115 347.879 76.3269 347.152 76.5692C346.424 76.8115 346.424 77.7808 346.909 78.5077C347.394 78.9923 348.606 79.7192 349.091 79.4769C350.546 79.2346 350.546 78.5077 350.303 78.2654Z" fill="#D3DAE0"/>
<path d="M346.667 53.0654C347.637 53.55 349.576 52.8231 350.061 52.0961C350.546 51.1269 350.061 49.9154 348.849 49.4308C347.879 48.9461 346.667 49.4308 346.182 50.6423C345.455 51.6115 345.697 52.8231 346.667 53.0654Z" fill="#D3DAE0"/>
<path d="M346.909 72.9346C347.394 71.9654 347.152 71.2384 346.425 70.5115C345.697 70.0269 343.516 70.7538 343.516 71.4808C343.516 72.2077 344 72.9346 344.485 73.4192C345.213 74.1461 346.425 73.6615 346.909 72.9346Z" fill="#D3DAE0"/>
<path d="M345.94 56.943C346.182 56.4582 345.697 55.7309 345.455 55.7309C344.97 55.4885 344.243 55.2461 344 55.7309C343.758 56.2158 344 56.943 344.485 57.1855C344.485 57.1855 345.697 57.4279 345.94 56.943Z" fill="#D3DAE0"/>
<path d="M354.182 37.8007C354.424 37.3159 353.94 36.3462 353.455 36.3462C353.212 36.1038 352.485 36.3462 352.243 36.8311C352 37.0735 352.243 37.8008 352.485 38.0432C352.727 38.2856 353.94 38.528 354.182 37.8007Z" fill="#D3DAE0"/>
<path d="M366.546 78.9923C367.515 78.9923 368.242 78.5077 368.485 77.5385C368.727 76.5692 368.485 75.1154 367.515 74.6308C366.061 73.9038 365.091 75.1154 364.121 75.8423C364.606 78.2654 365.091 78.9923 366.546 78.9923Z" fill="#D3DAE0"/>
<path d="M347.879 94.9846C349.818 94.0154 350.546 92.5615 350.546 91.1077C350.546 89.6538 348.121 88.6846 345.94 88.9269C344.485 88.9269 342.788 91.35 343.03 92.8038C343.273 94.2577 345.697 95.7115 347.879 94.9846Z" fill="#D3DAE0"/>
<path d="M363.879 67.1192C362.909 68.3307 362.182 69.5423 363.152 70.7538C363.394 71.2384 364.606 71.4808 365.091 71.2384C365.818 70.7538 366.546 70.0269 366.546 69.3C366.546 67.3615 365.091 67.3615 363.879 67.1192Z" fill="#D3DAE0"/>
<path d="M347.636 85.7769C348.848 85.05 348.364 84.0807 348.121 82.8692C346.909 82.3846 345.697 82.6269 345.212 83.8384C344.97 84.3231 345.212 85.2923 345.697 85.5346C346.182 85.7769 347.152 86.0192 347.636 85.7769Z" fill="#D3DAE0"/>
<path d="M364.849 40.2231C365.576 39.9807 366.788 39.7384 367.273 38.7692C367.758 37.8 366.303 37.3154 365.818 37.3154C365.091 37.3154 363.152 37.8 362.909 38.5269C362.667 39.4961 364.606 40.2231 364.849 40.2231Z" fill="#D3DAE0"/>
<path d="M351.031 69.3C352 69.5423 352.485 69.0577 352.728 68.3308C353.212 67.3615 352.97 66.3923 352 66.15C351.273 65.9077 350.546 65.9077 350.061 66.3923C349.576 66.8769 350.303 68.8154 351.031 69.3Z" fill="#D3DAE0"/>
<path d="M380.849 35.3769C381.818 35.8615 382.788 35.6192 383.515 34.65C384 33.6807 383.758 32.7115 383.273 31.9846C383.515 31.7423 383.758 31.5 383.758 31.0153C383.758 30.2884 383.515 28.5923 382.546 28.35C381.576 28.1077 380.849 29.5615 380.606 30.0461C380.364 30.5307 380.364 31.0153 380.606 31.5C380.121 31.7423 379.879 31.9846 379.636 32.2269C379.394 33.4384 380.121 34.8923 380.849 35.3769Z" fill="#D3DAE0"/>
<path d="M331.879 103.465C333.333 102.981 334.303 101.527 334.061 100.558C334.061 100.315 333.818 99.8308 333.576 99.5885C333.576 99.5885 333.576 99.5885 333.576 99.3462C333.818 98.8616 333.576 97.4077 333.091 97.1654C332.606 96.9231 331.637 97.65 331.394 97.8923C331.152 97.8923 330.909 97.8923 330.667 97.8923C329.697 98.1346 328.727 100.315 328.97 102.012C329.212 102.981 330.667 103.708 331.879 103.465Z" fill="#D3DAE0"/>
<path d="M330.909 113.158C329.697 114.127 329.455 114.854 330.909 117.277C332.849 116.55 334.546 115.581 336.243 114.854C336.243 114.612 336 114.127 335.758 113.885C335.03 112.431 332.364 112.188 330.909 113.158Z" fill="#D3DAE0"/>
<path d="M327.273 118.489C327.758 118.246 328.243 118.004 328.728 118.004C328 118.004 327.758 118.246 327.273 118.489Z" fill="#D3DAE0"/>
<path d="M327.758 108.312C326.061 108.312 324.849 108.554 324.606 110.008C324.606 110.492 325.091 111.462 325.334 111.704C326.061 111.946 327.273 111.946 327.758 111.462C329.213 110.492 328.243 109.523 327.758 108.312Z" fill="#D3DAE0"/>
<path d="M341.818 82.3846C342.788 80.6885 342.303 78.5077 340.364 77.5385C338.667 76.5692 335.758 77.2962 334.788 79.2346C334.061 80.9308 334.788 83.5961 336.485 84.5654C338.424 85.5346 340.606 84.5654 341.818 82.3846Z" fill="#D3DAE0"/>
<path d="M277.091 98.6192C276.848 97.6499 275.879 96.923 274.909 97.1653C273.455 97.4076 272.727 98.3769 272.97 99.5884C273.212 100.558 274.424 101.527 275.394 101.285C276.606 101.285 277.333 99.8307 277.091 98.6192Z" fill="#D3DAE0"/>
<path d="M340.606 101.042C341.576 100.558 342.061 99.5885 341.818 98.6192C341.576 97.65 341.091 97.1654 340.121 97.1654C338.424 97.1654 337.939 98.3769 337.697 99.8308C338.424 100.558 339.152 101.769 340.606 101.042Z" fill="#D3DAE0"/>
<path d="M314.667 116.55C312.485 117.035 311.758 118.004 312 119.7C312 119.7 312 119.942 312.243 119.942C312 119.7 311.758 119.458 311.273 119.215C309.576 118.488 308.122 119.215 307.394 121.154C306.909 122.365 306.909 123.335 307.637 124.304C309.576 124.061 311.515 123.577 313.455 123.092C313.697 122.365 313.455 121.638 312.97 120.912C313.697 121.638 314.909 122.123 315.637 121.881C316.606 121.638 317.819 119.458 317.334 118.246C316.849 116.792 315.879 116.308 314.667 116.55Z" fill="#D3DAE0"/>
<path d="M321.212 113.885C320.242 113.4 318.788 113.642 318.061 114.612C317.333 115.823 317.818 117.762 319.273 118.488C320.243 118.973 321.212 118.973 321.939 118.488C322.182 118.488 322.424 118.488 322.909 118.246C323.879 117.762 324.849 116.792 324.606 115.823C323.879 114.369 322.424 114.127 321.212 113.885Z" fill="#D3DAE0"/>
<path d="M286.303 126.001C286.303 125.758 286.303 125.758 286.061 125.516C285.576 124.546 283.636 124.546 283.152 125.031C281.939 126.001 281.212 125.273 280.243 125.273C279.273 125.273 278.303 125.516 277.333 126.001C277.091 126.001 276.849 126.243 276.606 126.485H286.303C286.788 126.485 287.273 126.485 287.758 126.485C287.273 126.001 286.788 125.758 286.303 126.001Z" fill="#D3DAE0"/>
<path d="M312 114.369C312.728 113.642 312.97 112.431 312.243 111.704C311.515 110.977 310.546 110.735 309.576 111.219C309.091 111.461 308.364 111.704 307.879 111.946C306.182 112.431 305.455 113.4 305.212 114.854C305.212 116.308 306.182 117.277 308.364 116.792C309.091 116.308 310.788 115.581 312 114.369Z" fill="#D3DAE0"/>
<path d="M301.334 116.308C299.879 116.792 298.425 118.731 298.182 120.185C297.697 119.7 297.212 119.458 296.728 119.215C295.515 118.973 296.728 116.55 295.031 116.065C293.576 115.823 293.091 113.885 290.909 113.642C288.97 113.4 286.788 114.612 287.273 116.55C287.758 118.246 288.97 119.215 290.425 120.185C291.394 120.911 292.849 119.942 292.849 121.396C292.849 122.608 293.334 124.546 294.546 125.273C295.515 125.273 296.485 125.031 297.455 125.031C298.425 124.304 298.909 123.092 298.909 122.123C299.879 122.85 301.091 123.335 302.303 122.85C304 122.365 305.212 119.942 304.728 118.246C304.728 117.277 302.788 116.065 301.334 116.308Z" fill="#D3DAE0"/>
<path d="M317.818 107.1C317.576 107.1 317.091 107.342 317.091 107.342C317.091 107.585 317.091 107.827 317.333 108.07C317.576 108.312 318.061 108.07 318.061 107.827C318.061 107.585 318.061 107.342 317.818 107.1Z" fill="#D3DAE0"/>
<path d="M357.818 91.35C356.121 90.6231 354.182 91.35 353.455 92.8039C352.97 94.0154 353.455 96.4385 354.667 97.65C353.94 97.65 353.455 97.8923 353.212 98.1346C352.485 98.8615 351.758 97.65 350.788 97.4077C351.031 96.9231 351.031 96.4385 351.031 96.1961C350.546 95.7115 349.818 95.4692 348.849 95.7115C348.121 95.7115 347.394 96.4385 347.637 97.4077C347.637 97.8923 347.879 98.1346 348.122 98.3769C347.152 98.3769 346.182 98.3769 345.455 99.3462C344.728 100.315 344.243 101.285 344.243 102.254C343.031 102.496 342.303 103.465 342.546 104.677C342.788 105.646 344 106.615 344.97 106.373C345.94 106.131 346.667 105.162 346.667 104.192C347.879 104.192 348.849 103.95 350.061 103.708C351.273 103.465 351.273 101.769 352.728 102.496C353.212 102.738 353.697 103.223 354.182 103.465C355.637 102.496 356.849 101.285 358.303 100.315C358.061 99.5885 357.576 98.8615 357.091 98.6192C358.303 98.3769 359.273 97.65 360 96.4385C360.728 94.7423 359.758 92.0769 357.818 91.35Z" fill="#D3DAE0"/>
<path d="M341.334 104.435C339.637 103.708 338.667 103.708 337.94 104.919C337.212 106.615 337.455 108.069 338.909 108.796C339.637 109.281 342.061 108.311 342.788 107.342C343.515 106.373 342.788 105.161 341.334 104.435Z" fill="#D3DAE0"/>
<path d="M387.394 55.0039C387.152 55.4885 387.152 55.9731 387.152 56.4577C386.909 56.4577 386.667 56.4577 386.425 56.4577C384.97 56.4577 383.515 56.9423 382.061 57.4269C380.606 57.9116 379.879 59.85 379.879 61.3039C379.637 60.8193 379.152 60.3346 378.667 60.0923C377.697 59.6077 375.516 60.3346 374.788 61.5462C374.303 62.5154 374.546 64.2116 375.516 64.6962C377.455 65.6654 379.394 65.6654 380.122 64.2116C380.364 63.727 380.364 63.2423 380.122 62.5154C380.606 63.2423 381.576 63.727 382.788 63.2423C384.728 60.5769 385.94 62.5154 387.879 61.0616C388.121 60.8193 388.364 60.3346 388.606 60.0923C388.849 59.6077 388.849 59.1231 388.849 58.6385C389.091 58.6385 389.091 58.6385 389.334 58.6385C390.061 56.9423 390.788 55.2462 391.515 53.55C390.546 53.3077 387.879 54.0346 387.394 55.0039Z" fill="#D3DAE0"/>
<path d="M387.879 63.0003C388.121 62.7579 388.121 62.5154 388.364 62.273C388.364 62.5154 388.121 62.5155 388.121 62.7579C387.879 62.5155 387.879 62.7579 387.879 63.0003Z" fill="#D3DAE0"/>
<path d="M382.303 71.2385C382.061 71.9654 381.818 72.6923 382.061 73.4192C382.788 72.2077 383.515 71.2385 384 70.0269C383.273 70.2692 382.546 70.7538 382.303 71.2385Z" fill="#D3DAE0"/>
<path d="M267.394 98.1352C267.879 98.1352 267.879 97.6503 267.879 97.4079C267.879 97.1654 267.394 96.923 267.152 97.1654C266.909 97.1654 266.667 97.4079 266.667 97.6503C266.667 97.8927 266.909 98.1352 267.394 98.1352Z" fill="#D3DAE0"/>
<path d="M374.546 81.9C374.061 82.8693 373.818 83.8385 374.061 84.3231C375.031 83.1116 376 81.9 376.97 80.6885C376 80.4462 375.031 80.9308 374.546 81.9Z" fill="#D3DAE0"/>
<path d="M390.303 52.0961C390.546 52.5807 391.273 53.0653 392 53.3077C392.243 52.3384 392.728 51.6115 392.97 50.6423C392.728 50.4 392.243 50.1577 391.758 50.1577C391.031 50.1577 390.303 51.1269 390.303 52.0961Z" fill="#D3DAE0"/>
<path d="M366.546 85.05C367.031 84.0808 365.818 81.9 364.849 81.4154C363.879 80.9308 362.667 81.4154 362.182 82.6269C361.212 84.5654 361.455 86.0192 362.909 86.7462C363.879 86.9885 366.061 86.2615 366.546 85.05Z" fill="#D3DAE0"/>
<path d="M365.091 88.4423C364.364 89.4115 364.606 91.8346 365.334 92.8039C365.576 93.0462 365.576 93.0462 365.818 93.2885C367.273 91.8346 368.485 90.3808 369.94 88.9269C369.455 88.6846 369.212 88.4423 368.728 87.9577C367.515 87.4731 365.576 87.7154 365.091 88.4423Z" fill="#D3DAE0"/>
<path d="M358.546 86.2615C358.546 85.2923 358.788 84.323 358.788 83.3538C358.788 82.3846 358.061 81.4153 356.849 81.4153C355.879 81.4153 354.909 82.1423 354.909 83.3538C354.909 84.0807 354.667 84.5653 354.424 85.0499C353.697 86.7461 353.94 87.9576 355.152 88.9268C355.879 89.6538 356.849 89.6538 357.576 89.1692C358.061 89.6538 359.273 89.8961 360 89.8961C360.727 89.8961 362.424 88.4422 362.424 87.473C361.94 86.2615 359.515 86.0192 358.546 86.2615Z" fill="#D3DAE0"/>
<path d="M368.97 69.7846C367.758 69.5423 366.788 70.5115 366.546 71.723C366.303 72.9346 367.031 73.9038 368.485 74.1461C369.455 74.3884 370.667 73.4192 370.909 72.45C370.909 71.2384 370.182 70.0269 368.97 69.7846Z" fill="#D3DAE0"/>
<path d="M373.091 52.3384C373.333 51.6115 373.333 50.8846 372.849 50.1576C373.091 50.3999 373.333 50.3999 373.818 50.3999C375.03 50.6422 376.485 49.1884 376.727 47.7346C376.97 46.0384 376 44.8269 374.303 44.3422C372.606 44.0999 371.152 44.8269 370.909 46.2807C370.909 47.2499 371.152 48.2192 371.879 49.1884C370.909 48.9461 370.182 49.1884 369.697 50.1576C368.97 51.3692 369.455 52.5807 370.424 53.3076C371.152 53.7922 372.606 53.3076 373.091 52.3384Z" fill="#D3DAE0"/>
<path d="M375.515 74.8731C376 73.9038 375.515 72.6923 374.303 72.2077C373.333 71.9654 372.364 71.4808 371.879 72.45C371.152 74.1462 371.394 75.3577 372.364 75.8423C373.576 76.5692 375.03 76.0846 375.515 74.8731Z" fill="#D3DAE0"/>
<path d="M372.364 56.4577C371.879 56.4577 371.636 56.7001 371.636 56.9425C371.636 57.185 371.879 57.4274 372.121 57.4274C372.364 57.4274 372.606 57.4274 372.849 56.9425C372.849 56.7001 372.849 56.4577 372.364 56.4577Z" fill="#D3DAE0"/>
<path d="M396.364 26.6538C396.606 27.6231 397.576 28.1077 398.061 28.35C398.303 26.4115 398.546 24.7154 398.546 22.7769C398.303 22.7769 397.818 23.0192 397.576 23.0192C396.849 23.9885 396.121 25.4423 396.364 26.6538Z" fill="#D3DAE0"/>
<path d="M202.909 87.9577C203.879 88.2 205.091 87.9577 205.334 86.9885C205.818 85.7769 205.334 84.5654 204.121 84.0807C202.909 83.5961 201.697 83.8384 201.212 85.05V85.2923C201.697 86.2615 202.182 87.2308 202.909 87.9577Z" fill="#D3DAE0"/>
<path d="M212.606 109.038C213.091 108.554 213.334 108.069 213.576 107.342C213.818 105.888 214.061 104.435 213.818 102.981C213.818 101.527 211.879 99.8307 210.182 99.8307C209.94 99.8307 209.455 99.8308 208.97 100.073C210.425 102.981 211.394 106.131 212.606 109.038Z" fill="#D3DAE0"/>
<path d="M217.939 114.612C217.939 113.642 217.212 112.673 216.485 112.673C215.273 112.673 214.303 114.854 214.788 115.581C215.515 116.308 217.939 115.823 217.939 114.612Z" fill="#D3DAE0"/>
<path d="M216.97 123.819C216.727 123.819 216.727 123.819 216.485 123.819C216.727 124.546 216.727 125.273 216.97 126H220.606C220.121 124.788 218.667 123.577 216.97 123.819Z" fill="#D3DAE0"/>
<path d="M220.121 106.373C218.909 105.646 217.697 106.131 216.97 107.1C216.243 107.827 214.546 109.038 215.031 110.492C215.515 111.946 216.728 111.219 217.455 111.462C219.152 112.188 221.576 110.977 221.818 109.523C222.061 108.069 221.334 107.1 220.121 106.373Z" fill="#D3DAE0"/>
<path d="M219.152 119.458C217.94 120.185 217.455 120.912 218.182 122.123C218.424 122.608 219.394 122.85 219.637 122.85C220.364 122.608 221.091 121.881 221.091 121.154C221.334 119.942 220.121 119.7 219.152 119.458Z" fill="#D3DAE0"/>
<path d="M229.091 109.765C230.061 110.25 231.515 109.765 232 109.039C232.485 108.069 232.243 106.858 231.03 106.373C229.818 105.889 228.849 106.131 228.121 107.1C227.879 108.069 228.121 109.281 229.091 109.765Z" fill="#D3DAE0"/>
<path d="M214.546 82.1423C215.031 82.3846 215.758 82.1423 216.243 81.9C216.728 81.4154 216.97 80.6884 216.97 80.2038C216.485 78.9923 214.788 78.9923 214.303 79.4769C213.818 79.9615 213.334 81.4154 214.546 82.1423Z" fill="#D3DAE0"/>
<path d="M272.485 121.881C271.031 122.123 269.818 123.819 270.061 125.273C270.061 125.515 270.061 125.758 270.303 126H275.152C275.394 125.758 275.394 125.273 275.394 125.031C274.909 123.092 273.697 121.638 272.485 121.881Z" fill="#D3DAE0"/>
<path d="M265.94 83.8385C266.424 83.8385 266.667 82.6269 266.667 82.3846C266.667 81.9 266.182 81.4153 265.455 81.4153C264.97 81.4153 264.728 82.1423 264.728 82.6269C264.97 83.1115 265.455 84.0808 265.94 83.8385Z" fill="#D3DAE0"/>
<path d="M246.061 99.5895C246.546 99.8319 247.03 99.5895 247.515 99.347C247.758 99.1046 247.758 97.8924 247.273 97.65C246.788 97.4076 246.061 98.1348 245.818 98.3773C245.576 98.8622 245.576 99.5895 246.061 99.5895Z" fill="#D3DAE0"/>
<path d="M227.394 95.4692C225.697 94.7423 223.515 95.7115 222.546 97.1653C222.061 98.1346 222.788 100.073 224.243 100.8C225.94 101.527 227.394 101.042 228.121 99.3461C229.091 97.65 228.606 95.9538 227.394 95.4692Z" fill="#D3DAE0"/>
<path d="M216.243 93.7732C216.243 94.0156 216.243 94.2581 216.485 94.5005C216.727 94.7429 217.212 94.5005 217.212 94.2581C217.212 94.0156 216.97 93.5308 216.97 93.5308C216.727 93.2883 216.485 93.5308 216.243 93.7732Z" fill="#D3DAE0"/>
<path d="M252.606 75.1153C253.091 75.1153 253.334 74.3884 253.334 73.9038C253.334 73.6615 252.849 72.9346 252.364 72.9346C251.879 72.9346 251.637 74.1461 251.879 74.3884C251.637 74.6307 252.122 75.1153 252.606 75.1153Z" fill="#D3DAE0"/>
<path d="M250.182 97.8923C248.243 98.3769 247.515 99.8308 248 101.527C248.485 103.223 250.182 104.192 252.121 103.708C253.576 103.465 254.546 101.285 254.303 99.5885C253.818 98.1346 252.121 97.4077 250.182 97.8923Z" fill="#D3DAE0"/>
<path d="M264.485 104.435C264.485 103.223 263.031 102.254 261.818 102.496C260.364 102.738 259.394 104.192 259.637 105.646C259.637 105.888 259.879 106.373 259.879 106.615C258.909 107.1 259.152 106.615 258.182 105.888C257.212 105.161 255.273 104.677 254.546 106.858C253.818 109.038 255.515 110.977 257.212 111.704C258.909 112.431 262.546 110.735 263.031 108.311C263.031 107.827 263.031 107.585 262.788 107.342C264 106.615 264.728 105.404 264.485 104.435Z" fill="#D3DAE0"/>
<path d="M260.849 124.062C260.121 124.062 259.394 124.304 258.909 124.304C258.667 125.031 258.667 125.516 258.909 126.001H261.576C262.061 125.274 261.818 124.304 260.849 124.062Z" fill="#D3DAE0"/>
<path d="M257.455 112.431C255.515 112.673 254.061 114.611 254.303 116.55C254.546 118.731 256.485 120.427 258.182 120.185C260.121 119.942 262.303 117.035 261.818 115.338C261.576 113.4 259.394 111.946 257.455 112.431Z" fill="#D3DAE0"/>
<path d="M264.728 126.242H265.212C264.97 126 264.728 126.242 264.728 126.242Z" fill="#D3DAE0"/>
<path d="M274.182 115.581C274.667 114.127 272.97 111.704 271.515 111.219C271.031 111.219 270.788 110.977 270.546 111.219C270.546 110.977 270.303 110.25 270.061 110.008C269.818 109.765 268.849 109.765 268.606 110.25C268.364 110.735 269.091 111.462 269.576 111.704H269.818C269.334 112.189 268.849 113.158 268.364 114.854C266.909 114.612 265.697 114.127 264.97 115.823C264.727 116.792 264.727 117.762 265.697 118.489C265.94 118.731 266.667 118.973 266.909 118.731C267.879 118.246 268.606 117.519 269.576 116.792C271.758 117.519 273.697 117.035 274.182 115.581Z" fill="#D3DAE0"/>
<path d="M237.333 126.242H240.485C240 126 239.515 125.758 239.031 125.758C238.303 125.515 237.818 125.758 237.333 126.242Z" fill="#D3DAE0"/>
<path d="M232.243 114.369C231.273 113.885 230.303 114.369 229.818 115.338C229.576 115.338 229.576 115.338 229.334 115.338C228.364 115.338 227.637 116.55 227.879 117.519C228.121 118.731 229.334 119.7 230.303 119.458C230.788 119.458 231.273 118.973 231.515 118.731C232.485 118.731 233.455 118.004 233.697 117.277C233.697 116.065 233.212 114.854 232.243 114.369Z" fill="#D3DAE0"/>
<path d="M237.091 89.8961C236.606 89.6538 235.879 90.1384 235.394 90.6231V90.3808C234.425 89.1692 233.212 89.4115 231.758 89.8961C231.758 91.35 231.273 92.5615 232.485 93.2884C233.455 93.7731 234.182 93.5308 234.909 92.8038C234.909 93.2885 235.152 93.7731 235.637 94.0154C236.606 94.5 237.334 93.5308 237.334 93.0461C237.576 92.3192 237.818 90.3807 237.091 89.8961Z" fill="#D3DAE0"/>
<path d="M232.485 100.8C232 101.042 231.758 101.285 231.515 101.77C231.515 102.012 232 102.497 232.243 102.497C232.727 102.497 233.455 102.255 233.455 101.527C233.455 100.8 232.727 100.8 232.485 100.8Z" fill="#D3DAE0"/>
<path d="M250.667 119.7C250.667 119.458 250.424 119.458 250.182 119.215C250.424 118.246 250.667 117.277 251.152 116.308C252.121 115.338 251.879 114.127 250.909 113.642C249.94 112.915 248.727 113.158 247.758 114.369C247.273 114.854 246.788 115.581 246.061 115.823C244.849 116.308 243.879 117.277 243.879 118.731C243.879 119.7 246.061 121.396 247.273 121.396C247.758 121.396 248.243 121.396 248.727 121.396C249.212 121.881 249.697 122.608 250.182 122.365C250.667 122.365 250.909 120.427 250.667 119.7Z" fill="#D3DAE0"/>
<path d="M250.909 125.031C250.425 125.031 249.697 125.516 249.212 126.243H253.576C253.091 125.273 251.879 124.788 250.909 125.031Z" fill="#D3DAE0"/>
<path d="M241.212 110.735C240.97 110.25 240.485 109.765 240.243 109.523C239.515 109.038 238.788 108.796 238.061 109.765C237.818 110.25 237.576 110.977 237.818 111.461C237.818 111.704 237.818 111.946 237.818 112.188C238.061 113.158 238.788 113.642 239.758 113.4C240.485 113.158 241.94 111.946 241.94 111.219C241.697 110.977 241.455 110.735 241.212 110.735Z" fill="#D3DAE0"/>
</g>
<defs>
<clipPath id="clip0_701_47881">
<rect width="400" height="315" fill="white"/>
</clipPath>
</defs>
</svg>
