<svg xmlns="http://www.w3.org/2000/svg" width="20" height="20" viewBox="0 0 20 20">
  <path fill="#006BB4" d="M17.4055927,8.98583583 C18.1002398,8.47237939 19.0752457,9.02187322 18.9957571,9.88202068 C18.5094802,15.14403 14.0130021,19.119393 8.73106428,18.9570966 C3.44912644,18.7948001 -0.794800142,14.5508736 -0.957096559,9.26893572 C-1.11939298,3.98699788 2.85596998,-0.509480183 8.11797932,-0.995757096 C8.97812678,-1.07524571 9.52762061,-0.100239826 9.01416417,0.594407262 C7.24876011,2.98279444 7.4963841,6.30336714 9.59650848,8.40349152 C11.6966329,10.5036159 15.0172056,10.7512399 17.4055927,8.98583583 Z M8.18229492,9.81770508 C5.94089718,7.57630735 5.28208572,4.29228379 6.31563318,1.43765682 C3.1344437,2.58697821 0.933511277,5.67804766 1.04195998,9.20751135 C1.17179711,13.4330616 4.56693838,16.8282029 8.79248865,16.95804 C12.3219523,17.0664887 15.4130218,14.8655563 16.5623432,11.6843668 C13.7077162,12.7179143 10.4236927,12.0591028 8.18229492,9.81770508 Z" transform="translate(1 1)"/>
</svg>
