<svg xmlns="http://www.w3.org/2000/svg" width="24" height="24" viewBox="0 0 24 24">
  <path fill="#1BA9F5" d="M12,18 C8.6862915,18 6,15.3137085 6,12 C6,8.6862915 8.6862915,6 12,6 C15.3137085,6 18,8.6862915 18,12 C18,15.3137085 15.3137085,18 12,18 Z M12,16 C14.209139,16 16,14.209139 16,12 C16,9.790861 14.209139,8 12,8 C9.790861,8 8,9.790861 8,12 C8,14.209139 9.790861,16 12,16 Z M11,1 C11,0.44771525 11.4477153,0 12,0 C12.5522847,0 13,0.44771525 13,1 L13,3 C13,3.55228475 12.5522847,4 12,4 C11.4477153,4 11,3.55228475 11,3 L11,1 Z M11,21 C11,20.4477153 11.4477153,20 12,20 C12.5522847,20 13,20.4477153 13,21 L13,23 C13,23.5522847 12.5522847,24 12,24 C11.4477153,24 11,23.5522847 11,23 L11,21 Z M3.51289322,4.92710678 C3.12236893,4.53658249 3.12236893,3.90341751 3.51289322,3.51289322 C3.90341751,3.12236893 4.53658249,3.12236893 4.92710678,3.51289322 L6.34710678,4.93289322 C6.73763107,5.32341751 6.73763107,5.95658249 6.34710678,6.34710678 C5.95658249,6.73763107 5.32341751,6.73763107 4.93289322,6.34710678 L3.51289322,4.92710678 Z M17.6528932,19.0671068 C17.2623689,18.6765825 17.2623689,18.0434175 17.6528932,17.6528932 C18.0434175,17.2623689 18.6765825,17.2623689 19.0671068,17.6528932 L20.4871068,19.0728932 C20.8776311,19.4634175 20.8776311,20.0965825 20.4871068,20.4871068 C20.0965825,20.8776311 19.4634175,20.8776311 19.0728932,20.4871068 L17.6528932,19.0671068 Z M1,13 C0.44771525,13 0,12.5522847 0,12 C0,11.4477153 0.44771525,11 1,11 L3,11 C3.55228475,11 4,11.4477153 4,12 C4,12.5522847 3.55228475,13 3,13 L1,13 Z M21,13 C20.4477153,13 20,12.5522847 20,12 C20,11.4477153 20.4477153,11 21,11 L23,11 C23.5522847,11 24,11.4477153 24,12 C24,12.5522847 23.5522847,13 23,13 L21,13 Z M4.92710678,20.4871068 C4.53658249,20.8776311 3.90341751,20.8776311 3.51289322,20.4871068 C3.12236893,20.0965825 3.12236893,19.4634175 3.51289322,19.0728932 L4.93289322,17.6528932 C5.32341751,17.2623689 5.95658249,17.2623689 6.34710678,17.6528932 C6.73763107,18.0434175 6.73763107,18.6765825 6.34710678,19.0671068 L4.92710678,20.4871068 Z M19.0671068,6.34710678 C18.6765825,6.73763107 18.0434175,6.73763107 17.6528932,6.34710678 C17.2623689,5.95658249 17.2623689,5.32341751 17.6528932,4.93289322 L19.0728932,3.51289322 C19.4634175,3.12236893 20.0965825,3.12236893 20.4871068,3.51289322 C20.8776311,3.90341751 20.8776311,4.53658249 20.4871068,4.92710678 L19.0671068,6.34710678 Z"/>
</svg>
