<svg width="165" height="130" viewBox="0 0 165 130" fill="none" xmlns="http://www.w3.org/2000/svg">
<mask id="mask0_4_5838" style="mask-type:alpha" maskUnits="userSpaceOnUse" x="0" y="0" width="165" height="130">
<rect width="165" height="130" fill="#C4C4C4"/>
</mask>
<g mask="url(#mask0_4_5838)">
<path d="M124.6 4.00007C124.8 4.00007 125 3.90007 125.1 3.70007C125.1 3.60007 125 3.10007 124.8 3.10007C124.6 3.10007 124.4 3.40007 124.3 3.60007C124.3 3.70007 124.4 3.90007 124.6 4.00007Z" fill="#E6EBF2"/>
<path d="M128 12.3001C128.5 12.1001 128.9 12.0001 128.9 11.3001C128.9 10.8001 128.9 10.3001 128.9 9.80007C129.1 9.30007 128.9 8.90007 128.4 8.80007C127.9 8.70007 127.5 8.90007 127.3 9.50007C127.2 9.80007 127.1 10.1001 126.8 10.3001C126.4 10.7001 126.2 11.2001 126.4 11.7001C126.4 12.1001 127.5 12.5001 128 12.3001Z" fill="#E6EBF2"/>
<path d="M130.7 7.10008C131.5 7.20008 132.6 6.00008 132.5 5.00008C132.4 4.30008 131.5 4.30008 131.1 4.70008C130.7 5.00008 130.8 4.90008 130.3 4.70008C129.8 4.50008 129 4.60008 129 5.50008C129 6.40008 129.9 7.10008 130.7 7.10008Z" fill="#E6EBF2"/>
<path d="M132.6 16.5001C133 16.5001 133.1 16.2001 133.1 15.9001C133.2 15.5001 132.9 15.1001 132.5 15.2001C132.2 15.2001 132 15.5001 131.8 15.6001C131.7 16.1001 132.1 16.5001 132.6 16.5001Z" fill="#E6EBF2"/>
<path d="M133.7 12.8001C134.1 12.8001 134.2 12.5001 134.2 12.2001C134.3 11.8001 134 11.4001 133.6 11.5001C133.3 11.5001 133.1 11.8001 132.9 11.9001C132.9 12.4001 133.3 12.8001 133.7 12.8001Z" fill="#E6EBF2"/>
<path d="M121.1 13.4001C121.5 13.4001 122 12.9001 122 12.5001C122 12.1001 121.6 11.6001 121.2 11.6001C120.7 11.6001 120.4 11.9001 120.3 12.4001C120.3 12.9001 120.6 13.4001 121.1 13.4001Z" fill="#E6EBF2"/>
<path d="M119.9 3.20007C120.3 3.30007 120.5 2.80007 120.4 2.60007C120.4 2.30007 120.1 1.50007 119.8 1.40007C119.5 1.30007 119.1 2.10007 119.2 2.30007C119.3 2.60007 119.5 3.10007 119.9 3.20007Z" fill="#E6EBF2"/>
<path d="M135.2 5.50008C135.3 5.50008 135.6 5.40008 135.6 5.20008C135.6 5.00008 135.4 4.80008 135.2 4.80008C135.1 4.80008 134.7 4.80008 134.7 5.10008C134.7 5.30008 135.1 5.50008 135.2 5.50008Z" fill="#E6EBF2"/>
<path d="M125.7 20.8001C125.8 20.1001 125.4 19.6001 125 19.3001C125 19.3001 124.9 19.3001 124.9 19.2001C125.4 19.1001 125.8 18.6001 125.9 17.9001C125.9 17.6001 125.9 17.4001 125.9 17.2001C126.1 17.3001 126.3 17.3001 126.5 17.2001C127 17.0001 127.1 16.1001 126.8 15.6001C126.5 15.2001 125.8 14.9001 125.3 15.0001C124.6 15.2001 124.5 15.9001 124.6 16.2001C123.8 16.2001 123.1 16.8001 123 17.4001C122.9 18.1001 123.2 18.7001 123.6 19.0001C123.3 19.1001 123 19.3001 122.8 19.7001C122.6 20.1001 122.5 20.5001 122.5 20.8001H125.7Z" fill="#E6EBF2"/>
<path d="M123.3 9.90007C123.6 9.90007 124.3 9.70008 124.4 9.30008C124.4 8.90008 123.9 8.70008 123.6 8.60008C123.3 8.50008 122.9 8.50008 122.8 9.00008C122.7 9.40008 123 9.90007 123.3 9.90007Z" fill="#E6EBF2"/>
<path d="M139.6 19.5001C139.9 19.7001 140.3 19.6001 140.9 19.3001C140.9 18.8001 141 18.2001 140.3 18.0001C140 17.9001 139.8 18.0001 139.6 18.1001C139.4 18.0001 139.2 18.1001 139.1 18.3001C138.9 18.6001 138.8 19.0001 139.1 19.3001C139.3 19.5001 139.5 19.5001 139.6 19.5001Z" fill="#E6EBF2"/>
<path d="M144.9 19.1001C144.8 19.7001 145 20.3001 145.5 20.6001C145.5 20.7001 145.6 20.8001 145.6 20.8001H147C147.4 20.7001 147.7 20.3001 147.8 19.9001C147.9 19.0001 147.2 17.9001 146.4 17.8001C145.7 17.8001 145 18.3001 144.9 19.1001Z" fill="#E6EBF2"/>
<path d="M149.3 8.40007C149.4 8.20007 149.3 7.80007 149.2 7.70007C149.1 7.60007 148.8 7.60007 148.6 7.80007C148.5 7.90007 148.5 8.20007 148.6 8.30007C148.7 8.50007 149.2 8.70007 149.3 8.40007Z" fill="#E6EBF2"/>
<path d="M145.1 14.0001C145.5 14.2001 146.3 14.1001 146.6 13.8001C146.9 13.5001 146.7 12.9001 146.3 12.6001C145.9 12.3001 145.4 12.4001 145.1 12.9001C144.8 13.4001 144.8 13.8001 145.1 14.0001Z" fill="#E6EBF2"/>
<path d="M150.1 15.8001C150.3 15.7001 150.4 15.4001 150.3 15.2001C150.3 15.1001 149.9 14.8001 149.6 14.8001C149.4 14.9001 149.3 15.5001 149.4 15.6001C149.5 15.8001 149.9 15.9001 150.1 15.8001Z" fill="#E6EBF2"/>
<path d="M149.1 17.0001C148.8 17.4001 149.1 18.3001 149.7 18.7001C150.1 19.0001 150.8 18.8001 151 18.4001C151.3 17.9001 151.3 17.1001 150.9 16.9001C150.4 16.6001 149.4 16.6001 149.1 17.0001Z" fill="#E6EBF2"/>
<path d="M119.4 10.2001C119.8 10.3001 120.4 9.90007 120.4 9.50007C120.5 9.10007 120.2 8.60007 119.7 8.50007C119.2 8.40007 118.8 8.70007 118.7 9.20007C118.6 9.70007 118.9 10.1001 119.4 10.2001Z" fill="#E6EBF2"/>
<path d="M154.3 12.3001C154.6 12.5001 155 12.6001 155.3 12.3001C155.6 12.0001 155.3 11.2001 155 11.1001C154.7 11.0001 154.4 11.3001 154.2 11.5001C154 11.6001 153.9 12.0001 154.3 12.3001Z" fill="#E6EBF2"/>
<path d="M142.6 11.6001C142.6 11.6001 142.7 11.5001 142.7 11.4001C143 11.7001 143.4 12.0001 143.8 12.0001C144.1 12.0001 144.5 11.9001 144.8 11.7001C145.2 11.4001 145.5 11.0001 145.6 10.6001C145.7 9.70007 145.1 8.80007 144.4 8.70007C143.7 8.60007 142.5 9.50007 142.4 10.2001C142.4 10.4001 142.4 10.7001 142.5 10.9001C142.3 10.9001 142.2 11.0001 142.1 11.1001C142 11.2001 142.1 11.5001 142.1 11.6001C142.3 11.6001 142.5 11.7001 142.6 11.6001Z" fill="#E6EBF2"/>
<path d="M137 12.2001C137.1 12.2001 137.6 12.1001 137.6 11.9001C137.6 11.7001 137.3 11.4001 137.1 11.4001C136.9 11.4001 136.6 11.5001 136.6 11.7001C136.6 11.9001 136.8 12.2001 137 12.2001Z" fill="#E6EBF2"/>
<path d="M135.5 18.0001C135.4 18.5001 136 19.5001 136.4 19.5001C137 19.6001 137.6 19.2001 137.7 18.4001C137.8 17.9001 137.3 17.4001 136.6 17.3001C136 17.2001 135.5 17.5001 135.5 18.0001Z" fill="#E6EBF2"/>
<path d="M137.7 14.4001C138 14.0001 137.9 13.5001 137.6 13.2001C137.2 12.9001 136.8 12.9001 136.5 13.3001C136.2 13.7001 136.2 14.2001 136.6 14.5001C136.9 14.7001 137.4 14.7001 137.7 14.4001Z" fill="#E6EBF2"/>
<path d="M94.1001 14.1001C94.3001 15.0001 95.1001 15.6001 96.0001 15.4001C96.1001 15.4001 96.2001 15.3001 96.3001 15.3001C96.4001 15.7001 96.6001 16.0001 97.0001 16.0001C97.4001 16.0001 97.9001 15.7001 98.0001 15.3001C98.1001 14.8001 97.6001 14.3001 97.1001 14.3001C97.1001 14.2001 97.1001 14.1001 97.1001 14.0001C97.0001 13.3001 96.3001 12.7001 95.7001 12.5001C95.7001 12.1001 95.1001 11.6001 94.9001 11.6001C94.6001 11.7001 94.5001 12.0001 94.4001 12.3001C94.3001 12.5001 94.4001 12.7001 94.6001 12.9001C94.1001 13.2001 94.0001 13.6001 94.1001 14.1001Z" fill="#E6EBF2"/>
<path d="M116.8 15.2001C116.5 15.6001 116.4 16.0001 116.8 16.4001C116.9 16.5001 117.4 16.6001 117.5 16.4001C117.7 16.2001 117.9 15.8001 117.8 15.6001C117.6 15.1001 117.2 15.2001 116.8 15.2001Z" fill="#E6EBF2"/>
<path d="M98.0001 9.30008C98.1001 9.20008 98.1001 8.80008 98.0001 8.60008C97.9001 8.50008 97.4001 8.30008 97.2001 8.50008C97.0001 8.60008 97.2001 9.20008 97.3001 9.30008C97.4001 9.50008 97.8001 9.50008 98.0001 9.30008Z" fill="#E6EBF2"/>
<path d="M100.2 15.4001C100.9 15.5001 101.7 14.8001 101.8 14.1001C101.9 13.6001 101.4 13.1001 100.8 13.1001C100 13.0001 99.5001 13.4001 99.4001 14.1001C99.4001 14.7001 99.8001 15.4001 100.2 15.4001Z" fill="#E6EBF2"/>
<path d="M101.5 11.2001C102 11.3001 102.4 11.0001 102.5 10.5001C102.6 10.0001 102.4 9.70007 101.9 9.60007C101.4 9.50007 101 9.70007 100.9 10.2001C100.8 10.6001 101.1 11.1001 101.5 11.2001Z" fill="#E6EBF2"/>
<path d="M87.9001 12.5001C88.1001 12.5001 88.5001 12.5001 88.5001 12.2001C88.5001 11.9001 88.2001 11.7001 88.0001 11.7001C87.9001 11.7001 87.6001 11.9001 87.6001 12.0001C87.6001 12.2001 87.8001 12.5001 87.9001 12.5001Z" fill="#E6EBF2"/>
<path d="M92.6001 8.30008C93.0001 8.40008 93.4001 7.80008 93.5001 7.40008C93.6001 7.20008 93.3001 6.20008 92.8001 6.10008C92.3001 6.00008 91.9001 7.00008 91.9001 7.40008C91.8001 7.60008 92.1001 8.20008 92.6001 8.30008Z" fill="#E6EBF2"/>
<path d="M103.7 17.0001C103.9 16.9001 104.5 16.7001 104.4 16.2001C104.3 15.7001 103.7 15.8001 103.5 15.9001C103.3 16.0001 103.1 16.3001 103 16.5001C102.9 16.8001 103.3 17.1001 103.7 17.0001Z" fill="#E6EBF2"/>
<path d="M90.4001 15.5001C90.2001 15.0001 90.2001 14.5001 89.4001 14.5001C88.9001 14.5001 88.6001 14.8001 88.6001 15.3001C88.6001 15.5001 88.7001 15.9001 88.9001 16.0001C89.4001 16.4001 89.8001 16.2001 90.4001 15.5001Z" fill="#E6EBF2"/>
<path d="M90.8001 7.60008C91.6001 7.40008 92.2001 6.40008 92.1001 5.70008C91.9001 4.80008 91.1001 4.10008 90.3001 4.30008C89.6001 4.50008 88.7001 5.70008 88.9001 6.40008C89.0001 7.30008 90.0001 7.80008 90.8001 7.60008Z" fill="#E6EBF2"/>
<path d="M98.6001 7.50008C99.0001 7.60008 99.4001 7.30008 99.5001 6.90008C99.6001 6.40008 99.2001 5.90008 98.8001 5.80008C98.4001 5.70008 97.9001 6.20008 97.8001 6.60008C97.8001 7.00008 98.2001 7.50008 98.6001 7.50008Z" fill="#E6EBF2"/>
<path d="M112.4 19.3001C112.2 19.7001 112.2 20.0001 112.5 20.3001C113 20.8001 113.4 20.5001 113.9 20.2001C114.1 20.4001 114.4 20.6001 114.6 20.8001H116.3C116.6 20.5001 117 20.2001 117 19.8001C117.1 19.8001 117.3 19.8001 117.4 19.8001C118 19.8001 118.7 18.8001 118.6 18.2001C118.4 17.6001 117.4 16.9001 116.6 17.3001C116.1 17.5001 115.8 17.8001 115.7 18.2001C115.6 18.2001 115.6 18.2001 115.5 18.2001C114.6 18.0001 114.2 18.6001 113.9 19.3001C113.3 19.1001 112.8 18.7001 112.4 19.3001Z" fill="#E6EBF2"/>
<path d="M104.9 15.6001C105.5 15.7001 105.9 15.3001 106 14.5001C106.1 13.9001 105.8 13.4001 105.3 13.4001C104.8 13.3001 103.8 13.9001 103.7 14.4001C103.7 15.0001 104.1 15.4001 104.9 15.6001Z" fill="#E6EBF2"/>
<path d="M116.3 7.30008C117 7.40008 117.5 6.90008 117.6 6.20008C117.7 5.50008 117.3 4.90008 116.7 4.80008C116 4.80008 115.2 5.40008 115.1 6.10008C115 6.60008 115.7 7.20008 116.3 7.30008Z" fill="#E6EBF2"/>
<path d="M114.6 14.4001C114.9 14.6001 115.8 14.1001 115.7 13.6001C115.6 13.3001 115.2 12.9001 114.8 13.0001C114.4 13.1001 114.3 14.2001 114.6 14.4001Z" fill="#E6EBF2"/>
<path d="M110 10.1001C111.1 10.8001 110.4 11.4001 111 12.2001C111.1 12.3001 111.3 12.4001 111.4 12.5001C112.3 12.9001 113.1 12.3001 113 11.3001C112.9 10.7001 112.8 10.1001 112.6 9.60008C112.4 9.00008 111.4 8.70008 110.8 8.80008C110.3 8.90008 109.6 9.40008 110 10.1001Z" fill="#E6EBF2"/>
<path d="M112.4 5.90007C112.5 5.90007 112.7 5.80007 112.7 5.70007C112.7 5.50007 112.5 5.50007 112.5 5.40007C112.4 5.40007 112.3 5.60007 112.3 5.60007C112.2 5.70007 112.3 5.80007 112.4 5.90007Z" fill="#E6EBF2"/>
<path d="M106.3 12.4001C106.1 12.7001 106.5 13.2001 106.9 13.2001C107.1 13.2001 107.4 12.9001 107.4 12.7001C107.4 12.5001 107.3 11.9001 107 11.8001C106.7 11.7001 106.4 12.2001 106.3 12.4001Z" fill="#E6EBF2"/>
<path d="M110 1.30007C110.2 1.30007 110.5 1.20007 110.6 1.00007C110.7 0.800074 110.7 0.400074 110.6 0.200074C110.2 -0.199926 109.6 7.42078e-05 109.4 0.300074C109.2 0.600074 109.4 1.20007 110 1.30007Z" fill="#E6EBF2"/>
<path d="M106 5.20008C106.6 5.30008 107 5.00008 107.1 4.50008C107.2 4.00008 106.8 3.60008 106.3 3.50008C105.8 3.40008 105.4 3.80008 105.3 4.30008C105.2 4.70008 105.5 5.10008 106 5.20008Z" fill="#E6EBF2"/>
<path d="M110.6 20.8001C110.4 20.5001 110.1 20.2001 109.8 20.2001C109.4 20.1001 109.1 20.4001 108.9 20.8001H110.6Z" fill="#E6EBF2"/>
<path d="M155.9 15.8001C156.2 15.4001 156.1 14.8001 155.7 14.5001C155.3 14.2001 154.9 14.3001 154.6 14.7001C154.2 15.1001 154.3 15.7001 154.7 16.0001C155 16.2001 155.7 16.1001 155.9 15.8001Z" fill="#E6EBF2"/>
<path d="M111.6 14.6001C111.1 14.5001 110.2 15.2001 110.2 15.8001C110.1 16.6001 110.5 17.2001 111.3 17.2001C112 17.2001 112.5 16.8001 112.6 16.1001C112.6 15.4001 112.2 14.6001 111.6 14.6001Z" fill="#E6EBF2"/>
<path d="M64.6001 18.1001C64.4001 17.8001 63.9001 17.7001 63.6001 17.8001C63.2001 18.1001 63.4001 19.1001 63.8001 19.2001C64.2001 19.3001 64.9001 18.5001 64.6001 18.1001Z" fill="#E6EBF2"/>
<path d="M95.0001 20.3001C95.3001 20.4001 95.8001 20.4001 96.2001 20.2001C96.7001 19.8001 96.3001 19.0001 96.1001 18.8001C95.9001 18.7001 95.4001 19.1001 95.1001 19.5001C95.0001 19.1001 94.7001 18.8001 94.3001 18.7001C93.7001 18.6001 92.9001 19.2001 92.8001 19.7001C92.8001 20.1001 93.2001 20.5001 93.8001 20.7001H94.6001C94.7001 20.7001 94.9001 20.5001 95.0001 20.3001Z" fill="#E6EBF2"/>
<path d="M129.2 17.8001C129.3 17.4001 129 17.0001 128.6 16.9001C128.1 16.8001 127.7 17.1001 127.6 17.6001C127.5 18.1001 127.8 18.6001 128.3 18.7001C128.7 18.6001 129.1 18.3001 129.2 17.8001Z" fill="#E6EBF2"/>
<path d="M156 6.70007C156.2 6.50007 156.4 5.60007 156.1 5.30007C155.8 5.00007 154.9 5.60007 154.7 5.90007C154.5 6.10007 154.5 6.70007 154.8 7.00007C155.1 7.30007 155.7 7.00007 156 6.70007Z" fill="#E6EBF2"/>
<path d="M87.7001 19.2001C87.9001 19.2001 88.1001 19.1001 88.3001 19.0001C88.2001 19.2001 88.2001 19.4001 88.2001 19.5001C88.3001 20.0001 88.7001 20.3001 89.1001 20.3001C89.6001 20.2001 89.9001 19.8001 89.9001 19.3001C89.8001 18.8001 89.3001 18.4001 88.9001 18.5001H88.8001C88.9001 18.4001 88.9001 18.3001 88.9001 18.2001C89.0001 17.8001 88.6001 17.3001 88.1001 17.3001C87.6001 17.3001 87.3001 17.6001 87.2001 18.1001C87.2001 18.8001 87.4001 19.2001 87.7001 19.2001Z" fill="#E6EBF2"/>
<path d="M144.5 15.5001C144.6 15.3001 144.5 15.0001 144.4 14.9001C144.2 14.8001 143.9 14.6001 143.8 14.8001C143.7 15.0001 143.7 15.3001 143.8 15.4001C144 15.5001 144.4 15.7001 144.5 15.5001Z" fill="#E6EBF2"/>
<path d="M129.6 19.9001C129.1 19.9001 128.5 20.3001 128.2 20.8001H130.3C130.2 20.3001 129.9 19.9001 129.6 19.9001Z" fill="#E6EBF2"/>
<path d="M132.3 14.6001C132.4 14.4001 132.5 14.0001 132.4 13.8001C132.3 13.6001 131.8 13.7001 131.6 13.8001C131.5 13.9001 131.3 14.6001 131.4 14.7001C131.5 14.8001 132.2 14.8001 132.3 14.6001Z" fill="#E6EBF2"/>
<path d="M99.4001 20.6001C99.6001 20.9001 100.8 20.7001 100.9 20.2001C100.9 20.0001 100.9 19.8001 100.7 19.6001C101.6 19.7001 102.3 19.4001 102.4 18.8001C102.5 18.3001 101.8 17.4001 101.2 17.4001C100.7 17.3001 100 18.0001 99.9001 18.5001C99.9001 18.8001 100 19.1001 100.2 19.3001C99.7001 19.3001 99.2001 20.3001 99.4001 20.6001Z" fill="#E6EBF2"/>
<path d="M17.8001 67.4001C17.2001 67.6001 16.6001 68.6001 17.0001 69.4001C17.1001 69.7001 17.3001 69.9001 17.5001 70.1001C17.7001 69.2001 17.9001 68.3001 18.2001 67.4001C18.1001 67.4001 18.0001 67.4001 17.8001 67.4001Z" fill="#E6EBF2"/>
<path d="M16.2001 69.3001C16.3001 69.1001 16.3001 68.7001 16.2001 68.6001C16.0001 68.4001 15.6001 68.2001 15.4001 68.3001C14.9001 68.4001 15.0001 68.9001 15.0001 69.3001C15.4001 69.6001 15.9001 69.7001 16.2001 69.3001Z" fill="#E6EBF2"/>
<path d="M16.0001 73.5001C15.3001 73.5001 14.6001 73.9001 14.5001 74.5001C14.5001 75.0001 15.2001 75.9001 15.7001 75.9001C16.0001 75.9001 16.3001 75.8001 16.5001 75.7001C16.6001 75.1001 16.7001 74.5001 16.7001 73.9001C16.6001 73.6001 16.3001 73.5001 16.0001 73.5001Z" fill="#E6EBF2"/>
<path d="M25.9001 49.7001C25.2001 49.5001 24.6001 49.7001 24.0001 49.9001C23.8001 50.0001 23.5001 50.0001 23.3001 50.0001C22.4001 49.8001 21.9001 50.1001 21.8001 51.0001C21.7001 50.9001 21.6001 50.9001 21.5001 50.9001C21.1001 50.9001 20.7001 51.4001 20.7001 51.9001C20.7001 52.5001 21.0001 53.0001 21.5001 53.1001C22.0001 53.1001 22.3001 52.7001 22.4001 52.2001C22.6001 52.3001 22.9001 52.3001 23.2001 52.3001C23.6001 52.3001 24.0001 52.2001 24.3001 52.5001C24.8001 51.6001 25.4001 50.7001 25.9001 49.8001C26.0001 49.7001 26.0001 49.7001 25.9001 49.7001Z" fill="#E6EBF2"/>
<path d="M13.4001 80.7001C13.3001 81.2001 14.0001 82.2001 14.5001 82.3001C15.2001 82.4001 15.6001 81.9001 15.7001 81.1001C15.8001 80.5001 15.3001 80.1001 14.5001 80.0001C13.9001 79.9001 13.5001 80.2001 13.4001 80.7001Z" fill="#E6EBF2"/>
<path d="M31.4001 41.8001C31.2001 41.8001 30.9001 42.2001 30.9001 42.4001C30.9001 42.5001 31.0001 42.7001 31.1001 42.8001C31.3001 42.5001 31.5001 42.3001 31.8001 42.0001C31.7001 42.0001 31.6001 41.8001 31.4001 41.8001Z" fill="#E6EBF2"/>
<path d="M45.7001 28.0001C45.8001 27.5001 45.4001 27.1001 44.9001 27.1001C44.4001 27.1001 44.1001 27.3001 44.0001 27.8001C44.0001 28.3001 44.4001 29.0001 44.7001 29.1001C45.1001 29.1001 45.6001 28.5001 45.7001 28.0001Z" fill="#E6EBF2"/>
<path d="M45.9001 29.9001C45.5001 30.0001 45.0001 30.5001 44.9001 30.9001C45.4001 30.6001 45.9001 30.2001 46.4001 29.9001C46.2001 29.9001 46.0001 29.8001 45.9001 29.9001Z" fill="#E6EBF2"/>
<path d="M61.6001 22.9001C62.3001 22.7001 62.6001 22.2001 62.5001 21.4001C62.3001 20.7001 61.7001 20.2001 61.2001 20.3001C60.7001 20.4001 60.1001 21.4001 60.2001 21.9001C60.3001 22.7001 60.9001 23.1001 61.6001 22.9001Z" fill="#E6EBF2"/>
<path d="M40.7001 33.7001C40.6001 33.5001 40.3001 33.4001 40.2001 33.4001C40.0001 33.5001 39.7001 33.6001 39.7001 33.8001C39.8001 34.0001 40.0001 34.2001 40.2001 34.2001H40.3001C40.4001 34.1001 40.6001 34.0001 40.7001 33.9001C40.7001 33.8001 40.7001 33.8001 40.7001 33.7001Z" fill="#E6EBF2"/>
<path d="M121.8 18.6001C121.9 18.1001 121.6 17.6001 121.2 17.6001C120.7 17.5001 120.2 17.9001 120.2 18.3001C120.1 18.8001 120.5 19.2001 120.9 19.3001C121.4 19.3001 121.7 19.1001 121.8 18.6001Z" fill="#E6EBF2"/>
<path d="M164.6 18.5001C164.8 18.6001 165.2 18.5001 165.3 18.3001C165.4 18.1001 165.6 17.6001 165.4 17.4001C165.2 17.2001 164.6 17.4001 164.4 17.6001C164.2 17.8001 164.3 18.4001 164.6 18.5001Z" fill="#E6EBF2"/>
<path d="M161.4 17.9001C161 18.4001 161.1 19.1001 161.7 19.6001C162.2 20.0001 162.8 19.8001 163.2 19.2001C163.6 18.7001 163.6 18.2001 163.2 17.9001C162.9 17.5001 161.7 17.6001 161.4 17.9001Z" fill="#E6EBF2"/>
<path d="M161 13.0001C160.7 13.3001 160.7 13.8001 161 14.1001C161.3 14.4001 161.9 14.4001 162.2 14.0001C162.6 13.6001 162.5 13.3001 162.2 12.9001C161.8 12.6001 161.3 12.6001 161 13.0001Z" fill="#E6EBF2"/>
<path d="M155.9 20.8001H158C158.1 20.3001 157.9 19.6001 157.5 19.3001C157.1 19.0001 156.2 19.2001 155.9 19.6001C155.7 19.9001 155.7 20.5001 155.9 20.8001Z" fill="#E6EBF2"/>
<path d="M159.9 16.8001C160.2 16.4001 160 15.8001 159.5 15.4001C158.9 14.9001 158.2 15.0001 157.8 15.6001C157.4 16.1001 157.4 16.9001 157.8 17.1001C158.3 17.5001 159.4 17.4001 159.9 16.8001Z" fill="#E6EBF2"/>
<path d="M161.5 9.40008C161.8 9.00008 161.8 8.40008 161.4 8.10008C161.1 7.80008 160.4 7.90008 160.2 8.30008C160 8.60008 160.1 9.30008 160.4 9.50008C160.7 9.80008 161.2 9.70008 161.5 9.40008Z" fill="#E6EBF2"/>
<path d="M106.8 17.2001C106.8 16.7001 106.6 16.4001 106.1 16.4001C105.7 16.4001 105.2 16.7001 105.1 17.2001C105 17.6001 105.5 18.1001 105.9 18.1001C106.4 18.0001 106.7 17.7001 106.8 17.2001Z" fill="#E6EBF2"/>
<path d="M104.4 20.8001H106.5C106.3 20.5001 106 20.3001 105.6 20.3001C105.2 20.2001 104.7 20.5001 104.4 20.8001Z" fill="#E6EBF2"/>
<path d="M91.1001 20.5001C90.9001 20.4001 90.4001 20.5001 90.2001 20.6001C90.1001 20.7001 90.1001 20.7001 90.0001 20.8001H91.4001C91.4001 20.7001 91.2001 20.6001 91.1001 20.5001Z" fill="#E6EBF2"/>
<path d="M161.4 20.8001H162.3C162 20.7001 161.6 20.7001 161.4 20.8001Z" fill="#E6EBF2"/>
<path d="M52.1001 26.4001C51.8001 26.5001 51.5001 26.8001 51.4001 27.2001C51.9001 27.0001 52.4001 26.7001 52.9001 26.5001C52.6001 26.4001 52.3001 26.4001 52.1001 26.4001Z" fill="#E6EBF2"/>
<path d="M18.2001 64.1001C17.7001 64.0001 17.3001 64.3001 17.2001 64.8001C17.1001 65.3001 17.5001 65.8001 17.9001 65.8001C18.4001 65.8001 18.8001 65.5001 18.9001 65.0001C18.9001 64.6001 18.7001 64.2001 18.2001 64.1001Z" fill="#E6EBF2"/>
<path d="M32.6001 40.0001C32.4001 39.9001 31.6001 40.2001 31.6001 40.6001C31.6001 41.0001 31.9001 41.4001 32.3001 41.4001H32.4001C32.6001 41.2001 32.8001 41.0001 33.0001 40.8001C33.0001 40.8001 33.0001 40.8001 33.0001 40.7001C33.0001 40.4001 32.8001 40.1001 32.6001 40.0001Z" fill="#E6EBF2"/>
<path d="M23.2001 45.7001C23.0001 45.9001 23.0001 46.4001 23.1001 46.6001C23.4001 47.2001 24.3001 47.2001 24.6001 46.8001C25.0001 46.4001 24.9001 45.7001 24.2001 45.4001C23.9001 45.3001 23.4001 45.5001 23.2001 45.7001Z" fill="#E6EBF2"/>
<path d="M14.3001 36.6001C14.4001 36.5001 14.5001 36.1001 14.4001 36.0001C14.3001 35.8001 14.0001 35.7001 13.8001 35.8001C13.7001 35.8001 13.4001 36.3001 13.5001 36.5001C13.6001 36.7001 14.1001 36.7001 14.3001 36.6001Z" fill="#E6EBF2"/>
<path d="M14.8001 54.3001C15.4001 54.3001 15.7001 53.9001 15.7001 53.5001C15.7001 53.1001 15.4001 53.0001 15.1001 53.0001C14.7001 53.0001 14.3001 53.2001 14.4001 53.6001C14.5001 53.8001 14.7001 54.1001 14.8001 54.3001Z" fill="#E6EBF2"/>
<path d="M14.5001 60.7001C14.8001 61.4001 15.5001 61.4001 15.7001 61.4001C15.7001 62.2001 16.3001 62.9001 17.0001 63.0001C17.7001 63.1001 18.3001 62.8001 18.6001 62.3001C18.7001 62.6001 18.9001 62.9001 19.3001 63.1001C19.4001 63.1001 19.5001 63.2001 19.6001 63.2001C20.1001 61.9001 20.5001 60.6001 21.1001 59.4001C20.8001 59.5001 20.5001 59.7001 20.4001 60.1001C20.4001 60.2001 20.4001 60.2001 20.4001 60.3001C19.7001 60.2001 19.2001 60.6001 18.9001 61.0001C18.9001 61.0001 18.9001 61.1001 18.8001 61.1001C18.6001 60.6001 18.2001 60.3001 17.4001 60.2001C17.1001 60.2001 16.9001 60.2001 16.7001 60.2001C16.8001 60.0001 16.8001 59.8001 16.6001 59.6001C16.3001 59.1001 15.5001 59.0001 15.0001 59.4001C14.6001 59.5001 14.3001 60.2001 14.5001 60.7001Z" fill="#E6EBF2"/>
<path d="M10.7001 52.5001C10.8001 52.8001 11.0001 53.0001 11.1001 53.2001C11.7001 53.2001 12.0001 52.8001 12.0001 52.4001C12.0001 52.0001 11.7001 51.9001 11.4001 51.9001C11.0001 51.8001 10.6001 52.1001 10.7001 52.5001Z" fill="#E6EBF2"/>
<path d="M16.9001 58.4001C17.4001 58.5001 17.9001 58.1001 18.0001 57.6001C18.0001 57.2001 17.7001 56.8001 17.1001 56.7001C16.7001 56.7001 16.3001 56.9001 16.2001 57.4001C16.1001 58.0001 16.4001 58.3001 16.9001 58.4001Z" fill="#E6EBF2"/>
<path d="M8.9001 67.5001C9.4001 67.6001 9.8001 67.2001 9.9001 66.8001C9.9001 66.4001 9.6001 65.9001 9.2001 65.8001C8.8001 65.7001 8.3001 66.1001 8.3001 66.6001C8.1001 67.1001 8.4001 67.5001 8.9001 67.5001Z" fill="#E6EBF2"/>
<path d="M87.1001 20.8001H88.0001C88.0001 20.6001 87.7001 20.4001 87.6001 20.4001C87.4001 20.4001 87.0001 20.4001 87.0001 20.6001C87.0001 20.6001 87.1001 20.7001 87.1001 20.8001Z" fill="#E6EBF2"/>
<path d="M9.40009 62.9001C9.40009 62.6001 9.20009 61.9001 8.80009 61.9001C8.40009 61.9001 8.20009 62.4001 8.10009 62.7001C8.00009 63.0001 8.10009 63.4001 8.50009 63.5001C8.90009 63.5001 9.50009 63.3001 9.40009 62.9001Z" fill="#E6EBF2"/>
<path d="M11.2001 65.0001C11.2001 65.5001 11.5001 65.8001 12.0001 65.9001C12.5001 65.9001 13.0001 65.6001 13.0001 65.1001C13.0001 64.7001 12.5001 64.2001 12.0001 64.2001C11.6001 64.1001 11.2001 64.5001 11.2001 65.0001Z" fill="#E6EBF2"/>
<path d="M17.1001 50.5001C17.6001 50.5001 18.5001 50.0001 18.6001 49.6001C18.7001 49.0001 18.2001 48.4001 17.5001 48.3001C17.0001 48.2001 16.5001 48.7001 16.4001 49.5001C16.3001 50.0001 16.6001 50.5001 17.1001 50.5001Z" fill="#E6EBF2"/>
<path d="M12.8001 71.3001C12.9001 71.7001 14.0001 71.8001 14.2001 71.5001C14.4001 71.2001 13.8001 70.3001 13.4001 70.4001C13.0001 70.5001 12.7001 71.0001 12.8001 71.3001Z" fill="#E6EBF2"/>
<path d="M28.3001 44.8001C28.7001 44.8001 29.0001 44.7001 29.1001 44.3001C29.3001 43.3001 29.4001 42.4001 29.0001 41.5001C28.9001 41.3001 28.8001 41.2001 28.7001 41.1001C27.9001 40.5001 27.0001 40.8001 26.8001 41.8001C26.7001 42.4001 26.7001 43.0001 26.7001 43.6001C26.8001 44.2001 27.6001 44.8001 28.3001 44.8001Z" fill="#E6EBF2"/>
<path d="M23.8001 42.1001C24.2001 42.2001 24.5001 41.4001 24.3001 40.8001C24.1001 40.2001 23.2001 40.3001 23.0001 40.5001C22.7001 40.7001 23.4001 42.1001 23.8001 42.1001Z" fill="#E6EBF2"/>
<path d="M25.6001 37.8001C26.0001 37.7001 26.1001 36.5001 25.6001 36.3001C25.2001 36.1001 24.7001 36.3001 24.5001 36.7001C24.5001 37.1001 25.3001 38.0001 25.6001 37.8001Z" fill="#E6EBF2"/>
<path d="M30.9001 33.1001C31.1001 32.8001 30.9001 31.8001 30.5001 31.8001C29.9001 31.7001 29.4001 31.8001 29.5001 32.6001C29.5001 33.3001 30.6001 33.4001 30.9001 33.1001Z" fill="#E6EBF2"/>
<path d="M27.5001 39.8001C27.6001 39.7001 27.6001 39.4001 27.5001 39.2001C27.4001 39.1001 27.0001 39.2001 26.9001 39.3001C26.8001 39.4001 26.7001 39.8001 26.9001 40.0001C27.1001 40.1001 27.5001 39.9001 27.5001 39.8001Z" fill="#E6EBF2"/>
<path d="M21.5001 48.2001C22.0001 48.3001 22.5001 48.0001 22.5001 47.5001C22.6001 47.0001 22.2001 46.6001 21.8001 46.5001C21.3001 46.4001 20.8001 46.8001 20.7001 47.3001C20.6001 47.7001 21.0001 48.1001 21.5001 48.2001Z" fill="#E6EBF2"/>
<path d="M19.2001 56.3001C19.2001 56.9001 19.9001 57.7001 20.6001 57.8001C21.2001 57.9001 21.6001 57.5001 21.7001 56.8001C21.8001 56.0001 21.4001 55.5001 20.6001 55.5001C19.9001 55.4001 19.3001 55.8001 19.2001 56.3001Z" fill="#E6EBF2"/>
<path d="M17.9001 41.1001C18.8001 41.2001 19.6001 40.6001 19.7001 39.7001C19.8001 38.9001 19.3001 38.3001 18.6001 38.2001C17.7001 38.1001 16.6001 38.9001 16.6001 39.6001C16.6001 40.3001 17.1001 41.0001 17.9001 41.1001Z" fill="#E6EBF2"/>
<path d="M17.0001 45.6001C16.9001 46.0001 17.1001 46.5001 17.5001 46.6001C17.7001 46.7001 18.1001 46.6001 18.3001 46.5001C18.7001 46.2001 18.7001 45.8001 18.2001 45.0001C17.7001 45.0001 17.2001 44.9001 17.0001 45.6001Z" fill="#E6EBF2"/>
<path d="M22.6001 33.2001C23.0001 33.3001 23.3001 33.0001 23.3001 32.7001C23.3001 32.5001 23.2001 31.8001 22.7001 31.8001C22.2001 31.8001 22.1001 32.4001 22.1001 32.6001C22.2001 32.8001 22.4001 33.1001 22.6001 33.2001Z" fill="#E6EBF2"/>
<path d="M4.20009 51.7001C4.40009 51.7001 4.60009 51.3001 4.60009 51.2001C4.60009 51.1001 4.50009 50.8001 4.30009 50.8001C4.10009 50.8001 4.00009 51.0001 3.90009 51.2001C3.90009 51.2001 4.00009 51.6001 4.20009 51.7001Z" fill="#E6EBF2"/>
<path d="M13.0001 97.6001C12.7001 97.6001 12.5001 97.9001 12.5001 98.1001C12.5001 98.2001 12.7001 98.5001 12.8001 98.5001C12.9001 98.5001 13.2001 98.3001 13.2001 98.2001C13.3001 98.1001 13.3001 97.6001 13.0001 97.6001Z" fill="#E6EBF2"/>
<path d="M7.9001 92.8001C7.7001 92.7001 6.7001 93.1001 6.7001 93.5001C6.7001 94.0001 7.6001 94.4001 8.0001 94.4001C8.3001 94.4001 8.8001 94.1001 8.9001 93.7001C8.9001 93.3001 8.3001 92.9001 7.9001 92.8001Z" fill="#E6EBF2"/>
<path d="M10.8001 83.7001C10.3001 83.6001 10.0001 83.8001 9.90008 84.3001C9.80008 84.8001 10.1001 85.2001 10.6001 85.3001C11.0001 85.4001 11.5001 85.1001 11.5001 84.7001C11.6001 84.2001 11.3001 83.8001 10.8001 83.7001Z" fill="#E6EBF2"/>
<path d="M13.0001 90.5001C12.6001 90.4001 12.0001 91.1001 12.1001 91.4001C12.2001 91.7001 12.5001 91.8001 12.8001 91.9001C13.1001 92.0001 13.5001 91.8001 13.5001 91.4001C13.5001 91.0001 13.5001 90.6001 13.0001 90.5001Z" fill="#E6EBF2"/>
<path d="M12.2001 75.1001C12.3001 75.0001 12.4001 74.8001 12.5001 74.7001C12.8001 73.7001 12.3001 73.0001 11.3001 73.1001C10.7001 73.2001 10.1001 73.4001 9.60008 73.6001C9.00008 73.8001 8.70008 74.8001 8.90008 75.5001C9.00008 75.9001 9.60008 76.6001 10.2001 76.2001C10.8001 75.1001 11.4001 75.8001 12.2001 75.1001Z" fill="#E6EBF2"/>
<path d="M13.3001 79.3001C13.2001 79.1001 13.0001 78.8001 12.7001 78.8001C12.5001 78.8001 11.9001 78.9001 11.8001 79.2001C11.7001 79.5001 12.2001 79.8001 12.5001 79.9001C12.8001 80.0001 13.4001 79.6001 13.3001 79.3001Z" fill="#E6EBF2"/>
<path d="M15.8001 85.8001C15.8001 85.1001 15.1001 84.3001 14.4001 84.2001C13.9001 84.1001 13.5001 84.7001 13.4001 85.2001C13.4001 86.0001 13.8001 86.5001 14.5001 86.5001C15.1001 86.7001 15.7001 86.2001 15.8001 85.8001Z" fill="#E6EBF2"/>
<path d="M18.7001 101.7C18.7001 101.8 18.6001 101.8 18.7001 101.7C18.6001 101.8 18.7001 101.9 18.8001 102C18.7001 101.9 18.7001 101.8 18.7001 101.7Z" fill="#E6EBF2"/>
<path d="M18.1001 99.6001C18.0001 99.6001 18.0001 99.6001 18.1001 99.6001C17.9001 99.6001 17.8001 99.7001 17.8001 99.8001C17.8001 99.9001 18.0001 100 18.0001 100C18.1001 100 18.1001 100 18.2001 99.9001C18.1001 99.8001 18.1001 99.7001 18.1001 99.6001Z" fill="#E6EBF2"/>
<path d="M16.2001 88.5001C16.1001 88.3001 15.8001 88.1001 15.6001 88.1001C15.1001 88.1001 14.6001 88.5001 14.6001 89.0001C14.6001 89.4001 14.9001 89.8001 15.3001 89.8001C15.7001 89.9001 16.1001 89.7001 16.2001 89.4001C16.3001 89.1001 16.3001 88.8001 16.2001 88.5001Z" fill="#E6EBF2"/>
<path d="M4.60008 79.4001C4.10008 79.4001 3.70008 79.7001 3.60008 80.3001C3.50008 80.8001 3.90008 81.2001 4.40008 81.3001C4.80008 81.3001 5.30008 80.9001 5.30008 80.5001C5.40008 79.8001 5.10008 79.4001 4.60008 79.4001Z" fill="#E6EBF2"/>
<path d="M2.20009 66.1001C1.90009 66.2001 1.10009 66.4001 1.00009 66.7001C1.00009 67.0001 1.80009 67.3001 1.90009 67.3001C2.20009 67.1001 2.70009 67.0001 2.80009 66.6001C2.90009 66.2001 2.40009 66.0001 2.20009 66.1001Z" fill="#E6EBF2"/>
<path d="M1.00009 76.0001C0.800095 75.9001 0.400095 75.9001 0.200095 76.0001C-0.199905 76.4001 0.100095 77.0001 0.300095 77.2001C0.500095 77.4001 1.20009 77.1001 1.30009 76.6001C1.30009 76.4001 1.20009 76.0001 1.00009 76.0001Z" fill="#E6EBF2"/>
<path d="M4.00009 56.2001C3.90009 56.7001 4.00009 57.5001 4.90009 57.5001C5.80009 57.5001 6.30009 56.5001 6.40009 55.7001C6.40009 54.9001 5.20009 53.8001 4.20009 54.0001C3.60009 54.1001 3.60009 55.0001 4.00009 55.4001C4.40009 55.8001 4.20009 55.7001 4.00009 56.2001Z" fill="#E6EBF2"/>
<path d="M31.3001 39.1001C31.6001 39.0001 32.0001 38.8001 32.1001 38.5001C32.3001 38.2001 31.8001 37.7001 31.4001 37.7001C31.1001 37.7001 30.9001 38.0001 30.8001 38.1001C30.7001 38.7001 31.0001 39.2001 31.3001 39.1001Z" fill="#E6EBF2"/>
<path d="M9.1001 43.8001C9.9001 43.9001 10.7001 43.1001 10.8001 42.3001C10.9001 41.5001 10.1001 40.6001 9.40009 40.5001C8.50009 40.4001 7.60009 41.1001 7.60009 41.8001C7.50009 42.6001 8.4001 43.7001 9.1001 43.8001Z" fill="#E6EBF2"/>
<path d="M10.5001 49.0001C10.5001 49.2001 10.6001 49.5001 10.8001 49.5001C11.0001 49.5001 11.2001 49.3001 11.2001 49.1001C11.2001 49.0001 11.1001 48.5001 10.9001 48.5001C10.7001 48.5001 10.5001 48.9001 10.5001 49.0001Z" fill="#E6EBF2"/>
<path d="M3.2001 61.4001C3.1001 61.4001 2.6001 61.5001 2.6001 61.7001C2.6001 61.9001 3.0001 62.1001 3.1001 62.2001C3.2001 62.2001 3.5001 62.1001 3.5001 61.9001C3.5001 61.7001 3.3001 61.4001 3.2001 61.4001Z" fill="#E6EBF2"/>
<path d="M5.50011 73.7001C5.30011 73.7001 5.30011 73.9001 5.30011 73.9001C5.30011 74.0001 5.50011 74.1001 5.50011 74.1001C5.60011 74.1001 5.70011 74.0001 5.70011 73.9001C5.80011 73.8001 5.70011 73.7001 5.50011 73.7001Z" fill="#E6EBF2"/>
<path d="M7.00009 70.0001C7.00009 69.3001 6.60009 68.8001 5.80009 68.7001C5.10009 68.6001 4.50009 69.0001 4.50009 69.6001C4.50009 70.3001 5.10009 71.1001 5.90009 71.2001C6.40009 71.3001 7.00009 70.7001 7.00009 70.0001Z" fill="#E6EBF2"/>
<path d="M7.9001 87.7001C7.9001 87.3001 7.7001 86.9001 7.2001 86.8001C6.7001 86.7001 6.2001 87.1001 6.1001 87.6001C6.1001 88.0001 6.5001 88.5001 6.9001 88.5001C7.4001 88.5001 7.9001 88.1001 7.9001 87.7001Z" fill="#E6EBF2"/>
<path d="M11.1001 59.9001C11.5001 59.7001 11.8001 58.7001 11.7001 58.2001C11.5001 57.8001 11.4001 57.3001 10.7001 57.4001C10.2001 57.5001 9.7001 57.5001 9.2001 57.5001C8.7001 57.3001 8.3001 57.6001 8.2001 58.0001C8.1001 58.5001 8.4001 58.9001 8.9001 59.1001C9.2001 59.2001 9.5001 59.3001 9.7001 59.5001C10.1001 59.9001 10.6001 60.1001 11.1001 59.9001Z" fill="#E6EBF2"/>
<path d="M69.9001 11.5001C69.9001 11.9001 70.4001 12.4001 70.7001 12.2001C71.0001 12.1001 71.6001 11.7001 71.5001 11.3001C71.4001 10.9001 70.8001 10.9001 70.5001 10.9001C70.3001 10.9001 69.9001 11.0001 69.9001 11.5001Z" fill="#E6EBF2"/>
<path d="M70.0001 6.20008C70.2001 6.20008 70.4001 5.90008 70.4001 5.80008C70.4001 5.70008 70.2001 5.30008 70.0001 5.30008C69.8001 5.30008 69.7001 5.80008 69.7001 5.90008C69.7001 6.00008 69.9001 6.20008 70.0001 6.20008Z" fill="#E6EBF2"/>
<path d="M75.9001 13.0001C76.3001 12.7001 76.7001 12.4001 76.4001 11.8001C76.2001 11.3001 76.1001 10.9001 75.9001 10.4001C75.9001 9.80008 75.6001 9.50008 75.1001 9.60008C74.6001 9.60008 74.3001 10.0001 74.2001 10.6001C74.2001 10.9001 74.2001 11.3001 74.0001 11.5001C73.7001 12.0001 73.7001 12.5001 74.0001 13.0001C74.4001 13.3001 75.5001 13.4001 75.9001 13.0001Z" fill="#E6EBF2"/>
<path d="M73.9001 20.8001C73.8001 20.9001 73.7001 21.0001 73.6001 21.1001C74.4001 21.0001 75.1001 21.0001 75.9001 20.9001C75.7001 20.8001 75.5001 20.7001 75.3001 20.6001H75.2001C75.6001 20.3001 75.8001 19.8001 75.7001 19.0001C75.7001 18.7001 75.6001 18.5001 75.5001 18.3001C75.7001 18.3001 75.9001 18.3001 76.1001 18.1001C76.5001 17.7001 76.3001 16.9001 75.9001 16.5001C75.5001 16.2001 74.7001 16.1001 74.3001 16.4001C73.7001 16.8001 73.9001 17.5001 74.0001 17.7001C73.3001 17.9001 72.7001 18.7001 72.9001 19.4001C73.0001 20.1001 73.4001 20.6001 73.9001 20.8001Z" fill="#E6EBF2"/>
<path d="M69.7001 16.2001C70.1001 16.1001 70.4001 15.5001 70.3001 15.0001C70.2001 14.6001 69.7001 14.3001 69.2001 14.4001C68.7001 14.5001 68.5001 14.9001 68.6001 15.5001C68.8001 16.0001 69.2001 16.4001 69.7001 16.2001Z" fill="#E6EBF2"/>
<path d="M70.4001 21.1001C70.4001 21.2001 70.5001 21.3001 70.5001 21.4001C71.0001 21.3001 71.5001 21.3001 72.0001 21.2001C72.0001 21.1001 72.0001 21.0001 72.0001 20.9001C71.9001 20.4001 71.6001 20.0001 71.1001 20.1001C70.7001 20.2001 70.3001 20.7001 70.4001 21.1001Z" fill="#E6EBF2"/>
<path d="M66.6001 21.3001C66.3001 21.6001 66.2001 21.8001 66.1001 22.1001C67.0001 21.9001 67.9001 21.7001 68.9001 21.6001V21.5001C68.4001 21.0001 67.2001 20.7001 66.6001 21.3001Z" fill="#E6EBF2"/>
<path d="M66.6001 20.5001C66.8001 20.6001 67.2001 20.5001 67.2001 20.3001C67.3001 20.0001 67.4001 19.6001 67.3001 19.4001C67.0001 19.0001 66.6001 19.2001 66.2001 19.3001C66.0001 19.9001 66.0001 20.3001 66.6001 20.5001Z" fill="#E6EBF2"/>
<path d="M65.3001 6.90008C65.7001 6.90008 65.7001 6.30008 65.6001 6.20008C65.5001 5.90008 65.0001 5.20008 64.7001 5.30008C64.4001 5.40008 64.3001 6.20008 64.4001 6.30008C64.6001 6.50008 64.9001 6.90008 65.3001 6.90008Z" fill="#E6EBF2"/>
<path d="M67.1001 13.7001C67.5001 13.6001 67.9001 13.1001 67.9001 12.7001C67.9001 12.3001 67.4001 11.9001 66.9001 12.0001C66.4001 12.1001 66.1001 12.5001 66.2001 12.9001C66.2001 13.5001 66.6001 13.8001 67.1001 13.7001Z" fill="#E6EBF2"/>
<path d="M77.2001 18.1001C77.3001 18.6001 77.8001 19.0001 78.2001 18.9001C78.6001 18.8001 78.9001 18.3001 78.8001 17.8001C78.7001 17.4001 78.3001 17.1001 77.9001 17.1001C77.4001 17.2001 77.1001 17.6001 77.2001 18.1001Z" fill="#E6EBF2"/>
<path d="M81.1001 14.4001C80.8001 14.5001 80.7001 14.8001 80.5001 15.0001C80.6001 15.5001 81.1001 15.8001 81.5001 15.6001C81.9001 15.5001 81.9001 15.2001 81.8001 14.9001C81.8001 14.4001 81.5001 14.2001 81.1001 14.4001Z" fill="#E6EBF2"/>
<path d="M86.6001 20.8001C86.4001 20.7001 86.1001 20.6001 85.7001 20.7001C85.7001 20.6001 85.7001 20.5001 85.7001 20.4001C85.6001 20.0001 85.0001 19.8001 84.5001 19.9001C84.0001 20.0001 83.6001 20.4001 83.6001 20.8001H86.6001Z" fill="#E6EBF2"/>
<path d="M83.9001 18.6001C84.1001 18.6001 84.3001 18.5001 84.4001 18.3001C84.4001 18.2001 84.3001 17.7001 84.1001 17.7001C84.0001 17.7001 83.7001 18.0001 83.6001 18.2001C83.6001 18.3001 83.8001 18.6001 83.9001 18.6001Z" fill="#E6EBF2"/>
<path d="M76.8001 7.30007C77.6001 7.10007 78.3001 5.60007 77.8001 4.80007C77.5001 4.20007 76.6001 4.50007 76.4001 4.90007C76.2001 5.30007 76.2001 5.20007 75.6001 5.20007C75.1001 5.20007 74.4001 5.50007 74.7001 6.40007C75.0001 7.20007 76.0001 7.40007 76.8001 7.30007Z" fill="#E6EBF2"/>
<path d="M84.4001 10.1001C84.5001 10.1001 85.0001 9.80008 84.9001 9.60008C84.9001 9.40008 84.4001 9.30008 84.3001 9.30008C84.1001 9.30008 83.9001 9.50008 83.9001 9.70008C84.0001 10.0001 84.3001 10.1001 84.4001 10.1001Z" fill="#E6EBF2"/>
<path d="M85.9001 17.2001C85.9001 17.3001 86.0001 17.4001 86.1001 17.4001C86.2001 17.4001 86.4001 17.3001 86.4001 17.2001V17.1001C86.9001 16.9001 87.2001 16.4001 87.1001 15.8001C87.0001 15.3001 86.4001 15.0001 85.7001 15.1001C85.1001 15.2001 84.8001 15.6001 84.9001 16.1001C84.9001 16.5001 85.5001 17.1001 85.9001 17.2001Z" fill="#E6EBF2"/>
<path d="M32.5001 34.2001C32.9001 34.3001 33.1001 33.8001 33.1001 33.6001C33.1001 33.4001 33.1001 33.0001 32.7001 33.0001C32.4001 33.0001 32.2001 33.2001 32.2001 33.4001C32.1001 33.6001 32.2001 34.1001 32.5001 34.2001Z" fill="#E6EBF2"/>
<path d="M63.2001 11.9001C63.9001 11.7001 64.3001 11.2001 64.1001 10.4001C63.9001 9.70008 63.4001 9.20008 62.9001 9.40008C62.2001 9.60008 61.7001 10.4001 61.8001 11.2001C61.8001 11.7001 62.6001 12.1001 63.2001 11.9001Z" fill="#E6EBF2"/>
<path d="M80.5001 11.0001C80.6001 11.5001 81.1001 11.8001 81.5001 11.6001C81.9001 11.5001 81.9001 11.2001 81.8001 10.9001C81.7001 10.5001 81.4001 10.2001 81.0001 10.4001C80.8001 10.6001 80.6001 10.9001 80.5001 11.0001Z" fill="#E6EBF2"/>
<path d="M80.6001 4.30007C80.7001 4.30007 80.9001 4.10007 80.9001 3.90007C80.9001 3.70007 80.6001 3.60007 80.4001 3.60007C80.3001 3.60007 80.0001 3.80007 80.0001 4.00007C80.1001 4.30007 80.5001 4.30007 80.6001 4.30007Z" fill="#E6EBF2"/>
<path d="M79.0001 20.8001H81.0001C80.9001 20.1001 80.3001 19.6001 79.8001 19.7001C79.4001 19.8001 79.0001 20.3001 78.8001 20.8001C78.9001 20.8001 78.9001 20.8001 79.0001 20.8001Z" fill="#E6EBF2"/>
<path d="M38.0001 25.9001C38.2001 25.9001 38.6001 25.7001 38.5001 25.4001C38.4001 25.2001 38.0001 25.0001 37.9001 25.1001C37.8001 25.1001 37.6001 25.4001 37.6001 25.5001C37.6001 25.7001 37.8001 26.0001 38.0001 25.9001Z" fill="#E6EBF2"/>
<path d="M39.4001 32.1001C39.3001 32.2001 39.3001 32.4001 39.3001 32.6001C39.3001 33.0001 39.4001 33.2001 39.5001 33.3001C39.9001 33.2001 40.6001 33.3001 40.7001 32.8001C40.8001 32.5001 40.5001 32.2001 40.3001 32.0001C40.6001 31.7001 40.8001 31.3001 40.7001 31.1001C40.6001 30.7001 40.1001 30.4001 39.6001 30.5001C39.1001 30.6001 38.9001 31.0001 39.0001 31.6001C39.2001 31.8001 39.3001 32.0001 39.4001 32.1001Z" fill="#E6EBF2"/>
<path d="M39.4001 34.1001C39.3001 34.0001 39.3001 33.9001 39.2001 33.8001L39.0001 33.9001C39.0001 34.0001 39.0001 34.2001 39.2001 34.2001C39.2001 34.3001 39.3001 34.2001 39.4001 34.1001Z" fill="#E6EBF2"/>
<path d="M41.0001 20.4001C41.4001 20.3001 41.6001 19.6001 41.6001 19.3001C41.6001 19.0001 41.0001 18.2001 40.6001 18.3001C40.2001 18.4001 40.1001 19.4001 40.1001 19.8001C40.2001 20.0001 40.6001 20.5001 41.0001 20.4001Z" fill="#E6EBF2"/>
<path d="M44.6001 24.2001C45.0001 24.1001 45.3001 23.9001 45.3001 23.4001C45.3001 23.0001 44.4001 22.6001 44.2001 22.8001C44.0001 23.0001 43.9001 23.3001 44.0001 23.6001C43.9001 24.1001 44.2001 24.3001 44.6001 24.2001Z" fill="#E6EBF2"/>
<path d="M59.1001 11.8001C59.2001 11.8001 59.3001 11.7001 59.3001 11.5001C59.3001 11.3001 59.1001 11.3001 59.0001 11.3001C58.9001 11.3001 58.8001 11.5001 58.9001 11.6001C58.9001 11.7001 59.0001 11.9001 59.1001 11.8001Z" fill="#E6EBF2"/>
<path d="M46.5001 17.8001C46.9001 17.7001 47.2001 17.3001 47.1001 16.9001C47.0001 16.4001 46.5001 16.0001 46.1001 16.1001C45.7001 16.2001 45.3001 16.7001 45.4001 17.1001C45.6001 17.6001 46.1001 17.9001 46.5001 17.8001Z" fill="#E6EBF2"/>
<path d="M34.7001 39.1001C34.9001 38.9001 35.2001 38.7001 35.4001 38.5001C35.4001 38.4001 35.4001 38.3001 35.4001 38.3001C35.3001 37.8001 34.9001 37.6001 34.4001 37.6001C33.9001 37.7001 33.7001 38.0001 33.7001 38.4001C33.8001 38.8001 34.2001 39.1001 34.7001 39.1001Z" fill="#E6EBF2"/>
<path d="M37.8001 31.1001C37.9001 31.1001 38.0001 31.0001 38.0001 30.8001C38.0001 30.6001 37.8001 30.6001 37.7001 30.6001C37.6001 30.6001 37.5001 30.8001 37.6001 30.9001C37.6001 31.0001 37.7001 31.2001 37.8001 31.1001Z" fill="#E6EBF2"/>
<path d="M36.1001 33.0001C36.3001 32.9001 36.5001 32.7001 36.5001 32.6001C36.5001 32.5001 36.2001 32.1001 36.1001 32.1001C36.0001 32.1001 35.8001 32.6001 35.8001 32.7001C35.7001 32.8001 36.0001 33.0001 36.1001 33.0001Z" fill="#E6EBF2"/>
<path d="M32.8001 28.2001C33.2001 28.2001 33.2001 27.8001 33.2001 27.7001C33.2001 27.6001 32.9001 27.3001 32.8001 27.3001C32.6001 27.3001 32.4001 27.5001 32.4001 27.7001C32.4001 27.8001 32.4001 28.2001 32.8001 28.2001Z" fill="#E6EBF2"/>
<path d="M55.3001 8.30007C55.5001 8.30007 55.8001 8.00007 55.8001 7.80007C55.8001 7.60007 55.7001 7.20007 55.5001 7.10007C55.0001 6.80007 54.5001 7.30007 54.4001 7.60007C54.4001 7.80007 54.8001 8.40007 55.3001 8.30007Z" fill="#E6EBF2"/>
<path d="M46.6001 25.6001C46.7001 26.2001 47.1001 26.5001 47.6001 26.4001C48.0001 26.3001 48.4001 25.8001 48.3001 25.4001C48.2001 24.9001 47.6001 24.6001 47.2001 24.7001C46.8001 24.7001 46.5001 25.1001 46.6001 25.6001Z" fill="#E6EBF2"/>
<path d="M55.3001 20.0001C55.3001 20.4001 55.8001 20.7001 56.1001 20.6001C56.3001 20.5001 56.5001 20.1001 56.4001 19.9001C56.4001 19.7001 56.1001 19.2001 55.8001 19.2001C55.6001 19.1001 55.4001 19.7001 55.3001 20.0001Z" fill="#E6EBF2"/>
<path d="M59.8001 18.3001C60.0001 18.4001 60.2001 18.4001 60.2001 18.4001C61.2001 18.5001 61.8001 17.7001 61.4001 16.8001C61.2001 16.3001 60.8001 15.7001 60.4001 15.3001C60.0001 14.8001 59.0001 14.8001 58.4001 15.1001C58.1001 15.3001 57.6001 16.0001 58.2001 16.6001C59.5001 17.0001 58.9001 17.8001 59.8001 18.3001Z" fill="#E6EBF2"/>
<path d="M55.7001 24.8001C55.7001 24.9001 55.8001 25.0001 55.9001 25.1001C56.4001 24.9001 56.8001 24.7001 57.3001 24.5001C57.3001 24.4001 57.3001 24.3001 57.3001 24.2001C57.2001 23.7001 56.8001 23.5001 56.4001 23.7001C56.0001 23.9001 55.6001 24.4001 55.7001 24.8001Z" fill="#E6EBF2"/>
<path d="M50.6001 24.8001C51.3001 24.6001 51.8001 23.7001 51.7001 23.0001C51.6001 22.5001 51.0001 22.2001 50.4001 22.4001C49.6001 22.6001 49.3001 23.1001 49.4001 23.8001C49.6001 24.4001 50.1001 24.9001 50.6001 24.8001Z" fill="#E6EBF2"/>
<path d="M50.4001 20.4001C50.9001 20.4001 51.2001 19.9001 51.2001 19.5001C51.2001 19.0001 50.9001 18.8001 50.4001 18.8001C49.9001 18.9001 49.6001 19.2001 49.6001 19.7001C49.6001 20.1001 50.0001 20.4001 50.4001 20.4001Z" fill="#E6EBF2"/>
<path d="M55.1001 23.4001C55.7001 23.3001 56.0001 22.7001 55.8001 22.0001C55.7001 21.4001 55.3001 21.1001 54.8001 21.1001C54.3001 21.2001 53.5001 22.1001 53.6001 22.6001C53.7001 23.2001 54.3001 23.6001 55.1001 23.4001Z" fill="#E6EBF2"/>
<path d="M52.8001 13.2001C53.4001 13.1001 53.7001 12.7001 53.6001 12.2001C53.5001 11.7001 53.0001 11.4001 52.5001 11.5001C52.0001 11.6001 51.7001 12.0001 51.8001 12.6001C51.8001 13.0001 52.3001 13.3001 52.8001 13.2001Z" fill="#E6EBF2"/>
<path d="M176.3 131.6H81.7001C55.3001 131.6 33.9001 110.2 33.9001 83.8001C33.9001 57.4001 55.3001 36.0001 81.7001 36.0001H176.3C202.7 36.0001 224.1 57.4001 224.1 83.8001C224.2 110.2 202.7 131.6 176.3 131.6Z" fill="#FEC514"/>
<path d="M60.5001 65.1001C60.6001 65.1001 60.7001 64.9001 60.6001 64.8001C60.5001 64.7001 60.4001 64.6001 60.3001 64.6001C60.2001 64.7001 60.2001 64.9001 60.2001 64.9001C60.2001 65.1001 60.4001 65.2001 60.5001 65.1001Z" fill="#F9B110"/>
<path d="M61.2001 48.4001C61.6001 47.4001 60.9001 46.2001 59.8001 45.8001C59.7001 45.6001 59.6001 45.5001 59.5001 45.4001C59.4001 45.4001 59.2001 45.4001 59.1001 45.5001C58.9001 45.4001 58.9001 45.2001 58.8001 45.0001C58.6001 44.5001 57.9001 44.4001 57.4001 44.6001C56.9001 44.9001 57.0001 45.2001 57.2001 45.6001C57.4001 45.9001 57.6001 46.2001 57.6001 46.5001C57.6001 47.2001 57.5001 47.9001 57.4001 48.7001C56.5001 49.0001 56.1001 49.2001 55.9001 49.6001C55.8001 49.5001 55.7001 49.4001 55.6001 49.3001C55.2001 49.1001 54.7001 49.3001 54.5001 49.8001C54.3001 50.2001 54.4001 50.5001 54.8001 50.7001C54.4001 50.7001 54.0001 50.8001 53.6001 51.2001C53.0001 51.8001 52.4001 52.5001 51.8001 53.0001C51.2001 53.4001 50.9001 54.3001 51.2001 54.6001C51.5001 54.9001 52.3001 54.8001 52.4001 54.6001C52.8001 54.1001 53.2001 54.4001 53.6001 54.4001C54.0001 54.4001 54.4001 54.2001 54.7001 54.0001C54.9001 53.9001 55.1001 53.6001 55.2001 53.4001C55.4001 53.2001 55.5001 53.0001 55.6001 52.7001C56.1001 52.0001 56.0001 51.4001 55.5001 51.0001C55.4001 50.9001 55.3001 50.9001 55.2001 50.9001C55.5001 50.9001 55.8001 50.7001 55.9001 50.5001C56.0001 50.7001 56.1001 50.9001 56.2001 51.1001C56.6001 51.8001 57.6001 52.0001 58.1001 51.3001C58.5001 50.8001 58.7001 50.2001 59.1001 49.4001C59.9001 49.5001 60.8001 49.3001 61.2001 48.4001Z" fill="#F9B110"/>
<path d="M45.2001 77.4001C44.7001 77.5001 44.4001 78.0001 44.5001 78.4001C44.6001 78.8001 45.3001 79.3001 45.6001 79.2001C46.0001 79.1001 46.5001 78.4001 46.3001 78.0001C46.2001 77.5001 45.7001 77.2001 45.2001 77.4001Z" fill="#F9B110"/>
<path d="M60.3001 52.3001C60.3001 52.1001 59.9001 51.9001 59.7001 51.8001C59.5001 51.8001 59.2001 51.9001 59.1001 52.1001C58.8001 52.6001 59.1001 53.0001 59.6001 53.2001C59.9001 53.0001 60.4001 52.8001 60.3001 52.3001Z" fill="#F9B110"/>
<path d="M45.1001 88.1001C44.7001 88.3001 44.5001 89.7001 44.9001 90.0001C45.3001 90.3001 46.2001 89.6001 46.2001 89.0001C46.1001 88.4001 45.5001 87.9001 45.1001 88.1001Z" fill="#F9B110"/>
<path d="M43.6001 87.1001C43.4001 87.2001 43.1001 87.3001 43.1001 87.6001C43.1001 87.9001 43.6001 87.9001 43.7001 87.8001C43.8001 87.7001 44.1001 87.6001 44.0001 87.3001C43.9001 87.1001 43.7001 87.1001 43.6001 87.1001Z" fill="#F9B110"/>
<path d="M34.3001 80.7001C34.4001 80.6001 34.6001 80.3001 34.4001 80.1001C34.3001 80.0001 34.1001 80.0001 34.0001 80.0001C34.0001 80.3001 34.0001 80.5001 33.9001 80.8001C34.1001 80.7001 34.2001 80.7001 34.3001 80.7001Z" fill="#F9B110"/>
<path d="M60.3001 57.3001C60.4001 56.8001 60.2001 56.5001 59.8001 56.3001C59.6001 56.2001 59.4001 56.2001 59.3001 56.3001C59.0001 56.6001 58.7001 56.9001 58.4001 57.2001C57.3001 57.1001 56.6001 57.4001 56.5001 58.1001C56.4001 58.7001 57.2001 59.6001 57.9001 59.7001C58.6001 59.8001 58.9001 59.5001 59.1001 58.0001C59.6001 57.9001 60.2001 58.0001 60.3001 57.3001Z" fill="#F9B110"/>
<path d="M42.8001 79.6001C42.2001 79.7001 41.9001 80.2001 42.1001 81.0001C42.2001 81.5001 42.6001 81.9001 43.0001 81.8001C43.5001 81.7001 44.3001 80.8001 44.2001 80.3001C44.1001 79.7001 43.6001 79.4001 42.8001 79.6001Z" fill="#F9B110"/>
<path d="M57.3001 65.5001C57.8001 65.3001 58.1001 64.8001 57.9001 64.4001C57.7001 64.0001 57.2001 63.7001 56.8001 63.9001C56.4001 64.1001 56.1001 64.7001 56.3001 65.1001C56.5001 65.5001 56.9001 65.7001 57.3001 65.5001Z" fill="#F9B110"/>
<path d="M71.7001 49.8001C71.8001 50.0001 72.8001 50.3001 73.3001 49.8001C73.6001 49.5001 73.6001 49.1001 73.4001 48.7001C73.1001 48.3001 72.7001 48.1001 72.3001 48.3001C72.2001 48.3001 72.1001 48.4001 72.0001 48.5001C71.9001 48.0001 71.5001 47.5001 70.9001 47.3001C70.3001 47.1001 69.8001 47.4001 69.5001 48.2001C69.3001 48.7001 69.7001 49.4001 70.1001 49.5001C70.5001 49.6001 71.2001 49.4001 71.7001 49.2001C71.6001 49.5001 71.6001 49.7001 71.7001 49.8001Z" fill="#F9B110"/>
<path d="M70.7001 56.8001C70.4001 57.0001 69.9001 57.5001 70.0001 57.8001C70.1001 58.1001 70.9001 58.1001 71.2001 58.1001C71.5001 58.1001 71.7001 57.5001 71.5001 57.2001C71.4001 56.8001 71.0001 56.6001 70.7001 56.8001Z" fill="#F9B110"/>
<path d="M62.9001 61.2001C62.7001 60.7001 62.4001 60.4001 61.9001 60.5001C61.3001 60.6001 60.9001 61.4001 61.0001 62.0001C61.1001 62.5001 61.7001 62.8001 62.2001 62.7001C62.8001 62.5001 63.1001 61.8001 62.9001 61.2001Z" fill="#F9B110"/>
<path d="M88.6001 35.9001H87.0001C86.9001 36.2001 86.9001 36.4001 86.7001 36.6001C86.2001 37.1001 85.7001 37.6001 85.1001 38.1001C83.5001 37.4001 83.0001 37.6001 82.7001 39.1001C82.5001 39.9001 83.1001 40.7001 84.0001 40.5001C84.6001 40.4001 85.2001 40.1001 86.0001 39.8001C86.6001 40.3001 87.4001 40.8001 88.2001 40.4001C89.2001 39.9001 89.5001 38.3001 88.7001 37.2001C88.4001 36.8001 88.5001 36.6001 88.6001 36.2001C88.7001 36.1001 88.7001 36.0001 88.6001 35.9001Z" fill="#F9B110"/>
<path d="M58.3001 68.5001C58.7001 68.4001 58.8001 68.1001 58.6001 67.7001C58.4001 67.4001 58.1001 67.1001 57.8001 67.3001C57.5001 67.5001 57.0001 68.0001 57.1001 68.3001C57.2001 68.7001 58.0001 68.6001 58.3001 68.5001Z" fill="#F9B110"/>
<path d="M81.7001 46.4001C82.1001 46.1001 82.2001 45.7001 82.0001 45.3001C82.0001 45.2001 81.8001 45.0001 81.7001 45.0001C81.3001 45.0001 80.9001 45.0001 80.4001 45.1001C79.7001 44.3001 78.9001 44.1001 78.4001 44.5001C77.9001 44.9001 77.9001 46.1001 78.4001 46.6001C78.9001 47.2001 79.3001 47.1001 80.4001 46.1001C80.8001 46.5001 81.1001 46.9001 81.7001 46.4001Z" fill="#F9B110"/>
<path d="M55.3001 75.7001C55.4001 75.9001 56.1001 76.1001 56.3001 76.1001C56.7001 76.1001 56.8001 75.7001 56.7001 75.2001C56.6001 74.7001 56.2001 74.7001 55.9001 74.8001C55.7001 75.0001 55.2001 75.5001 55.3001 75.7001Z" fill="#F9B110"/>
<path d="M61.7001 70.4001C61.5001 70.5001 61.4001 70.9001 61.5001 71.1001C61.6001 71.2001 61.8001 71.5001 62.0001 71.4001C62.2001 71.3001 62.3001 71.0001 62.2001 70.9001C62.2001 70.7001 61.9001 70.3001 61.7001 70.4001Z" fill="#F9B110"/>
<path d="M57.6001 53.7001C57.5001 53.2001 56.7001 52.8001 56.1001 52.9001C55.7001 53.0001 55.3001 53.6001 55.4001 54.0001C55.6001 54.8001 56.1001 55.3001 56.6001 55.2001L56.7001 55.3001C56.9001 55.4001 57.5001 55.4001 57.6001 55.2001C57.7001 55.1001 57.5001 54.8001 57.4001 54.6001C57.6001 54.4001 57.7001 54.1001 57.6001 53.7001Z" fill="#F9B110"/>
<path d="M37.8001 73.3001C38.0001 73.2001 38.1001 72.9001 38.1001 72.8001C38.1001 72.6001 37.8001 72.3001 37.6001 72.4001C37.4001 72.5001 37.4001 72.9001 37.4001 73.0001C37.4001 73.1001 37.6001 73.4001 37.8001 73.3001Z" fill="#F9B110"/>
<path d="M54.5001 44.9001C54.7001 45.4001 55.3001 45.7001 55.9001 45.4001C56.3001 45.2001 56.5001 44.7001 56.3001 44.2001C56.2001 43.9001 55.9001 43.7001 55.7001 43.6001C55.3001 43.9001 54.9001 44.1001 54.5001 44.4001C54.4001 44.5001 54.4001 44.7001 54.5001 44.9001Z" fill="#F9B110"/>
<path d="M51.4001 67.4001C51.4001 67.6001 51.9001 67.7001 52.0001 67.6001C52.1001 67.6001 52.3001 67.4001 52.3001 67.2001C52.3001 67.0001 52.0001 66.9001 51.8001 66.9001C51.7001 67.0001 51.3001 67.2001 51.4001 67.4001Z" fill="#F9B110"/>
<path d="M53.2001 62.9001C53.0001 63.0001 52.6001 63.5001 52.7001 63.7001C52.8001 63.9001 53.5001 64.0001 53.6001 63.9001C53.8001 63.7001 54.1001 63.2001 53.9001 63.1001C53.7001 63.0001 53.4001 62.8001 53.2001 62.9001Z" fill="#F9B110"/>
<path d="M49.8001 49.0001C50.3001 48.7001 50.9001 48.5001 51.1001 47.9001C51.3001 47.3001 51.4001 47.1001 51.2001 46.9001C50.4001 47.5001 49.7001 48.2001 49.0001 48.8001C49.3001 49.0001 49.6001 49.1001 49.8001 49.0001Z" fill="#F9B110"/>
<path d="M54.2001 58.6001C54.0001 58.3001 53.1001 57.9001 52.6001 58.0001C52.1001 58.1001 52.0001 58.6001 52.2001 59.2001C52.5001 59.9001 52.8001 60.2001 53.3001 60.0001C54.1001 59.7001 54.5001 59.1001 54.2001 58.6001Z" fill="#F9B110"/>
<path d="M40.8001 58.8001C40.6001 59.1001 40.4001 59.5001 40.2001 59.8001C40.7001 59.6001 40.9001 59.2001 40.8001 58.8001Z" fill="#F9B110"/>
<path d="M51.7001 55.4001C51.2001 55.5001 50.6001 56.1001 50.7001 56.5001C50.8001 56.8001 51.5001 57.2001 51.9001 57.1001C52.4001 57.0001 52.6001 56.6001 52.5001 56.1001C52.5001 55.6001 52.1001 55.3001 51.7001 55.4001Z" fill="#F9B110"/>
<path d="M45.2001 54.2001C45.2001 53.9001 45.2001 53.6001 45.1001 53.4001C45.1001 53.3001 45.0001 53.2001 45.0001 53.1001C44.6001 53.5001 44.3001 54.0001 43.9001 54.4001C43.9001 54.5001 44.0001 54.5001 44.0001 54.6001C44.4001 54.4001 44.8001 54.3001 45.2001 54.2001Z" fill="#F9B110"/>
<path d="M46.0001 53.8001C46.5001 53.8001 46.6001 53.0001 46.8001 52.7001C46.8001 52.6001 46.7001 52.5001 46.7001 52.5001C46.3001 52.2001 46.1001 52.2001 45.8001 52.3001C45.7001 52.3001 45.6001 52.4001 45.5001 52.4001C45.4001 52.5001 45.3001 52.6001 45.2001 52.8001C45.4001 53.2001 45.5001 53.9001 46.0001 53.8001Z" fill="#F9B110"/>
<path d="M62.8001 40.6001C62.7001 40.8001 62.6001 41.0001 62.7001 41.2001C62.8001 41.4001 62.9001 41.4001 63.0001 41.4001C63.0001 41.6001 62.9001 41.8001 62.8001 42.0001C62.3001 41.9001 61.9001 41.9001 61.6001 42.0001C61.6001 41.8001 61.4001 41.6001 61.2001 41.5001C60.8001 41.3001 60.5001 41.5001 60.2001 41.8001C60.0001 42.1001 60.5001 43.0001 60.8001 43.0001C60.9001 43.0001 60.9001 43.0001 61.0001 43.0001C61.0001 43.1001 61.0001 43.3001 61.0001 43.4001C61.0001 43.5001 61.0001 43.6001 61.0001 43.7001C61.1001 44.5001 61.6001 44.7001 62.3001 44.5001C62.9001 44.3001 63.5001 44.1001 63.5001 43.0001C63.6001 43.1001 63.8001 43.2001 63.8001 43.3001C63.6001 43.5001 63.4001 43.7001 63.3001 43.9001C63.1001 44.5001 63.2001 45.2001 63.7001 45.7001C63.3001 45.9001 63.2001 46.2001 63.3001 46.6001C63.4001 47.1001 63.7001 47.4001 64.1001 47.4001C64.8001 47.4001 65.2001 46.8001 65.1001 46.4001C65.1001 46.3001 65.1001 46.2001 65.0001 46.2001C65.5001 46.1001 66.0001 45.7001 66.3001 45.3001C66.6001 44.8001 66.4001 44.2001 66.0001 43.7001C66.1001 43.6001 66.2001 43.4001 66.2001 43.3001C66.3001 42.6001 66.3001 42.1001 66.2001 41.7001C66.3001 41.7001 66.4001 41.6001 66.4001 41.5001C66.5001 41.3001 66.6001 40.9001 66.5001 40.7001C66.2001 40.2001 65.7001 40.4001 65.3001 40.6001V40.7001C65.1001 40.6001 64.9001 40.5001 64.6001 40.4001C64.6001 40.4001 64.5001 40.4001 64.5001 40.3001C64.7001 40.4001 65.0001 40.4001 65.2001 40.4001C65.6001 40.4001 65.8001 40.1001 65.7001 39.7001C65.6001 39.3001 65.2001 39.0001 64.9001 39.1001C64.7001 39.2001 64.4001 39.4001 64.3001 39.7001C64.2001 39.5001 64.1001 39.4001 63.9001 39.3001C63.5001 39.4001 63.2001 39.6001 62.8001 39.7001C62.6001 40.0001 62.6001 40.3001 62.8001 40.6001Z" fill="#F9B110"/>
<path d="M74.0001 50.6001C74.5001 50.8001 75.0001 50.6001 75.2001 50.2001C75.4001 49.8001 75.1001 49.2001 74.7001 49.1001C74.3001 48.9001 73.7001 49.2001 73.5001 49.7001C73.4001 50.0001 73.6001 50.4001 74.0001 50.6001Z" fill="#F9B110"/>
<path d="M88.5001 48.6001C88.5001 48.3001 88.5001 47.6001 88.2001 47.5001C87.9001 47.4001 87.4001 48.0001 87.4001 48.3001C87.3001 48.5001 87.6001 48.8001 87.8001 48.9001C88.1001 49.1001 88.5001 49.0001 88.5001 48.6001Z" fill="#F9B110"/>
<path d="M69.1001 38.0001C69.7001 38.2001 70.6001 37.8001 71.1001 37.3001C71.1001 37.6001 71.2001 37.8001 71.4001 37.9001C71.8001 38.2001 70.8001 38.9001 71.3001 39.3001C71.8001 39.8001 71.5001 40.5001 72.1001 41.0001C72.2001 41.1001 72.3001 41.1001 72.4001 41.2001C72.3001 41.2001 72.2001 41.2001 72.1001 41.3001C71.3001 41.6001 71.0001 42.2001 71.3001 43.0001C71.3001 43.1001 71.4001 43.2001 71.4001 43.3001V43.4001C71.5001 44.1001 71.9001 44.2001 72.5001 44.3001C72.6001 44.2001 72.7001 44.1001 72.7001 44.0001C72.9001 44.0001 73.1001 44.0001 73.4001 43.9001C74.0001 43.6001 74.4001 42.6001 74.2001 42.0001C74.1001 41.7001 73.9001 41.5001 73.6001 41.3001C73.8001 41.2001 73.9001 41.1001 73.9001 40.9001C74.1001 40.2001 73.9001 39.6001 73.7001 38.9001C73.5001 38.4001 72.9001 38.4001 73.1001 37.9001C73.4001 37.8001 73.5001 37.5001 73.4001 37.2001C73.5001 37.0001 73.5001 36.7001 73.5001 36.5001C71.8001 36.8001 70.2001 37.1001 68.6001 37.6001C68.9001 37.8001 69.0001 37.9001 69.1001 38.0001Z" fill="#F9B110"/>
<path d="M77.3001 39.1001C77.9001 39.0001 78.0001 39.4001 78.3001 39.7001C78.6001 39.9001 79.0001 40.0001 79.4001 40.1001C79.6001 40.2001 79.9001 40.1001 80.2001 40.0001C80.5001 40.0001 80.7001 39.9001 81.0001 39.8001C81.8001 39.5001 82.2001 39.1001 82.1001 38.4001C82.1001 38.3001 82.0001 38.2001 82.0001 38.1001C82.0001 38.0001 82.0001 37.9001 82.0001 37.8001C81.9001 37.6001 81.4001 37.3001 81.2001 37.4001C81.0001 37.3001 80.8001 37.3001 80.6001 37.3001C80.4001 37.3001 80.2001 37.3001 80.1001 37.3001C80.1001 37.2001 80.1001 37.1001 80.1001 37.1001C80.0001 36.2001 79.6001 35.9001 78.7001 36.1001C78.0001 36.3001 77.3001 36.4001 76.7001 36.5001C76.6001 36.3001 76.6001 36.2001 76.5001 36.0001C76.1001 36.0001 75.6001 36.1001 75.2001 36.2001C75.3001 36.6001 75.6001 36.8001 76.1001 36.8001C76.1001 37.4001 76.3001 37.9001 76.6001 38.1001C76.4001 38.8001 77.1001 39.2001 77.3001 39.1001Z" fill="#F9B110"/>
<path d="M62.9001 48.1001C62.7001 48.4001 63.1001 48.6001 63.3001 48.7001C63.4001 48.8001 63.7001 48.6001 63.7001 48.5001C63.7001 48.3001 63.7001 48.1001 63.6001 48.0001C63.5001 47.9001 63.1001 47.8001 62.9001 48.1001Z" fill="#F9B110"/>
<path d="M66.5001 55.0001C66.8001 54.9001 67.0001 54.6001 66.8001 54.3001C66.6001 54.1001 66.2001 53.5001 65.9001 53.7001C65.6001 53.8001 65.7001 54.6001 65.8001 54.8001C65.9001 55.0001 66.3001 55.1001 66.5001 55.0001Z" fill="#F9B110"/>
<path d="M79.1001 50.4001C78.9001 50.8001 79.1001 51.4001 79.5001 51.7001C80.0001 52.0001 80.8001 51.6001 81.0001 51.1001C81.2001 50.6001 81.1001 50.1001 80.7001 49.9001C80.3001 49.6001 79.4001 49.9001 79.1001 50.4001Z" fill="#F9B110"/>
<path d="M72.6001 45.9001C72.4001 45.8001 71.8001 46.0001 71.7001 46.2001C71.6001 46.4001 72.1001 47.0001 72.2001 47.0001C72.5001 47.0001 73.0001 46.8001 73.0001 46.6001C73.0001 46.4001 72.8001 46.0001 72.6001 45.9001Z" fill="#F9B110"/>
<path d="M66.2001 57.8001C66.5001 58.1001 66.9001 57.9001 67.1001 57.4001C67.3001 57.0001 67.1001 56.7001 66.7001 56.6001C66.4001 56.5001 65.7001 56.6001 65.6001 56.8001C65.6001 57.0001 66.0001 57.6001 66.2001 57.8001Z" fill="#F9B110"/>
<path d="M141.3 37.8001C141.5 37.2001 141.1 36.7001 140.3 36.4001C139.8 36.3001 139.2 36.6001 139 37.1001C138.8 37.6001 139.3 38.8001 139.8 38.9001C140.4 39.1001 141.1 38.5001 141.3 37.8001Z" fill="#F9B110"/>
<path d="M141.8 49.6001C142 49.1001 141.8 48.4001 141.3 48.3001C140.8 48.2001 140 49.4001 140.2 49.8001C140.4 50.2001 141.6 50.1001 141.8 49.6001Z" fill="#F9B110"/>
<path d="M140.2 47.3001C140.4 47.3001 140.6 47.3001 140.7 47.0001C140.8 46.7001 140.6 46.6001 140.5 46.6001C140.3 46.6001 140 46.5001 139.9 46.8001C139.8 47.1001 140.1 47.3001 140.2 47.3001Z" fill="#F9B110"/>
<path d="M147.4 40.1001C147.5 39.7001 147.2 39.2001 146.8 39.1001C146.3 39.0001 145.8 39.2001 145.7 39.6001C145.6 40.0001 145.9 40.8001 146.2 40.9001C146.6 40.9001 147.3 40.5001 147.4 40.1001Z" fill="#F9B110"/>
<path d="M141.5 36.4001C141.4 36.4001 141.1 36.5001 141.1 36.6001C141.1 36.8001 141.3 37.0001 141.4 37.1001C141.5 37.1001 141.9 37.1001 141.9 36.9001C142 36.6001 141.7 36.4001 141.5 36.4001Z" fill="#F9B110"/>
<path d="M86.6001 45.6001C86.5001 45.5001 86.3001 45.3001 86.1001 45.3001C86.0001 45.3001 85.6001 45.5001 85.7001 45.8001C85.8001 46.1001 86.2001 46.0001 86.4001 46.0001C86.4001 45.9001 86.6001 45.6001 86.6001 45.6001Z" fill="#F9B110"/>
<path d="M147 43.7001C147.4 43.8001 147.7 43.6001 147.9 43.2001C148 42.9001 147.9 42.5001 147.5 42.4001C147.1 42.2001 146.7 42.3001 146.6 42.7001C146.4 43.1001 146.6 43.6001 147 43.7001Z" fill="#F9B110"/>
<path d="M129.1 48.1001C129.1 48.3001 129 48.5001 129.2 48.6001C129.5 48.7001 129.6 48.5001 129.6 48.4001C129.7 48.2001 129.7 47.8001 129.5 47.7001C129.3 47.7001 129.1 48.0001 129.1 48.1001Z" fill="#F9B110"/>
<path d="M136.7 50.2001C137.1 50.3001 137.4 50.1001 137.6 49.8001C138 49.2001 137.9 48.9001 137.3 48.3001C137.3 47.7001 137.3 47.2001 137.3 46.7001C137.2 46.2001 136.6 46.0001 136.3 46.4001C136 46.9001 135.5 47.3001 135.5 48.1001C135.7 48.3001 135.9 48.5001 136.1 48.7001C136 49.3001 136.2 50.1001 136.7 50.2001Z" fill="#F9B110"/>
<path d="M144.8 35.9001H144.4C144.2 36.0001 144.1 36.1001 144 36.3001C143.8 36.7001 143.6 37.1001 143.5 37.5001C143.4 37.9001 143.5 38.1001 143.9 38.2001C144 38.1001 144.2 38.1001 144.2 38.0001C144.3 37.9001 144.3 37.8001 144.4 37.7001C144.7 37.9001 145.2 37.9001 145.5 37.7001C145.9 37.4001 145.8 37.6001 146.3 37.8001C146.7 38.0001 147.4 38.0001 147.6 37.4001C147.7 37.4001 147.8 37.5001 147.8 37.5001C148.2 37.6001 148.5 37.4001 148.7 37.0001C148.8 36.6001 148.8 36.2001 148.6 35.9001H144.8Z" fill="#F9B110"/>
<path d="M132.5 37.4001C132.6 37.2001 132.6 37.0001 132.4 36.9001C132.2 36.8001 132 36.8001 131.9 37.0001C131.8 37.2001 131.8 37.4001 132.1 37.5001C132.3 37.7001 132.4 37.6001 132.5 37.4001Z" fill="#F9B110"/>
<path d="M163.9 38.7001C163.9 38.9001 164 39.0001 164.1 39.0001C164.2 39.0001 164.3 38.9001 164.3 38.8001C164.3 38.7001 164.3 38.6001 164.2 38.5001C164.1 38.5001 164 38.5001 163.9 38.7001Z" fill="#F9B110"/>
<path d="M152.9 42.6001C153 42.6001 153.2 42.7001 153.3 42.3001C153.4 41.9001 153 41.3001 152.5 41.2001C152 41.2001 151.5 41.7001 151.7 42.2001C151.9 42.5001 152.5 42.5001 152.9 42.6001Z" fill="#F9B110"/>
<path d="M151.9 39.1001C151.7 39.1001 151.5 39.2001 151.4 39.3001C151.3 39.4001 151.4 39.9001 151.6 39.9001C151.8 40.0001 152 39.6001 152.1 39.4001C152.2 39.4001 152.1 39.1001 151.9 39.1001Z" fill="#F9B110"/>
<path d="M155.9 40.9001C155.9 41.2001 156.1 42.1001 156.4 42.2001C156.7 42.3001 157.1 41.5001 157.1 41.4001C157 41.0001 156.9 40.5001 156.5 40.4001C156.1 40.2001 155.9 40.7001 155.9 40.9001Z" fill="#F9B110"/>
<path d="M159.1 37.6001C158.9 38.3001 159.3 39.0001 159.8 39.0001C160.5 39.1001 161.4 38.6001 161.6 37.9001C161.7 37.4001 161.2 36.8001 160.5 36.6001C159.8 36.6001 159.3 36.9001 159.1 37.6001Z" fill="#F9B110"/>
<path d="M130.8 43.7001C131.3 44.0001 131.7 44.0001 132.1 43.5001C132.5 43.0001 132.4 42.1001 131.8 41.7001C131.2 41.3001 130.9 41.5001 130.5 41.2001C130.1 40.9001 129.9 41.0001 129.4 41.3001C129 41.6001 128.4 42.0001 128.8 42.6001C129.2 43.2001 129.6 43.0001 129.8 42.8001C130 42.7001 130.4 42.7001 130.3 42.9001C130.2 43.1001 130.3 43.4001 130.8 43.7001Z" fill="#F9B110"/>
<path d="M101.9 51.1001C102.1 50.6001 101.8 49.9001 101.2 49.7001C100.6 49.5001 100.2 49.6001 100 50.1001C99.7001 50.8001 100 51.8001 100.5 52.0001C101 52.1001 101.7 51.7001 101.9 51.1001Z" fill="#F9B110"/>
<path d="M101.1 42.4001C100.3 42.1001 99.6001 42.4001 99.3001 43.1001C99.0001 43.9001 99.5001 45.0001 100.3 45.2001C100.9 45.4001 101.9 44.9001 102.2 44.3001C102.5 43.5001 102.1 42.7001 101.1 42.4001Z" fill="#F9B110"/>
<path d="M107.8 49.0001C107.9 48.9001 107.9 48.4001 107.7 48.3001C107.5 48.2001 107.2 48.5001 107.2 48.6001C107.1 48.8001 107.1 49.1001 107.3 49.2001C107.5 49.3001 107.8 49.2001 107.8 49.0001Z" fill="#F9B110"/>
<path d="M107.2 51.7001C106.9 51.6001 106.6 51.8001 106.6 52.1001C106.5 52.4001 106.8 52.6001 106.9 52.7001C107.1 52.7001 107.3 52.8001 107.5 52.5001C107.7 52.1001 107.6 51.8001 107.2 51.7001Z" fill="#F9B110"/>
<path d="M100.2 56.6001C100 57.0001 100.2 57.5001 100.6 57.7001C101 57.9001 101.5 57.8001 101.6 57.4001C101.7 57.0001 101.6 56.6001 101.2 56.3001C100.8 56.0001 100.4 56.2001 100.2 56.6001Z" fill="#F9B110"/>
<path d="M89.4001 44.2001C88.6001 43.9001 88.1001 44.0001 87.9001 44.6001C87.6001 45.2001 88.0001 46.1001 88.5001 46.3001C89.0001 46.5001 90.0001 46.1001 90.2001 45.6001C90.4001 45.2001 90.0001 44.5001 89.4001 44.2001Z" fill="#F9B110"/>
<path d="M87.2001 62.8001C87.5001 62.4001 88.0001 62.0001 87.7001 61.5001C87.5001 61.1001 87.1001 61.0001 86.6001 61.1001C86.2001 61.2001 86.0001 61.5001 86.1001 61.8001C86.1001 62.5001 86.6001 62.6001 87.2001 62.8001Z" fill="#F9B110"/>
<path d="M89.2001 58.4001C89.0001 58.6001 89.3001 58.9001 89.4001 58.9001C89.6001 58.9001 89.8001 58.9001 89.9001 58.8001C90.0001 58.8001 89.9001 58.4001 89.8001 58.4001C89.7001 58.3001 89.3001 58.1001 89.2001 58.4001Z" fill="#F9B110"/>
<path d="M90.1001 53.8001C90.2001 53.4001 90.1001 53.1001 89.7001 53.0001C89.4001 53.0001 88.6001 53.0001 88.5001 53.3001C88.4001 53.6001 89.0001 54.1001 89.2001 54.3001C89.5001 54.5001 90.0001 54.2001 90.1001 53.8001Z" fill="#F9B110"/>
<path d="M109.7 44.5001C110.1 43.8001 110.1 43.4001 109.6 43.0001C110.2 43.0001 110.8 42.4001 111.1 41.7001C111.3 41.0001 111 40.5001 110.2 40.2001C109.3 39.9001 108.5 40.4001 108.3 41.3001C108.2 41.7001 108.3 42.0001 108.5 42.4001C108.2 42.2001 107.9 42.0001 107.6 41.9001C108.2 40.7001 108.1 40.6001 107 40.4001C106.5 40.8001 106.5 41.3001 106.9 41.8001C105.9 43.1001 106.3 43.9001 108 44.1001C108 44.2001 108.1 44.3001 108.1 44.4001C108.2 44.9001 108.5 45.0001 108.9 45.1001C109.3 45.0001 109.5 44.8001 109.7 44.5001Z" fill="#F9B110"/>
<path d="M108.3 54.7001C108.1 55.0001 108.5 55.2001 108.7 55.3001C108.8 55.4001 109.1 55.2001 109.1 55.1001C109.1 54.9001 109.1 54.7001 109 54.6001C108.8 54.5001 108.5 54.4001 108.3 54.7001Z" fill="#F9B110"/>
<path d="M121.4 37.3001C121.5 38.2001 121.9 38.7001 122.4 39.0001C123 39.4001 123.7 38.7001 124.5 38.8001C126.3 39.0001 126.7 37.7001 126.6 36.5001C126.6 36.3001 126.5 36.0001 126.4 35.8001H121.7C121.5 36.3001 121.3 36.8001 121.4 37.3001Z" fill="#F9B110"/>
<path d="M115.6 40.0001C115.1 39.6001 114.6 39.8001 114.1 40.3001C114.3 40.8001 114.3 41.4001 114.9 41.4001C115.3 41.4001 115.7 41.2001 115.7 40.8001C115.9 40.5001 115.8 40.1001 115.6 40.0001Z" fill="#F9B110"/>
<path d="M126.5 45.0001C126.2 45.1001 126 45.7001 126.2 46.0001C126.4 46.4001 126.7 46.4001 127.5 45.9001C127.6 45.2001 126.8 44.9001 126.5 45.0001Z" fill="#F9B110"/>
<path d="M118.6 38.4001C118.7 37.8001 118.2 37.6001 117.7 37.3001C117.3 37.6001 116.7 37.9001 117 38.6001C117 38.7001 117.1 38.7001 117.1 38.8001C116.6 39.0001 116.1 39.5001 116 39.9001C115.9 40.3001 116.1 40.8001 116.6 40.9001C117.3 41.1001 118 40.9001 118.2 40.3001C118.3 39.9001 118.3 39.4001 118 39.1001C118.4 39.0001 118.5 38.7001 118.6 38.4001Z" fill="#F9B110"/>
<path d="M115.1 43.9001C114.5 43.7001 113.6 44.1001 113.4 44.6001C113.2 45.1001 113.6 45.9001 114.2 46.2001C114.8 46.4001 115.3 46.2001 115.6 45.4001C115.7 44.9001 115.5 44.1001 115.1 43.9001Z" fill="#F9B110"/>
<path d="M128.5 37.1001C128.7 36.7001 128.5 36.2001 127.9 36.0001C127.7 36.2001 127.4 36.3001 127.2 36.6001C127 36.9001 127.2 37.3001 127.6 37.4001C127.9 37.5001 128.3 37.5001 128.5 37.1001Z" fill="#F9B110"/>
<path d="M110.5 37.7001C110.9 37.8001 111.5 37.7001 111.8 37.4001C112 37.6001 112.3 37.9001 112.6 38.0001C113.3 38.3001 114.1 37.8001 114.4 37.0001C114.5 36.6001 114.6 36.2001 114.5 35.9001H109.5C109.3 36.7001 109.7 37.5001 110.5 37.7001Z" fill="#F9B110"/>
<path d="M35.7001 74.2001C36.2001 74.0001 36.5001 73.6001 36.3001 73.3001C36.1001 73.0001 35.6001 72.7001 35.2001 72.6001C35.1001 73.1001 35.0001 73.6001 34.9001 74.1001C35.0001 74.3001 35.3001 74.3001 35.7001 74.2001Z" fill="#F9B110"/>
<path d="M97.5001 39.2001C97.5001 39.0001 97.3001 38.7001 97.2001 38.7001C97.0001 38.7001 96.7001 38.6001 96.6001 38.8001C96.6001 39.0001 96.7001 39.3001 96.8001 39.3001C97.0001 39.4001 97.5001 39.4001 97.5001 39.2001Z" fill="#F9B110"/>
<path d="M95.9001 43.4001C95.5001 43.3001 94.9001 43.5001 94.8001 43.9001C94.7001 44.3001 95.0001 44.8001 95.4001 45.0001C95.8001 45.2001 96.4001 44.9001 96.5001 44.5001C96.6001 44.1001 96.4001 43.5001 95.9001 43.4001Z" fill="#F9B110"/>
<path d="M99.3001 41.2001C99.2001 41.5001 99.2001 42.0001 99.6001 42.0001C99.9001 42.0001 100.4 41.9001 100.4 41.7001C100.5 41.5001 100.3 41.1001 100.2 40.9001C99.7001 40.6001 99.5001 40.9001 99.3001 41.2001Z" fill="#F9B110"/>
<path d="M93.8001 54.7001C94.1001 54.9001 94.7001 54.7001 94.8001 54.3001C95.0001 53.9001 94.8001 53.3001 94.4001 53.1001C94.0001 53.0001 93.5001 53.2001 93.3001 53.5001C93.2001 53.8001 93.4001 54.5001 93.8001 54.7001Z" fill="#F9B110"/>
<path d="M93.0001 46.7001C93.4001 46.8001 93.8001 46.6001 94.0001 46.2001C94.1001 45.8001 93.8001 45.2001 93.2001 45.0001C93.0001 45.1001 92.6001 45.3001 92.4001 45.6001C92.2001 46.0001 92.5001 46.6001 93.0001 46.7001Z" fill="#F9B110"/>
<path d="M96.2001 60.3001C96.6001 60.2001 97.5001 60.2001 97.7001 59.5001C97.9001 58.8001 97.3001 58.8001 97.1001 58.6001C96.6001 58.0001 95.6001 57.8001 95.1001 58.3001C94.7001 58.8001 94.7001 59.3001 95.0001 59.8001C95.2001 60.3001 95.7001 60.5001 96.2001 60.3001Z" fill="#F9B110"/>
<path d="M101.7 36.9001C102.4 37.2001 103.3 36.9001 103.5 36.3001C103.5 36.2001 103.5 36.0001 103.5 35.8001H101C101 36.4001 101.3 36.8001 101.7 36.9001Z" fill="#F9B110"/>
<path d="M76.3001 43.4001C76.4001 43.0001 75.9001 42.1001 75.5001 41.9001C75.1001 41.7001 74.7001 41.9001 74.4001 42.6001C74.1001 43.3001 74.2001 43.7001 74.7001 43.9001C75.5001 44.1001 76.1001 43.9001 76.3001 43.4001Z" fill="#F9B110"/>
<path d="M99.0001 41.2001C99.3001 40.6001 98.9001 39.9001 98.2001 39.6001C97.6001 39.4001 97.1001 39.7001 96.8001 40.4001C96.5001 41.0001 96.7001 41.6001 97.2001 41.7001C97.7001 42.0001 98.9001 41.6001 99.0001 41.2001Z" fill="#F9B110"/>
<path d="M95.2001 48.4001C95.1001 48.7001 95.7001 49.5001 96.4001 49.4001C96.8001 49.4001 97.2001 49.1001 97.2001 48.6001C97.2001 48.1001 97.1001 47.8001 96.6001 47.6001C95.9001 47.4001 95.2001 48.1001 95.2001 48.4001Z" fill="#F9B110"/>
<path d="M79.1001 58.5001C79.7001 58.7001 80.1001 58.5001 80.4001 58.0001C80.6001 57.6001 81.3001 57.0001 81.0001 56.5001C80.7001 55.9001 80.2001 56.3001 79.9001 56.2001C79.1001 56.0001 78.2001 56.6001 78.2001 57.3001C78.2001 57.9001 78.6001 58.3001 79.1001 58.5001Z" fill="#F9B110"/>
<path d="M78.0001 48.9001C78.5001 48.7001 78.7001 47.9001 78.5001 47.3001C78.3001 46.8001 77.6001 46.5001 77.0001 46.7001C76.4001 46.9001 76.2001 47.3001 76.4001 47.8001C76.6001 48.5001 77.5001 49.1001 78.0001 48.9001Z" fill="#F9B110"/>
<path d="M76.7001 52.0001C76.5001 52.0001 76.4001 52.1001 76.4001 52.2001C76.4001 52.3001 76.5001 52.4001 76.6001 52.5001C76.7001 52.5001 76.8001 52.5001 76.9001 52.4001C76.9001 52.2001 76.9001 52.0001 76.7001 52.0001Z" fill="#F9B110"/>
<path d="M76.3001 64.1001C76.5001 64.2001 76.8001 63.9001 76.8001 63.7001C76.8001 63.6001 76.8001 63.3001 76.6001 63.2001C76.5001 63.1001 76.2001 63.3001 76.1001 63.5001C76.0001 63.6001 76.0001 64.0001 76.3001 64.1001Z" fill="#F9B110"/>
<path d="M81.9001 53.1001C82.3001 53.0001 82.6001 52.5001 82.5001 52.2001C82.3001 51.8001 82.0001 51.6001 81.5001 51.7001C81.1001 51.8001 80.8001 52.2001 80.9001 52.7001C81.0001 53.0001 81.4001 53.2001 81.9001 53.1001Z" fill="#F9B110"/>
<path d="M83.3001 45.1001C83.5001 45.0001 83.7001 44.9001 83.6001 44.5001C83.5001 44.2001 83.2001 44.0001 82.9001 44.2001C82.6001 44.3001 82.5001 44.6001 82.7001 44.9001C82.9001 45.2001 83.1001 45.2001 83.3001 45.1001Z" fill="#F9B110"/>
<path d="M85.0001 42.7001C85.1001 42.5001 85.0001 42.1001 84.9001 41.9001C84.8001 41.7001 84.4001 41.6001 84.3001 41.7001C83.8001 41.9001 83.7001 42.3001 83.9001 42.9001C84.3001 43.0001 84.7001 43.2001 85.0001 42.7001Z" fill="#F9B110"/>
<path d="M90.8001 40.9001C90.8001 40.9001 90.9001 40.9001 90.8001 40.9001C90.8001 41.2001 90.9001 41.4001 91.1001 41.6001C91.6001 42.1001 92.3001 41.8001 92.6001 41.5001C92.8001 41.2001 92.7001 40.3001 92.0001 40.1001C91.7001 40.0001 91.5001 40.0001 91.4001 40.1001C91.4001 40.1001 91.4001 40.0001 91.3001 40.0001C91.0001 39.8001 90.8001 40.3001 90.7001 40.4001C90.6001 40.6001 90.8001 40.9001 90.8001 40.9001Z" fill="#F9B110"/>
<path d="M83.3001 49.3001C84.1001 49.6001 85.0001 49.3001 85.3001 48.6001C85.7001 47.8001 85.4001 46.8001 84.8001 46.5001C84.1001 46.2001 82.7001 46.6001 82.4001 47.3001C82.2001 48.0001 82.6001 49.0001 83.3001 49.3001Z" fill="#F9B110"/>
<path d="M96.2001 35.9001H94.5001C94.4001 36.4001 94.0001 36.5001 93.7001 36.7001C93.4001 36.2001 93.0001 35.9001 92.7001 35.9001H92.2001C91.9001 36.0001 91.7001 36.2001 91.4001 36.5001C91.3001 36.6001 91.3001 36.7001 91.2001 36.8001C90.8001 37.5001 90.9001 37.9001 91.6001 38.3001C92.2001 38.6001 92.8001 38.8001 93.5001 38.0001C93.5001 38.1001 93.5001 38.2001 93.5001 38.4001C93.3001 38.5001 93.2001 38.7001 93.2001 38.8001C93.2001 39.0001 93.1001 39.2001 93.5001 39.4001H93.6001C93.6001 39.7001 93.8001 39.9001 94.1001 40.1001C94.6001 40.3001 95.0001 40.5001 95.5001 40.1001C96.9001 39.0001 97.0001 38.5001 96.1001 37.0001V36.9001C96.2001 37.1001 96.4001 37.3001 96.6001 37.4001C96.9001 37.6001 97.3001 37.6001 97.5001 37.2001C97.7001 36.8001 97.6001 36.4001 97.2001 36.2001H96.5001C96.3001 35.9001 96.3001 35.9001 96.2001 35.9001Z" fill="#F9B110"/>
<path d="M34.8001 88.6001C34.9001 88.1001 34.5001 87.6001 34.0001 87.3001C34.1001 88.0001 34.1001 88.7001 34.2001 89.3001C34.5001 89.3001 34.7001 89.0001 34.8001 88.6001Z" fill="#F9B110"/>
<path d="M142.7 41.8001C143.2 42.0001 144.3 41.5001 144.4 41.1001C144.6 40.5001 144.3 40.0001 143.6 39.8001C143 39.6001 142.5 39.9001 142.3 40.7001C142.2 41.2001 142.3 41.7001 142.7 41.8001Z" fill="#F9B110"/>
<path d="M135.2 36.1001C135.2 36.3001 135.5 36.4001 135.7 36.4001C135.9 36.4001 136.1 36.2001 136.1 35.9001V35.8001H135.3C135.2 36.0001 135.2 36.0001 135.2 36.1001Z" fill="#F9B110"/>
<path d="M134.8 41.9001C135.1 42.1001 135.6 42.3001 136.1 42.1001C136.6 41.9001 137.1 41.8001 137.2 41.5001C137.3 41.1001 137.3 41.0001 137.2 40.8001C137.1 40.6001 137.1 40.3001 136.8 40.1001C136.5 39.9001 135.8 39.6001 135.3 39.8001C134.8 40.0001 134.5 40.4001 134.4 40.9001C134.2 41.4001 134.5 41.7001 134.8 41.9001Z" fill="#F9B110"/>
<path d="M35.1001 94.1001C35.1001 94.0001 35.0001 93.7001 34.8001 93.6001C34.9001 93.9001 34.9001 94.1001 35.0001 94.4001C35.1001 94.3001 35.1001 94.2001 35.1001 94.1001Z" fill="#F9B110"/>
<path d="M124.8 51.9001C125 51.2001 124.2 50.9001 123.8 51.0001C123.5 51.1001 123.3 51.7001 123.5 52.0001C123.7 52.4001 124.5 52.5001 124.8 51.9001Z" fill="#F9B110"/>
<path d="M82.6001 55.9001C83.4001 56.2001 84.0001 55.9001 84.2001 55.1001C84.4001 54.4001 84.1001 53.7001 83.3001 53.4001C82.7001 53.2001 81.9001 53.6001 81.7001 54.3001C81.4001 55.1001 81.8001 55.7001 82.6001 55.9001Z" fill="#F9B110"/>
<path d="M48.2001 80.4001C48.2001 80.3001 48.2001 80.3001 48.1001 80.2001C48.2001 80.1001 48.3001 80.0001 48.2001 79.9001C48.1001 79.7001 47.5001 79.5001 47.4001 79.6001C47.2001 79.7001 47.0001 79.9001 46.9001 80.1001C46.8001 80.2001 46.7001 80.4001 46.7001 80.6001C46.8001 81.0001 47.2001 81.4001 47.6001 81.3001C48.1001 81.2001 48.3001 80.8001 48.2001 80.4001Z" fill="#F9B110"/>
<path d="M120.1 50.0001C120.6 50.3001 121.1 50.1001 121.4 49.7001C121.7 49.5001 121.8 49.1001 122.1 48.8001C122.3 48.8001 122.5 48.8001 122.6 48.8001C123.3 48.7001 124 48.2001 124.1 47.6001C124.2 46.9001 123.9 46.3001 123.4 45.8001C123.2 45.6001 122.9 45.6001 122.7 45.6001C121.8 45.7001 121.2 46.3001 121.2 47.3001C121.2 47.5001 121.2 47.7001 121.2 47.9001C120.8 47.9001 120.5 47.9001 120.2 47.9001C119.6 47.9001 119.3 48.2001 119.3 48.8001C119.3 49.3001 119.6 49.8001 120.1 50.0001Z" fill="#F9B110"/>
<path d="M105.5 46.8001C105.8 46.8001 106.1 46.7001 106.3 46.5001C106.7 46.0001 106.4 45.5001 105.9 45.1001C105.4 45.3001 104.8 45.4001 104.8 46.0001C104.9 46.4001 105.1 46.7001 105.5 46.8001Z" fill="#F9B110"/>
<path d="M109.9 46.6001C110.2 46.7001 110.6 46.7001 110.7 46.3001C110.8 46.0001 110.6 45.5001 110.4 45.5001C110.2 45.4001 109.8 45.6001 109.6 45.6001C109.3 46.2001 109.6 46.5001 109.9 46.6001Z" fill="#F9B110"/>
<path d="M104 40.5001C104.4 40.7001 104.8 40.6001 104.9 40.1001C105 39.8001 105.2 39.1001 104.7 38.9001C104.2 38.7001 103.9 39.3001 103.6 39.6001C103.4 39.9001 103.6 40.4001 104 40.5001Z" fill="#F9B110"/>
<path d="M111.2 50.7001C111.8 50.9001 112.6 50.7001 112.8 50.2001C113 49.7001 112.6 49.0001 111.9 48.7001C111.5 48.5001 110.9 48.8001 110.8 49.2001C110.5 49.8001 110.7 50.6001 111.2 50.7001Z" fill="#F9B110"/>
<path d="M103.1 40.4001C103.4 39.8001 103.7 39.2001 104 38.5001C105.2 39.0001 105.3 38.9001 105.5 37.8001C105 37.3001 104.6 37.4001 104.1 37.8001C102.8 36.9001 102 37.4001 101.8 39.1001C101.7 39.1001 101.6 39.2001 101.5 39.2001C101 39.3001 100.9 39.6001 100.9 40.0001C100.9 40.4001 101.1 40.6001 101.4 40.8001C102.2 41.4001 102.7 41.2001 103.1 40.4001Z" fill="#F9B110"/>
<path d="M122.3 41.7001C122.9 41.7001 123.1 41.1001 123.2 40.5001C122.9 40.1001 122.5 39.8001 121.9 40.1001C121.5 40.3001 121.3 40.8001 121.6 41.2001C121.7 41.4001 122.1 41.7001 122.3 41.7001Z" fill="#F9B110"/>
<path d="M119.3 44.3001C119.9 44.6001 120.8 44.1001 121.1 43.3001C121.3 42.8001 121 42.2001 120.4 42.0001C119.8 41.7001 118.8 42.0001 118.6 42.5001C118.3 43.1001 118.6 44.0001 119.3 44.3001Z" fill="#F9B110"/>
<path d="M65.3001 52.8001C65.9001 52.6001 66.3001 51.7001 66.1001 51.1001C65.9001 50.6001 65.2001 50.4001 64.6001 50.6001C63.8001 50.9001 63.5001 51.3001 63.7001 51.9001C63.9001 52.5001 64.8001 52.9001 65.3001 52.8001Z" fill="#F9B110"/>
<path d="M45.4001 75.4001C45.9001 75.3001 46.0001 75.0001 45.9001 74.6001C45.8001 74.0001 45.2001 73.5001 44.8001 73.5001C44.3001 73.6001 43.7001 74.3001 43.8001 74.7001C43.9001 75.2001 44.7001 75.5001 45.4001 75.4001Z" fill="#F9B110"/>
<path d="M81.4001 40.4001C81.0001 40.2001 80.3001 40.4001 80.1001 40.8001C79.7001 41.6001 79.8001 42.4001 80.3001 42.6001C80.8001 42.8001 81.6001 42.5001 82.0001 42.0001C82.3001 41.5001 82.0001 40.7001 81.4001 40.4001Z" fill="#F9B110"/>
<path d="M67.7001 42.8001C67.9001 43.4001 68.4001 43.7001 68.9001 43.6001C69.2001 43.5001 69.7001 42.7001 69.8001 42.2001C70.3001 41.8001 70.6001 41.0001 70.2001 40.3001C69.8001 39.5001 69.1001 39.3001 68.5001 39.4001C67.9001 39.5001 67.6001 40.5001 67.7001 41.3001V41.4001C67.5001 41.7001 67.5001 42.2001 67.7001 42.8001Z" fill="#F9B110"/>
<path d="M54.6001 48.0001C54.8001 47.8001 54.8001 47.4001 54.7001 47.2001C54.5001 46.8001 54.1001 46.6001 53.7001 46.7001C53.1001 46.9001 53.1001 47.6001 53.2001 47.9001C53.2001 48.3001 54.1001 48.5001 54.6001 48.0001Z" fill="#F9B110"/>
<path d="M53.5001 45.8001C53.7001 45.5001 53.8001 45.2001 53.6001 45.0001C53.1001 45.3001 52.7001 45.7001 52.2001 46.0001C52.7001 46.2001 53.1001 46.3001 53.5001 45.8001Z" fill="#F9B110"/>
<path d="M36.2001 78.6001C36.6001 78.5001 36.9001 77.9001 36.8001 77.5001C36.8001 77.4001 36.7001 77.3001 36.7001 77.2001C36.9001 77.3001 37.1001 77.3001 37.3001 77.3001C37.4001 77.3001 37.6001 77.0001 37.5001 76.9001C37.4001 76.8001 37.2001 76.6001 37.0001 76.6001C36.9001 76.6001 36.7001 76.9001 36.6001 77.0001C36.3001 76.4001 35.9001 76.2001 35.5001 76.3001C35.0001 76.4001 34.5001 77.3001 34.7001 77.9001C34.9001 78.3001 35.7001 78.8001 36.2001 78.6001Z" fill="#F9B110"/>
<path d="M39.2001 80.7001C39.7001 80.5001 40.1001 79.7001 39.9001 79.0001C39.7001 78.3001 39.2001 78.1001 38.4001 78.3001C37.9001 78.4001 37.5001 79.1001 37.6001 79.5001C37.7001 80.1001 38.7001 80.8001 39.2001 80.7001Z" fill="#F9B110"/>
<path d="M40.7001 91.0001C41.0001 91.7001 41.6001 92.2001 42.1001 92.1001C42.5001 92.0001 42.7001 91.7001 42.7001 91.3001C42.7001 90.6001 42.5001 90.4001 41.7001 90.2001C41.4001 89.7001 41.2001 89.2001 40.8001 88.8001C40.5001 88.4001 39.8001 88.6001 39.8001 89.1001C39.8001 89.7001 39.5001 90.3001 40.0001 90.9001C40.1001 90.8001 40.4001 90.9001 40.7001 91.0001Z" fill="#F9B110"/>
<path d="M36.3001 85.9001C36.6001 85.9001 37.2001 85.9001 37.5001 85.5001C37.8001 85.1001 38.2001 84.8001 38.2001 84.4001C38.1001 84.0001 38.0001 83.9001 37.8001 83.8001C37.6001 83.7001 37.5001 83.4001 37.1001 83.4001C36.7001 83.4001 36.0001 83.5001 35.6001 83.9001C35.2001 84.4001 35.2001 84.8001 35.4001 85.3001C35.5001 85.7001 36.0001 85.8001 36.3001 85.9001Z" fill="#F9B110"/>
<path d="M35.1001 75.4001C35.0001 75.5001 35.0001 75.7001 35.0001 75.8001C35.0001 75.9001 35.2001 75.9001 35.3001 75.9001C35.4001 75.9001 35.5001 75.7001 35.4001 75.6001C35.3001 75.5001 35.3001 75.4001 35.1001 75.4001Z" fill="#F9B110"/>
<path d="M42.6001 66.0001C42.9001 66.2001 43.2001 65.9001 43.2001 65.5001C43.2001 65.2001 43.0001 64.7001 42.8001 64.6001C42.5001 64.4001 42.2001 64.6001 42.2001 64.7001C42.1001 64.9001 42.2001 65.2001 42.3001 65.4001C42.4001 65.6001 42.4001 65.8001 42.6001 66.0001Z" fill="#F9B110"/>
<path d="M41.0001 67.6001C41.2001 67.6001 41.3001 67.5001 41.4001 67.5001C41.3001 67.7001 41.2001 67.9001 41.3001 68.1001C41.4001 68.5001 42.2001 68.8001 42.5001 68.6001C42.8001 68.4001 42.8001 68.1001 42.8001 67.8001C42.8001 67.4001 42.3001 67.1001 41.9001 67.3001C42.3001 66.9001 42.4001 66.3001 42.3001 65.6001C42.2001 64.8001 41.5001 64.3001 40.7001 64.4001C39.8001 64.5001 39.1001 65.5001 39.2001 66.4001C39.1001 67.0001 40.1001 67.7001 41.0001 67.6001Z" fill="#F9B110"/>
<path d="M39.4001 67.1001C39.2001 66.7001 38.9001 66.8001 38.6001 66.9001C38.2001 67.0001 38.0001 67.4001 38.2001 67.8001C38.4001 68.0001 38.6001 68.3001 38.8001 68.3001C39.2001 68.2001 39.6001 67.5001 39.4001 67.1001Z" fill="#F9B110"/>
<path d="M41.9001 71.8001C42.6001 71.7001 43.2001 71.0001 43.1001 70.3001C43.0001 69.6001 42.0001 69.1001 41.1001 69.3001C40.4001 69.4001 40.0001 70.0001 40.2001 70.7001C40.3001 71.5001 41.0001 71.9001 41.9001 71.8001Z" fill="#F9B110"/>
<path d="M42.2001 78.0001C42.3001 78.5001 42.7001 78.7001 43.1001 78.5001C43.6001 78.3001 43.8001 77.9001 43.7001 77.4001C43.6001 77.0001 43.1001 76.7001 42.7001 76.9001C42.6001 76.9001 42.6001 77.0001 42.6001 77.0001C42.7001 76.8001 42.7001 76.7001 42.8001 76.5001C42.9001 76.3001 42.7001 75.9001 42.5001 75.7001C42.3001 75.6001 41.9001 75.5001 41.7001 75.6001C41.5001 75.7001 41.4001 76.0001 41.4001 76.2001C41.4001 76.6001 41.5001 77.1001 41.6001 77.5001C41.7001 78.0001 41.9001 78.1001 42.2001 78.0001Z" fill="#F9B110"/>
<path d="M75.3001 54.4001C75.2001 54.0001 74.6001 53.6001 74.2001 53.8001C73.8001 53.9001 73.6001 54.5001 73.7001 54.8001C73.8001 55.2001 74.4001 55.5001 74.8001 55.4001C75.2001 55.3001 75.4001 54.8001 75.3001 54.4001Z" fill="#F9B110"/>
<path d="M42.4001 59.5001C42.3001 59.6001 42.1001 59.8001 41.8001 60.0001C41.5001 59.7001 41.0001 59.6001 40.7001 59.6001C40.2001 59.7001 39.8001 60.6001 39.9001 61.1001C40.0001 61.5001 40.6001 61.9001 40.9001 61.8001H41.0001C41.0001 61.8001 41.0001 61.8001 41.1001 61.9001C41.4001 62.2001 41.8001 62.2001 42.2001 61.9001C42.4001 61.7001 42.6001 61.6001 42.8001 61.5001C43.5001 61.2001 43.7001 60.8001 43.7001 60.1001C43.8001 59.5001 43.3001 59.2001 42.4001 59.5001Z" fill="#F9B110"/>
<path d="M44.1001 71.9001C44.0001 71.5001 43.4001 71.2001 43.1001 71.4001C42.8001 71.5001 42.7001 72.0001 42.9001 72.5001C43.0001 72.8001 43.3001 73.0001 43.6001 72.8001C44.0001 72.6001 44.2001 72.4001 44.1001 71.9001Z" fill="#F9B110"/>
<path d="M48.9001 52.2001C49.4001 52.1001 49.7001 51.3001 49.4001 50.5001C49.2001 49.8001 48.7001 49.7001 47.9001 50.0001C47.3001 50.2001 47.0001 50.8001 47.2001 51.3001C47.5001 51.8001 48.5001 52.3001 48.9001 52.2001Z" fill="#F9B110"/>
<path d="M42.4001 57.6001C42.8001 57.5001 43.0001 57.1001 42.9001 56.7001C42.8001 56.5001 42.7001 56.3001 42.5001 56.3001C42.2001 56.7001 42.0001 57.1001 41.7001 57.5001C42.0001 57.5001 42.3001 57.6001 42.4001 57.6001Z" fill="#F9B110"/>
<path d="M68.0001 74.1001C68.2001 74.0001 68.2001 73.6001 68.1001 73.4001C68.1001 73.3001 67.8001 73.1001 67.7001 73.2001C67.6001 73.3001 67.5001 73.6001 67.5001 73.7001C67.5001 73.9001 67.8001 74.2001 68.0001 74.1001Z" fill="#F9B110"/>
<path d="M70.1001 46.0001C69.9001 45.6001 69.3001 45.3001 68.9001 45.5001C68.5001 45.7001 68.3001 46.2001 68.5001 46.6001C68.7001 47.0001 69.2001 47.2001 69.7001 47.0001C70.0001 47.0001 70.3001 46.4001 70.1001 46.0001Z" fill="#F9B110"/>
<path d="M69.0001 50.0001C69.4001 49.8001 69.5001 49.4001 69.4001 48.9001C69.2001 48.5001 68.6001 48.3001 68.1001 48.5001C68.0001 48.7001 67.8001 49.1001 67.9001 49.5001C67.8001 50.0001 68.5001 50.2001 69.0001 50.0001Z" fill="#F9B110"/>
<path d="M67.3001 63.8001C68.1001 63.5001 68.3001 62.9001 68.0001 62.2001C67.7001 61.5001 67.0001 61.2001 66.2001 61.5001C65.6001 61.7001 65.3001 62.6001 65.6001 63.3001C65.9001 63.9001 66.5001 64.1001 67.3001 63.8001Z" fill="#F9B110"/>
<path d="M73.8001 61.2001C73.8001 61.5001 74.2001 61.5001 74.3001 61.5001C74.4001 61.4001 74.6001 61.2001 74.6001 61.0001C74.6001 60.9001 74.3001 60.7001 74.2001 60.7001C74.1001 60.8001 73.8001 60.9001 73.8001 61.2001Z" fill="#F9B110"/>
<path d="M75.3001 65.8001C75.3001 65.2001 75.4001 64.7001 74.8001 64.5001C74.4001 64.4001 74.0001 64.5001 73.8001 65.0001C73.6001 65.3001 73.6001 65.6001 73.9001 65.9001C74.3001 66.3001 74.8001 66.1001 75.3001 65.8001Z" fill="#F9B110"/>
<path d="M47.1001 68.7001C47.8001 68.4001 48.3001 67.4001 48.1001 66.6001C47.9001 66.0001 47.4001 65.6001 46.6001 65.7001C46.4001 64.9001 45.8001 64.5001 45.1001 64.7001C44.4001 64.9001 44.0001 65.5001 44.1001 66.0001C44.2001 66.4001 44.5001 66.7001 44.9001 67.0001C44.9001 67.2001 44.9001 67.5001 45.0001 67.7001C45.2001 68.4001 46.3001 68.9001 47.1001 68.7001Z" fill="#F9B110"/>
<path d="M73.6001 58.1001C73.8001 58.2001 74.1001 58.0001 74.1001 57.9001C74.2001 57.8001 74.2001 57.3001 74.0001 57.2001C73.8001 57.1001 73.4001 57.4001 73.4001 57.6001C73.3001 57.7001 73.4001 58.0001 73.6001 58.1001Z" fill="#F9B110"/>
<path d="M72.7001 53.5001C73.0001 53.7001 73.3001 53.5001 73.4001 53.1001C73.5001 52.7001 73.5001 52.4001 73.1001 52.3001C72.8001 52.3001 72.0001 52.3001 71.9001 52.6001C71.8001 52.9001 72.4001 53.3001 72.7001 53.5001Z" fill="#F9B110"/>
<path d="M38.2001 74.7001C38.9001 74.7001 39.4001 74.4001 39.4001 74.1001C39.4001 73.7001 38.8001 73.1001 38.4001 73.1001C38.1001 73.1001 37.5001 73.7001 37.5001 74.1001C37.4001 74.4001 37.7001 74.7001 38.2001 74.7001Z" fill="#F9B110"/>
<path d="M49.1001 61.4001C49.0001 61.1001 48.7001 60.9001 48.3001 60.8001C48.1001 60.6001 47.9001 60.4001 47.7001 60.3001C46.8001 60.0001 46.2001 60.3001 45.8001 60.8001C45.7001 60.9001 45.7001 61.1001 45.7001 61.2001C45.5001 60.9001 45.3001 60.6001 44.9001 60.8001C44.5001 61.0001 44.5001 61.6001 44.5001 61.9001C44.5001 62.3001 44.9001 62.3001 45.3001 62.3001C45.6001 62.2001 45.7001 62.1001 45.8001 61.8001C46.0001 62.1001 46.2001 62.5001 46.5001 62.8001C47.0001 63.2001 48.0001 63.0001 48.4001 62.5001C48.8001 62.3001 49.2001 61.8001 49.1001 61.4001Z" fill="#F9B110"/>
<path d="M48.1001 71.2001C48.2001 71.2001 48.4001 70.9001 48.3001 70.8001C48.2001 70.7001 48.0001 70.5001 47.8001 70.5001C47.7001 70.5001 47.3001 70.7001 47.4001 71.0001C47.5001 71.3001 47.9001 71.2001 48.1001 71.2001Z" fill="#F9B110"/>
<path d="M45.3001 64.3001C45.5001 64.2001 45.7001 63.9001 45.6001 63.7001C45.5001 63.5001 45.3001 63.1001 45.1001 63.1001C44.5001 62.9001 44.4001 63.4001 44.2001 63.8001C44.5001 64.3001 44.8001 64.6001 45.3001 64.3001Z" fill="#F9B110"/>
<path d="M50.9001 58.3001C50.6001 57.6001 50.1001 57.3001 49.4001 57.0001C48.9001 56.7001 48.4001 57.2001 48.3001 56.6001C48.2001 56.0001 47.8001 54.7001 46.6001 55.1001C46.0001 55.3001 45.7001 56.1001 45.8001 56.6001C45.4001 56.3001 44.8001 56.3001 44.3001 56.5001C43.6001 56.8001 43.2001 57.8001 43.6001 58.5001C43.8001 58.9001 44.1001 59.2001 44.5001 59.3001C44.5001 59.4001 44.5001 59.5001 44.5001 59.6001C44.6001 59.8001 44.9001 60.0001 45.2001 60.0001C45.6001 60.0001 45.9001 59.4001 45.7001 59.1001C45.7001 59.1001 45.7001 59.0001 45.6001 59.0001C46.0001 58.6001 46.2001 58.0001 46.2001 57.5001C46.4001 57.7001 46.6001 57.8001 46.8001 57.8001C47.3001 57.8001 47.0001 58.9001 47.7001 58.9001C48.4001 58.9001 48.6001 59.7001 49.5001 59.7001C50.5001 59.6001 51.2001 59.0001 50.9001 58.3001Z" fill="#F9B110"/>
<path d="M51.2001 77.6001C51.4001 77.7001 51.9001 77.5001 52.3001 77.3001C52.4001 77.3001 52.6001 77.2001 52.6001 76.8001C52.5001 76.5001 51.8001 76.1001 51.4001 76.3001C50.9001 76.6001 50.7001 77.3001 51.2001 77.6001Z" fill="#F9B110"/>
<path d="M53.7001 67.3001C54.2001 67.1001 54.8001 66.0001 54.7001 65.6001C54.5001 65.1001 53.6001 64.9001 52.9001 65.1001C52.3001 65.4001 52.1001 65.9001 52.4001 66.7001C52.6001 67.2001 53.3001 67.5001 53.7001 67.3001Z" fill="#F9B110"/>
<path d="M63.4001 58.3001C64.2001 58.0001 64.7001 57.2001 64.5001 56.4001C64.2001 55.6001 63.4001 55.0001 62.7001 55.2001C61.9001 55.4001 61.2001 56.7001 61.5001 57.4001C61.8001 58.1001 62.7001 58.5001 63.4001 58.3001Z" fill="#F9B110"/>
<path d="M52.1001 61.8001C52.1001 61.2001 52.2001 60.7001 51.6001 60.5001C51.2001 60.4001 50.8001 60.5001 50.6001 61.0001C50.4001 61.3001 50.4001 61.6001 50.7001 61.9001C51.1001 62.3001 51.6001 62.1001 52.1001 61.8001Z" fill="#F9B110"/>
</g>
</svg>
