<svg width="165" height="130" viewBox="0 0 165 130" fill="none" xmlns="http://www.w3.org/2000/svg">
<g clip-path="url(#clip0_4_3259)">
<path d="M-11.5 130C48.4229 130 97 81.4229 97 21.5C97 -38.4229 48.4229 -87 -11.5 -87C-71.4229 -87 -120 -38.4229 -120 21.5C-120 81.4229 -71.4229 130 -11.5 130Z" fill="#E6EBF2"/>
<path d="M15.4 113.8C15.8 113.8 15.9 113.5 15.9 113.4C15.9 113.1 15.6 113 15.4 112.8C15.2 112.7 15 112.5 14.7 112.5C14.4 112.5 14.3 112.9 14.5 113.2C14.7 113.5 15.1 113.8 15.4 113.8Z" fill="#D3DAE0"/>
<path d="M31.1 112.7C30.6 112.3 29.6 112.4 29.3 112.9C28.9 113.5 28.9 114.4 29.4 114.7C29.7 114.9 30.5 114.9 31 114.7C31 114.8 31.1 114.8 31.1 114.8C31.2 114.9 31.7 115.1 32 114.8C32.3 114.5 31.8 114.1 31.6 114C31.7 113.6 31.5 113 31.1 112.7Z" fill="#D3DAE0"/>
<path d="M28.7 119.8C29.4 120.4 30.1 120.2 30.8 119.4C31.4 118.6 31.4 117.9 30.7 117.3C30.5 117.1 30.2 117 30 117C30.4 116.8 30.6 116.2 30.5 115.9C30.3 115.6 29.3 115.4 29.1 115.8C28.8 116.3 28.7 116.8 29.4 117C29.1 117.1 28.7 117.3 28.5 117.7C27.9 118.3 28.1 119.3 28.7 119.8Z" fill="#D3DAE0"/>
<path d="M10.8 124.2C10.8 123.9 10.6 123.7 10.3 123.4C9.7 122.9 9.19999 122.9 8.89999 123.4C8.49999 124 8.5 124.7 9 125C9.2 125.1 9.7 125.1 10.1 125C10.1 125.2 10 125.4 10.1 125.6C10.2 126.2 10.7 126.5 11.5 126.4C12.1 126.3 12.5 125.9 12.4 125.5C12.4 125 11.5 124.2 11 124.2C11 124.2 10.9 124.2 10.8 124.2Z" fill="#D3DAE0"/>
<path d="M10.1 119.9C9.5 120 8.9 120.5 9 121C9.1 121.7 9.99999 122.3 10.7 122.2C11.2 122.1 11.5 121.5 11.4 121C11.3 120.2 10.8 119.8 10.1 119.9Z" fill="#D3DAE0"/>
<path d="M9 127.8C9.5 127.7 9.70001 127.4 9.60001 126.9C9.50001 126.5 9.00001 126.1 8.60001 126.2C8.20001 126.3 7.8 126.8 7.9 127.2C8.1 127.6 8.5 127.9 9 127.8Z" fill="#D3DAE0"/>
<path d="M34.2 118.6C33.3 118.4 31.8 119.7 31.6 120.5C31.6 120.7 31.6 120.8 31.6 121C32.9 120.5 34.1 119.9 35.4 119.3C35.2 118.9 34.7 118.7 34.2 118.6Z" fill="#D3DAE0"/>
<path d="M50.5 109.9C50.2 109.7 50 109.5 50.3 109.1C50.6 108.7 50.5 107.9 49.7 107.4C48.9 106.9 47.7 107.4 47.7 108.1C47.7 108.8 48.1 109 48 109.2C47.8 109.4 47.3 109.6 47.3 110.1C47.4 110.6 48.8 111 49 110.9C49.2 110.8 49.8 110.5 50 110.9C50.4 110.6 50.9 110.3 51.3 110C50.9 110 50.6 110 50.5 109.9Z" fill="#D3DAE0"/>
<path d="M50.6 103.2C50.8 102.7 50.6 102.2 50.2 102.1C49.8 101.9 49.5 102.1 49.3 102.5C49.1 103 49.2 103.5 49.6 103.7C50 103.8 50.5 103.6 50.6 103.2Z" fill="#D3DAE0"/>
<path d="M46 105.7C46.1 105.7 46.1 105.7 46.2 105.8C46.3 106.1 46.5 106.4 46.8 106.6C47.4 107 48 106.9 48.5 106.3C48.9 105.7 48.9 105 48.4 104.7C48 104.5 47.5 104.4 47.1 104.6C47 104.5 46.9 104.4 46.8 104.3C46.4 104.1 45.8 104.2 45.6 104.6C45.5 105 45.7 105.6 46 105.7Z" fill="#D3DAE0"/>
<path d="M53.8 100.8C53.3 100.8 52.7 100.7 52.6 101.4C52.5 102 53 102.2 53.5 102.3C54 101.8 54.1 101.4 53.8 100.8Z" fill="#D3DAE0"/>
<path d="M43.5 107.6C43.4 108.1 43.5 108.4 43.9 108.7C44.4 109 45.2 109 45.5 108.6C46 107.8 45.4 107.1 45.1 106.7C44.8 106.4 43.8 106.9 43.5 107.6Z" fill="#D3DAE0"/>
<path d="M44.5 103.4C44.6 103.3 44.5 103.1 44.4 103.1C44.3 103 44.1 103.1 44.1 103.2C44.1 103.3 44 103.4 44.1 103.5C44.2 103.5 44.4 103.6 44.5 103.4Z" fill="#D3DAE0"/>
<path d="M43.9 114.6C44 114.1 43.6 113.9 43.2 113.8C42.7 114 42.4 114.3 42.6 114.8C42.7 115 43 115.2 43.2 115.2C43.4 115.1 43.6 115 43.8 114.8C43.9 114.7 43.9 114.7 43.9 114.6Z" fill="#D3DAE0"/>
<path d="M33.6 110.5C33.9 110.1 33.8 109.7 33.4 109.4C33 109.2 32.5 109.3 32.2 109.6C32 109.9 32.1 110.6 32.5 110.8C32.8 111.1 33.3 110.9 33.6 110.5Z" fill="#D3DAE0"/>
<path d="M51.8 103.7C51.8 104.1 51.6 104.5 51.9 104.8C52.2 105.1 52.6 104.7 52.7 104.6C52.8 104.3 53 103.5 52.8 103.3C52.6 103.1 51.8 103.5 51.8 103.7Z" fill="#D3DAE0"/>
<path d="M8.59999 118.7C9.09999 118.6 9.39998 118.1 9.39998 117.6C9.29998 117.2 8.89998 116.9 8.49998 116.9C7.89998 117 7.59998 117.4 7.69998 117.9C7.69998 118.4 8.19999 118.8 8.59999 118.7Z" fill="#D3DAE0"/>
<path d="M8 110.9C7.8 110.6 7.5 111 7.3 111.1C7.2 111.2 7.3 111.5 7.3 111.6C7.5 111.7 7.7 111.7 7.9 111.6C8 111.5 8.2 111.1 8 110.9Z" fill="#D3DAE0"/>
<path d="M4.00001 122C4.30001 121.6 4.20002 121 3.80002 120.7C3.40002 120.5 3.00001 120.5 2.70001 120.9C2.30001 121.3 2.40002 121.9 2.80002 122.2C3.10002 122.4 3.80001 122.3 4.00001 122Z" fill="#D3DAE0"/>
<path d="M12.3 121.6C11.6 122.1 11.3 123 12 123.4C12.6 123.8 13.2 123.7 14 123.7C14.5 123.7 14.7 123 15.1 123.4C15.5 123.9 16.6 124.7 17.3 123.8C17.7 123.3 17.6 122.5 17.2 122.1C17.7 122.1 18.2 121.8 18.5 121.4C18.9 120.8 18.7 119.7 18 119.3C17.4 118.9 16.5 119 16.2 119.6C15.9 120.1 16 121.1 16.3 121.7C16.1 121.7 15.8 121.7 15.6 121.8C15.4 121.9 15.2 121.8 15 121.6C15 121.5 15 121.4 15 121.3C15 120.8 14.6 120.4 14.1 120.5C13.7 120.5 13.3 120.9 13.3 121.3C13.3 121.4 13.3 121.5 13.4 121.6C13.1 121.4 12.7 121.3 12.3 121.6Z" fill="#D3DAE0"/>
<path d="M13.4 115.3C13.3 115.5 13.3 115.9 13.5 116C13.7 116.2 14 116.3 14.3 116.3C14.9 116.1 14.7 115.6 14.7 115.2C14.1 114.9 13.7 114.8 13.4 115.3Z" fill="#D3DAE0"/>
<path d="M75.1 83.1C74.9 83.1 74.7 83 74.6 83C73.9 83 73.1 83.4 72.9 83.9C72.7 84.6 72.8 85.2 73.3 85.8C73.4 86 73.7 86.1 74 86.1C74.9 86.1 75.5 85.6 75.7 84.7C75.7 84.5 75.8 84.3 75.8 84.1C76.2 84.2 76.5 84.2 76.8 84.3H76.9C77.2 83.8 77.5 83.4 77.9 82.9C77.8 82.6 77.7 82.3 77.4 82.1C76.9 81.8 76.4 81.9 76 82.2C75.6 82.5 75.4 82.8 75.1 83.1Z" fill="#D3DAE0"/>
<path d="M71.7 75C71.3 75.5 71.4 76 72.1 76.5C72.5 76.9 73.4 76.9 73.7 76.6C74.1 76.1 74 75.1 73.5 74.7C72.9 74.4 72.1 74.5 71.7 75Z" fill="#D3DAE0"/>
<path d="M56.7 99.5C56.8 99.2 56.4 98.5 56 98.4C55.6 98.3 55.3 98.5 55.2 98.9C55 99.6 55.1 100.1 55.4 100.2C55.7 100.3 56.5 99.9 56.7 99.5Z" fill="#D3DAE0"/>
<path d="M61.6 100.4C61.8 100 61 98.9 60.5 98.9C60 98.9 59.8 100.1 60.2 100.5C60.7 100.8 61.4 100.8 61.6 100.4Z" fill="#D3DAE0"/>
<path d="M63.4 99.4C63.2 99.2 62.9 99.5 62.8 99.6C62.8 99.8 62.7 100 62.9 100.2C63 100.2 63 100.3 63.1 100.3C63.2 100.2 63.3 100.1 63.5 99.9C63.5 99.7 63.6 99.5 63.4 99.4Z" fill="#D3DAE0"/>
<path d="M72.3 82.5C72.7 82.8 73.4 82.7 73.8 82.2C74.2 81.8 74.3 80.9 74 80.5C74.2 80.3 74.3 80 74.2 79.7C74.1 79.3 73.3 79 72.9 79.6C72.8 79.7 72.8 79.9 72.8 80C72.4 80 72.1 80.2 71.8 80.4C71.5 81 71.7 82 72.3 82.5Z" fill="#D3DAE0"/>
<path d="M60.2 93.6C60.2 93.4 59.9 93.2 59.7 93.2C59.5 93.2 59.2 93.4 59.2 93.6C59.2 93.8 59.4 94 59.6 94C59.9 94.1 60.2 93.8 60.2 93.6Z" fill="#D3DAE0"/>
<path d="M51.1 106.2C50.8 106.8 50.9 107.6 51.4 107.8C52 108.1 53.2 107.6 53.5 107C53.7 106.5 53.4 105.9 52.7 105.6C51.9 105.2 51.5 105.4 51.1 106.2Z" fill="#D3DAE0"/>
<path d="M51.7 95.1C51.5 95.4 51.5 96.3 51.8 96.6C52.1 96.8 52.8 96.7 53.1 96.4C53.4 96.1 53.3 95.7 52.9 95.4C52.4 95 51.9 94.8 51.7 95.1Z" fill="#D3DAE0"/>
<path d="M59.8 97.9C60.5 98.3 61 98.2 61.3 97.7C61.5 97.3 61.2 96.1 60.8 95.9C60.2 95.6 59.7 95.8 59.3 96.5C58.9 97.1 59 97.5 59.8 97.9Z" fill="#D3DAE0"/>
<path d="M75.8 85.9C76.1 85.5 76.4 85.1 76.7 84.6C76.5 84.7 76.2 84.8 76.1 85C75.8 85.3 75.8 85.6 75.8 85.9Z" fill="#D3DAE0"/>
<path d="M62 101.3C62.2 101.1 62.4 101 62.6 100.8C62.3 100.9 62.2 101 62 101.3Z" fill="#D3DAE0"/>
<path d="M34.8 117.2C34.7 117.4 34.9 117.8 34.9 117.9C35.5 118.2 36 118.1 36 117.8C36.1 117.5 36 117.1 35.8 116.8C35.6 116.5 35 116.8 34.8 117.2Z" fill="#D3DAE0"/>
<path d="M56.9 102.2C56.6 102.8 56.7 103.6 57 104C56.8 104.5 56.9 105 57.1 105.4C58 104.6 58.9 103.9 59.8 103.1C59.8 102.5 59.5 101.9 58.9 101.6C58.4 101.3 57.3 101.6 56.9 102.2Z" fill="#D3DAE0"/>
<path d="M67 93.7C66.8 94 66.9 94.6 67.4 94.9C67.6 94.8 68 94.7 68.2 94.4C68.5 94.1 68.3 93.7 67.9 93.6C67.6 93.4 67.3 93.3 67 93.7Z" fill="#D3DAE0"/>
<path d="M69.1 87.2C69.1 86.9 68.6 86.6 68.3 86.6C67.9 86.7 67.8 87 68 87.8C68.6 88.2 69.2 87.6 69.1 87.2Z" fill="#D3DAE0"/>
<path d="M76.9 73.4C77.5 73.8 78.1 73.6 78.6 73C79.1 72.3 78.9 71.3 78.2 70.8C77.6 70.4 76.7 70.6 76.3 71.2C75.8 71.9 76.1 72.9 76.9 73.4Z" fill="#D3DAE0"/>
<path d="M76.2 80.7C76.6 80.9 77 81 77.4 80.9C77.4 81.2 77.6 81.5 77.9 81.6C78.4 81.8 78.8 81.4 79.2 81C79 80.5 78.9 79.9 78.2 80C78.1 80 78.1 80 78 80.1C78 79.6 77.7 79 77.3 78.7C76.9 78.5 76.4 78.6 76.1 79C75.6 79.6 75.7 80.4 76.2 80.7Z" fill="#D3DAE0"/>
<path d="M71.8 91C71.6 90.5 71.4 89.9 70.8 90.1C70.1 90.3 70.2 90.8 70.3 91C70.4 91.2 70.2 91.6 70.1 91.4C70 91.2 69.6 91.2 69.2 91.6C68.8 92 68.7 92.4 69 92.9C69.1 93 69.2 93.1 69.3 93.2C69.1 93.5 69 93.9 68.9 94.3C69.8 93.3 70.8 92.2 71.8 91Z" fill="#D3DAE0"/>
<path d="M67.3 84.2C67.9 84.5 68.6 84.5 69.2 84.1C69.4 84 69.6 83.7 69.6 83.5C69.8 82.6 69.3 81.9 68.4 81.6C68.2 81.5 68 81.5 67.9 81.4C68 81.1 68.1 80.7 68.2 80.4C68.3 79.8 68.2 79.5 67.6 79.3C67.1 79.1 66.5 79.2 66.1 79.6C65.7 80 65.8 80.5 66 81C66.2 81.3 66.4 81.6 66.7 81.9C66.6 82.1 66.6 82.2 66.5 82.4C66.5 83.1 66.8 83.9 67.3 84.2Z" fill="#D3DAE0"/>
<path d="M70.2 86.2C70.5 86.1 70.8 85.6 70.7 85.3C70.6 84.9 70.3 84.9 69.4 85.2C69.1 85.8 69.8 86.3 70.2 86.2Z" fill="#D3DAE0"/>
<path d="M68.2 70.9C67.8 71.4 67.8 72.2 68.2 72.6C68.6 73 69.4 72.8 69.9 72.2C70.2 71.9 70.1 71.2 69.8 71C69.4 70.5 68.5 70.5 68.2 70.9Z" fill="#D3DAE0"/>
<path d="M61.2 95.4C61 95.7 61 96.1 61.3 96.4C61.8 96.9 62.1 96.9 62.8 96.5C62.9 96.5 63 96.6 63.1 96.6C63.3 97.1 63.7 97.4 64.3 97.4C64.6 97.4 65 97.2 65.1 97C65.6 96.3 65.6 95.5 64.9 94.7C64.6 94.8 64.2 94.8 63.8 94.9C63.7 94.9 63.7 94.8 63.6 94.8C63.4 94.9 63.1 95.1 62.9 95.2C62.2 95 61.4 95 61.2 95.4Z" fill="#D3DAE0"/>
<path d="M82.3 75.4C81.7 75 80.5 75.3 80 76.1C79.5 76.7 79.7 77.6 80.4 78.1C80.6 78.2 80.8 78.3 80.9 78.4C81.5 77.5 82 76.6 82.5 75.7C82.4 75.6 82.4 75.5 82.3 75.4Z" fill="#D3DAE0"/>
<path d="M11.4 108.3C11.6 108.1 11.4 107.5 11 107.3C10.7 107.1 10.4 107.1 10.2 107.4C10 107.7 9.90002 108.1 10.2 108.4C10.5 108.6 11.2 108.5 11.4 108.3Z" fill="#D3DAE0"/>
<path d="M22.4 123.9C22.3 123.7 22.2 123.5 22 123.4C21.9 123 21.5 122.8 21 122.9C20.8 122.9 20.7 123 20.5 123.2C20.3 123 19.9 123 19.7 122.9C19.5 123.2 19.2 123.5 18.9 123.9C19.1 124.1 19.2 124.4 19.4 124.5C19.7 124.7 20 124.8 20.3 124.7C20.3 124.9 20.4 125 20.5 125.2C21.2 125 21.8 124.8 22.5 124.6C22.5 124.3 22.5 124.1 22.4 123.9Z" fill="#D3DAE0"/>
<path d="M0.300003 120.4C0.600003 120.5 1.1 120.6 1.3 120.4C1.8 120.1 1.5 119.6 1.4 119.1C1.5 118.8 1.5 118.5 1.3 118.3C1 118.1 0.399997 118.6 0.199997 118.8C-3.05474e-06 119 -1.52737e-06 119.2 0.0999985 119.4C0.0999985 119.5 0 119.5 0 119.6C0 119.9 0.200003 120.3 0.300003 120.4Z" fill="#D3DAE0"/>
<path d="M41.3 98.8C41.9 99.1 42.7 98.9 42.9 98.4C43.2 97.7 42.9 96.7 42.2 96.3C41.8 96.1 41 96.4 40.8 96.9C40.4 97.8 40.6 98.5 41.3 98.8Z" fill="#D3DAE0"/>
<path d="M9.50001 112.7C9.10001 113.3 9.20001 114.4 9.80001 115C9.80001 115 9.8 115 9.9 115V115.1C10 115.5 10.1 115.8 10.6 115.8C10.8 115.8 11.1 115.4 11.2 115.1C11.5 115 11.8 114.8 12 114.4C12.5 113.7 12.5 112.9 11.8 112.3C11.2 111.9 10 112 9.50001 112.7Z" fill="#D3DAE0"/>
<path d="M39.9 106C40.5 107.2 39.6 107.3 39.7 108.3C39.7 108.5 39.9 108.6 39.9 108.7C40.5 109.5 41.5 109.4 41.9 108.5C42.1 108 42.3 107.4 42.4 106.8C42.5 106.4 42.1 105.8 41.7 105.5C42.2 105.5 42.8 105.2 43 104.8C43.2 104.4 43 103.8 42.7 103.6C42 103.2 41.1 103.3 40.9 103.8C40.7 104.2 40.9 104.9 41.3 105.3H41.2C40.8 105.1 39.9 105.2 39.9 106Z" fill="#D3DAE0"/>
<path d="M1.00002 110.1C1.00002 109.9 0.800014 109.6 0.600014 109.6C0.400014 109.6 0.200012 109.9 0.200012 110.1C0.200012 110.3 0.400014 110.7 0.600014 110.7C0.900014 110.5 1.00002 110.2 1.00002 110.1Z" fill="#D3DAE0"/>
<path d="M2.1 109.9C2.2 110.3 2.90001 110.9 3.30001 110.8C3.70001 110.7 4.00001 110.2 3.90001 109.8C3.80001 109.3 3.40001 109.1 2.90001 109.2C2.30001 109.3 2 109.6 2.1 109.9Z" fill="#D3DAE0"/>
<path d="M3.90002 107.8C3.90002 107.7 3.70002 107.6 3.60002 107.6C3.50002 107.6 3.40002 107.7 3.40002 107.8C3.40002 107.9 3.50002 108.1 3.70002 108C3.80002 108 3.90002 107.9 3.90002 107.8Z" fill="#D3DAE0"/>
<path d="M64.2 82.8C64.2 82.5 63.7 82.2 63.4 82.2C63 82.3 62.6 83 63.1 83.4C63.7 83.9 64.2 83.2 64.2 82.8Z" fill="#D3DAE0"/>
<path d="M59 88.7C59.1 88.9 59 89.2 59.3 89.5C59.6 89.8 60.2 90.1 60.8 90C61.4 89.9 61.7 89.5 61.9 89.1C62 88.6 61.8 88.2 61.6 88C61.4 87.8 60.8 87.4 60.4 87.6C59.9 87.7 59.4 87.7 59.2 88.1C58.9 88.3 59 88.5 59 88.7Z" fill="#D3DAE0"/>
<path d="M61 79.5C60.6 79.4 60.3 79.4 60 79.8C59.5 80.4 59.6 80.7 60.1 81.3C60 81.9 59.9 82.4 59.9 82.9C59.9 83.4 60.5 83.7 60.8 83.3C61.2 82.9 61.8 82.5 61.8 81.8C61.6 81.6 61.5 81.4 61.3 81.1C61.5 80.4 61.4 79.7 61 79.5Z" fill="#D3DAE0"/>
<path d="M63 92.8C62.9 93 62.9 93.1 63.1 93.3C63.3 93.4 63.5 93.4 63.6 93.2C63.8 93 63.7 92.8 63.5 92.7C63.3 92.5 63.2 92.6 63 92.8Z" fill="#D3DAE0"/>
<path d="M47.3 97.8C47.9 98.1 48.6 97.9 48.9 97.3C49.3 96.5 49.1 95.8 48.3 95.3C47.7 94.9 46.8 95.1 46.4 95.7C46 96.3 46.4 97.4 47.3 97.8Z" fill="#D3DAE0"/>
<path d="M48.6 91.8C48.9 91.3 48.5 90.6 47.8 90.3C47.4 90.1 47.1 90.2 46.9 90.6C46.6 91.1 46.7 91.9 47.1 92.1C47.5 92.4 48.4 92.2 48.6 91.8Z" fill="#D3DAE0"/>
<path d="M49.2 88.9C49.6 89.1 50.2 89 50.4 88.6C50.6 88.2 50.4 87.4 50.1 87.3C49.7 87.1 48.9 87.4 48.7 87.8C48.6 88.2 48.8 88.7 49.2 88.9Z" fill="#D3DAE0"/>
<path d="M50.1 85.3C50.3 84.9 50.2 84.4 49.8 84.2C49.4 84 49.1 84.2 48.9 84.5C48.7 84.8 48.8 85.1 49.1 85.4C49.4 85.7 49.9 85.7 50.1 85.3Z" fill="#D3DAE0"/>
<path d="M64.4 86.8C63.9 87.2 63.9 88.1 64.4 88.6C64.5 88.7 64.6 88.8 64.7 88.8C64.7 89 64.8 89.1 64.8 89.1C64.9 89.2 65.3 89.4 65.5 89.2V89.1L65.6 89.2C65.9 89.6 66.2 89.5 66.7 89.3C67.2 89.1 67.8 88.7 67.5 88.1C67.2 87.5 66.7 87.6 66.5 87.7C66.3 87.8 65.9 87.7 66 87.5C66.1 87.3 66.1 87 65.6 86.6C65.3 86.4 64.9 86.4 64.4 86.8Z" fill="#D3DAE0"/>
<path d="M57 93.6C56.6 93.4 56 93.7 55.8 94C55.4 94.8 55.5 95.5 56 95.7C56.5 95.9 57.4 95.5 57.6 95C57.9 94.7 57.4 93.8 57 93.6Z" fill="#D3DAE0"/>
<path d="M32 101.6C31.7 101.9 31.7 102.4 32 102.7C32.3 103 32.9 103 33.2 102.6C33.5 102.2 33.5 101.8 33.2 101.5C32.8 101.2 32.3 101.2 32 101.6Z" fill="#D3DAE0"/>
<path d="M31.1 96.9C30.9 97.3 31 97.9 31.3 98.1C31.7 98.4 32.1 98.3 32.4 98C32.7 97.6 32.7 97 32.3 96.7C31.9 96.4 31.3 96.5 31.1 96.9Z" fill="#D3DAE0"/>
<path d="M29.9 120.9C29.1 120.3 28.1 120.5 27.3 121.4C27 121.8 26.9 122.2 26.9 122.7C26.6 122.6 26.2 122.6 26.1 123C26 123.1 26 123.2 26.1 123.3C27.6 122.8 29 122.2 30.4 121.6C30.3 121.3 30.1 121.1 29.9 120.9Z" fill="#D3DAE0"/>
<path d="M32.5 106.5C32.1 107 32.2 107.7 32.9 108.2C33.4 108.6 34 108.4 34.4 107.8C34.8 107.3 34.8 106.8 34.4 106.5C34 106.1 32.8 106.2 32.5 106.5Z" fill="#D3DAE0"/>
<path d="M30 100.7C29.8 101.1 29.9 101.6 30.3 101.8C30.8 102 31.6 101.9 31.7 101.6C31.8 101.3 31.5 100.6 31.1 100.4C30.7 100.1 30.3 100.2 30 100.7Z" fill="#D3DAE0"/>
<path d="M35 91.7C34.9 91.9 35.2 92.3 35.3 92.3C35.4 92.4 35.8 92.4 35.9 92.2C36 92 35.9 91.7 35.7 91.6C35.6 91.5 35.1 91.5 35 91.7Z" fill="#D3DAE0"/>
<path d="M34.5 108.7C34.6 108.6 34.5 108.5 34.4 108.4C34.3 108.4 34.1 108.4 34.1 108.5V108.7C34.3 108.8 34.4 108.8 34.5 108.7Z" fill="#D3DAE0"/>
<path d="M33.7 114.8C33.3 115.3 33.3 116 33.7 116.3C34.1 116.6 34.7 116.6 35 116.3C35.3 115.9 35.2 115 34.8 114.7C34.4 114.4 34 114.4 33.7 114.8Z" fill="#D3DAE0"/>
<path d="M25.4 116.6C24.9 117.2 24.9 117.7 25.2 118C25.6 118.3 26.5 118.2 26.9 117.8C27.2 117.5 26.9 116.6 26.5 116.3C26.1 116.1 25.7 116.2 25.4 116.6Z" fill="#D3DAE0"/>
<path d="M25.5 94.6C25.3 94.8 25.3 95.5 25.6 95.7C25.9 96 26.5 95.6 26.8 95.4C27 95.2 27.2 94.2 26.8 94C26.6 93.7 25.8 94.3 25.5 94.6Z" fill="#D3DAE0"/>
<path d="M25.2 101C25.5 101.2 25.9 101.3 26.2 101C26.5 100.7 26.2 99.9 25.9 99.8C25.6 99.7 25.3 100 25.1 100.2C24.9 100.4 24.9 100.7 25.2 101Z" fill="#D3DAE0"/>
<path d="M27 108.3C26.7 108.6 26.8 109.4 27.1 109.6C27.8 110.2 28.7 110.2 29 109.8C29.3 109.4 29.1 108.3 28.7 108C28.3 107.7 27.3 107.9 27 108.3Z" fill="#D3DAE0"/>
<path d="M24.9 114C25.4 114.3 26 114.2 26.3 113.8C26.5 113.4 26.4 112.9 26 112.7C25.6 112.5 25.3 112.3 25 112.6C24.5 113.2 24.6 113.8 24.9 114Z" fill="#D3DAE0"/>
<path d="M26.5 112.3C26.6 112 26.3 111.8 26.1 111.7C26 111.6 25.7 111.8 25.6 111.9C25.6 112.1 25.6 112.4 25.8 112.4C25.9 112.6 26.3 112.7 26.5 112.3Z" fill="#D3DAE0"/>
<path d="M35.7 107.1C35.9 107.2 36.3 107.1 36.4 106.9C36.5 106.7 36.7 106.2 36.5 106C36.3 105.8 35.7 106.1 35.5 106.2C35.3 106.3 35.3 107 35.7 107.1Z" fill="#D3DAE0"/>
<path d="M26.9 104.5C27.2 104.1 27.1 103.5 26.7 103.2C26.3 103 25.9 103 25.6 103.4C25.2 103.8 25.3 104.4 25.7 104.7C26.1 104.9 26.7 104.8 26.9 104.5Z" fill="#D3DAE0"/>
<path d="M28.8 104.2C28.4 104.7 28.4 105.5 28.8 105.7C29.4 106.1 30.4 105.9 30.9 105.3C31.2 104.9 31 104.3 30.5 103.9C29.9 103.6 29.2 103.7 28.8 104.2Z" fill="#D3DAE0"/>
<path d="M44.2 97.1C43.9 97.2 43.8 97.9 44.2 98.3C44.3 98.4 44.7 98.4 44.9 98.3C45.1 98.2 45.3 97.8 45.3 97.6C45.2 97.1 44.5 97 44.2 97.1Z" fill="#D3DAE0"/>
<path d="M36.1 98.8C35.9 99.2 36.2 99.8 36.9 100.2C37.1 100.1 37.4 100.1 37.6 99.9C38 99.4 37.8 98.7 37.4 98.5C37 98.2 36.3 98.4 36.1 98.8Z" fill="#D3DAE0"/>
<path d="M44.1 100C43.7 100.7 43.9 101.5 44.6 101.9C45.3 102.4 46.6 102.1 47 101.3C47.4 100.7 47 99.4 46.3 99C45.7 98.6 44.7 99 44.1 100Z" fill="#D3DAE0"/>
<path d="M50.5 91C50.3 91.1 50.2 91.5 50.3 91.8C50.4 92 50.6 92.3 50.9 92.4C51.1 92.5 51.4 92.3 51.5 92.1C51.8 91.8 52 91.4 52.2 91C52.4 90.7 52.2 90.4 51.9 90.3C51.8 90.3 51.6 90.3 51.5 90.4C51.3 90.7 50.9 90.8 50.5 91Z" fill="#D3DAE0"/>
<path d="M57.3 82.3C57.5 82.1 57.1 81.8 57 81.8C56.8 81.8 56.6 81.8 56.5 82C56.4 82.2 56.6 82.4 56.7 82.4C56.8 82.4 57.2 82.5 57.3 82.3Z" fill="#D3DAE0"/>
<path d="M55.8 79.3C55.5 79.8 55.6 80.5 56.1 80.7C56.5 80.8 57.5 79.9 57.4 79.4C57.3 78.9 56.1 78.8 55.8 79.3Z" fill="#D3DAE0"/>
<path d="M54.4 91C54.1 91.6 54.4 92.1 55.2 92.5C55.6 92.7 56.4 92.5 56.6 92C56.8 91.5 56.5 90.2 56.1 90.1C55.5 89.9 54.7 90.3 54.4 91Z" fill="#D3DAE0"/>
<path d="M53.7 86.8C53.3 86.5 52.1 86.8 51.9 87.2C51.6 87.8 51.8 88.3 52.5 88.6C53.1 88.9 53.6 88.7 53.9 88C54.1 87.5 54.1 87 53.7 86.8Z" fill="#D3DAE0"/>
<path d="M37.3 102.7C37.3 102.9 37.4 103.2 37.5 103.3C38 103.5 38.5 103.4 38.6 103C38.6 102.8 38.5 102.4 38.3 102.2C38 102 37.3 102.3 37.3 102.7Z" fill="#D3DAE0"/>
<path d="M37.8 92.1C37.7 92 37.4 92.1 37.3 92.2C37.2 92.3 37.4 92.6 37.5 92.7C37.6 92.8 38 92.8 38.1 92.6C38.3 92.5 38 92.2 37.8 92.1Z" fill="#D3DAE0"/>
<path d="M37.9 106.4C37.7 106.8 38 107.1 38.3 107.2C38.6 107.3 39.3 107.4 39.4 107.1C39.5 106.8 39.1 106.2 38.8 106C38.5 105.8 38.1 106 37.9 106.4Z" fill="#D3DAE0"/>
<path d="M38.7 98.5C38.4 98.8 38.5 99.4 38.9 99.7C39.4 100 39.9 100 40.2 99.6C40.5 99.2 40.4 98.6 40 98.3C39.5 98 39 98.1 38.7 98.5Z" fill="#D3DAE0"/>
<path d="M43.8 84.4C43.7 84.4 43.5 84.3 43.3 84.6C43.2 84.9 43.4 85.7 43.9 85.8C44.4 85.9 45 85.4 44.8 84.9C44.7 84.6 44.1 84.5 43.8 84.4Z" fill="#D3DAE0"/>
<path d="M42.7 110.9C42.5 110.6 42.2 110.3 41.8 110.4C40.5 110.8 41.1 111.9 40.8 112.1C40.4 112.3 39.6 112.3 39 112.6C39.1 112.5 39.1 112.5 39.2 112.4C39.6 111.8 39.6 111 39.1 110.6C38.9 110.4 38.5 110.4 38.1 110.5C38.4 110 38.3 109.3 37.8 109C37.2 108.7 36.2 108.9 36 109.4C35.7 110 36 110.9 36.5 111.2C36.7 111.3 36.9 111.3 37.1 111.2C36.8 111.8 36.9 112.3 37.5 112.7C37.9 113 38.3 113 38.6 112.8C38.1 113.3 37.8 113.9 38.3 114.6C38.6 115 38.9 115.2 39.3 115.3C39.1 115.4 38.9 115.5 38.7 115.7C38.4 115.3 38.1 114.8 37.5 115.1C37.1 115.3 37 115.6 37 116C37.2 116.7 37.7 116.6 38.3 116.6C38.3 116.7 38.4 116.8 38.4 116.9C38.3 116.8 38.2 116.8 38.1 116.8C37.8 116.7 37.4 116.8 37.3 116.9C37.1 117.1 37.1 117.9 37.5 118.1C37.5 118.2 37.5 118.3 37.5 118.3C39.2 117.4 40.9 116.5 42.6 115.5C42.4 115.4 42.3 115.4 42.1 115.3C41.6 115.3 41.2 115.4 40.9 115.6C40.8 115.5 40.8 115.5 40.7 115.4C40.5 115.3 40.4 115.2 40.2 115.1C40.3 115 40.5 115 40.6 114.9C41.6 114.2 40.8 113.3 41.6 113.1C42.4 112.9 42.2 113.7 43.3 113.4C44.4 113.1 44.8 111.9 44.2 111.4C43.8 111.1 43.4 111 43.1 111C43 111 42.9 110.9 42.7 110.9Z" fill="#D3DAE0"/>
<path d="M40 101.3C40.2 101 39.9 100.7 39.6 100.5C39.2 100.3 38.7 100.5 38.7 100.8C38.7 101.1 38.5 101.7 39 101.8C39.4 102.1 39.8 101.6 40 101.3Z" fill="#D3DAE0"/>
<path d="M53.4 103.8C53.2 104.2 53.3 104.6 53.7 104.9C54.1 105.1 54.5 105 54.8 104.6C55.1 104.2 54.9 103.6 54.6 103.4C54.1 103.2 53.6 103.4 53.4 103.8Z" fill="#D3DAE0"/>
<path d="M2.6 103C2.5 103.1 2.3 103.8 2.5 103.9C2.7 104 3.30001 103.9 3.30001 103.7C3.40001 103.5 3.50001 103.1 3.40001 102.9C3.20001 102.8 2.7 102.8 2.6 103Z" fill="#D3DAE0"/>
<path d="M1.7 106.1C1.8 106.3 1.9 106.5 2.1 106.5C2.2 106.5 2.6 106.2 2.6 106.1C2.6 106 2.2 105.8 2 105.8C1.9 105.7 1.6 106 1.7 106.1Z" fill="#D3DAE0"/>
<path d="M2.8 114.9C2.4 115 1.9 115.8 2 116.5C2.1 116.9 2.7 117.3 3.1 117.2C3.7 117.1 4.2 116.5 4.1 116C4.1 115.4 3.3 114.8 2.8 114.9Z" fill="#D3DAE0"/>
<path d="M0.400033 124.1C0.500033 124.7 1.00003 125 1.50003 124.9C2.00003 124.8 2.20003 124.4 2.10003 123.9C2.00003 123.5 1.90003 123.1 1.40003 123.1C0.700033 123.2 0.300033 123.6 0.400033 124.1Z" fill="#D3DAE0"/>
<path d="M6.60002 120.2C6.50002 120.5 6.60003 121 6.80003 121.1C7.00003 121.2 7.40002 121 7.60002 120.9C7.70002 120.7 7.70002 120.1 7.50002 119.9C7.30002 119.7 6.70002 120 6.60002 120.2Z" fill="#D3DAE0"/>
<path d="M5.9 121.5C5.5 121.5 5 122.1 5 122.5C5.1 123.4 5.6 124.1 6.2 124C6.7 123.9 7.3 123.1 7.3 122.5C7.2 122 6.4 121.4 5.9 121.5Z" fill="#D3DAE0"/>
<path d="M0.500026 122.9C0.400026 122.8 0.200023 122.9 0.200023 123C0.200023 123.1 0.100023 123.2 0.200023 123.3C0.300023 123.4 0.500025 123.4 0.600025 123.3C0.700025 123.1 0.600026 122.9 0.500026 122.9Z" fill="#D3DAE0"/>
<path d="M3.10002 127.7C3.20002 128.1 3.70001 128.6 4.20001 128.9C4.90001 128.8 5.70002 128.7 6.40002 128.6C7.30002 128.1 7.80002 127.4 7.50002 126.9C7.20002 126.3 6.10002 126 5.50002 126.3C5.30002 126.4 5.20002 126.5 5.10002 126.6C4.90002 126.5 4.60002 126.4 4.40002 126.4C3.60002 126.4 3.00002 127.1 3.10002 127.7Z" fill="#D3DAE0"/>
<path d="M6.10001 117.2C5.70001 116.9 4.90001 117.1 4.70001 117.4C4.40001 117.8 4.50001 119.1 4.90001 119.4C5.40001 119.7 6.20001 119.4 6.70001 118.8C7.00001 118.2 6.80001 117.6 6.10001 117.2Z" fill="#D3DAE0"/>
<path d="M24 119.6C23.3 119.6 22.9 119.3 22.6 118.8C22.1 118.4 21.4 118.4 21 118.6C20.7 118.9 20.5 120 20.8 120.4C21 120.7 21.3 121.2 21.8 121C22.4 120.7 22.9 120.9 23.5 121.1C24 121.3 24.3 121.1 24.5 120.6C24.7 120.2 24.5 119.5 24 119.6Z" fill="#D3DAE0"/>
<path d="M0.300004 127.6C0.700004 128 1.2 128 1.5 127.7C1.9 127.3 1.9 126.3 1.4 125.9C1.1 125.6 0.399999 125.6 0.0999993 126C-0.200001 126.4 -0.199996 127.2 0.300004 127.6Z" fill="#D3DAE0"/>
<path d="M1.20002 129.2C0.90002 129.1 0.500021 129 0.100021 129.1C-0.0999786 129.1 -0.399976 129.3 -0.599976 129.4C2.44379e-05 129.4 0.60002 129.3 1.20002 129.2Z" fill="#D3DAE0"/>
<path d="M14.3 126.6C14.3 126.3 13.7 126.1 13.5 126C13.1 125.9 12.7 126.4 12.9 126.8L13 126.9C12.9 127 12.9 127.1 12.8 127.2C12.8 127.2 12.8 127.2 12.8 127.3C13.3 127.2 13.7 127.1 14.2 127C14.2 127 14.2 127 14.2 126.9C14.3 126.8 14.3 126.7 14.3 126.6Z" fill="#D3DAE0"/>
<path d="M20.1 105.8C19.8 106.2 20.2 107.1 20.7 107.5C21.1 107.8 21.8 107.6 22 107.2C22.3 106.7 22.3 105.9 21.9 105.7C21.4 105.3 20.4 105.4 20.1 105.8Z" fill="#D3DAE0"/>
<path d="M7.4 102.3C7.1 102.7 7.1 103.2 7.5 103.5C7.8 103.8 8.40001 103.7 8.60001 103.4C8.90001 103 8.79999 102.5 8.39999 102.2C8.09999 101.9 7.7 101.9 7.4 102.3Z" fill="#D3DAE0"/>
<path d="M18.2 115.1C17.8 115.1 17.4 115.2 17.3 115.7C17.2 115.9 17.1 116.1 17 116.3C16.6 116.4 16.2 116.9 16.3 117.3C16.3 117.7 16.6 118 17 118C17.4 118.5 17.9 118.5 18.5 117.7C18.6 117.3 18.8 116.6 18.9 115.9C18.9 115.6 18.7 115.2 18.2 115.1Z" fill="#D3DAE0"/>
<path d="M22.1 109.8C21.6 110.2 21.3 110.7 21.6 111.2C21.7 111.4 22.2 111.6 22.3 111.5C22.6 111.4 23 111.1 23 110.8C23.2 110.1 22.6 110 22.1 109.8Z" fill="#D3DAE0"/>
<path d="M21.9 117.4C22.1 117 21.9 116.1 21.4 115.8C21 115.5 20.5 115.6 20.2 116.1C19.7 116.9 19.7 117.4 20.2 117.8C20.7 118 21.6 117.8 21.9 117.4Z" fill="#D3DAE0"/>
<path d="M17.4 108.6C17.1 108.5 16.8 108.4 16.6 108.5C16.4 108.6 16.5 109.5 16.8 109.7C17.1 109.9 17.4 109.7 17.5 109.5C17.8 109.2 17.7 108.8 17.4 108.6Z" fill="#D3DAE0"/>
<path d="M21.6 113.4C21.6 114.4 21.8 114.8 22.4 114.8C22.8 114.9 23.1 114.7 23.3 114.3C23.5 113.9 23.5 113.3 23.1 113.1C22.5 112.8 22 113.1 21.6 113.4Z" fill="#D3DAE0"/>
<path d="M19.5 96.6C19.4 96.7 19.4 97 19.5 97.1C19.6 97.2 20 97.4 20.2 97.2C20.3 97 20.2 96.6 20 96.5C19.9 96.5 19.6 96.5 19.5 96.6Z" fill="#D3DAE0"/>
<path d="M11.8 118.7C11.8 119.3 12.7 120.2 13.6 120C14.5 119.8 14.9 119.2 14.9 118.6C15 118 14.1 117.5 13.2 117.4C12.6 117.3 11.8 118.1 11.8 118.7Z" fill="#D3DAE0"/>
<path d="M13 100C12.9 100.1 13 100.4 13 100.5C13.2 100.6 13.4 100.6 13.6 100.5C13.7 100.4 13.8 99.9 13.7 99.8C13.5 99.7 13.1 99.9 13 100Z" fill="#D3DAE0"/>
<path d="M8.89999 108C8.79999 108 8.5 108.3 8.5 108.4C8.5 108.6 8.69999 109 8.89999 108.9C9.09999 108.8 9.3 108.5 9.3 108.3C9.4 108.2 9.09999 108 8.89999 108Z" fill="#D3DAE0"/>
<path d="M13.5 110.2C13.4 110.5 13.6 110.8 13.7 111C13.8 111.1 13.9 111.2 14.1 111.2C14 111.4 13.9 111.5 13.9 111.7C13.9 112.1 14.6 112.3 15 112.3C15.3 112.3 16.1 111.8 16 111.3C16 110.9 15.3 110.8 14.8 110.7C15 110.4 14.9 110.1 14.7 109.8C14.5 109.7 13.6 109.8 13.5 110.2Z" fill="#D3DAE0"/>
<path d="M16.1 101.8C15.8 102.3 15.8 102.7 16.1 102.9C16.5 103.1 17.3 103 17.6 102.7C17.9 102.4 17.7 101.8 17.3 101.5C16.9 101.3 16.4 101.4 16.1 101.8Z" fill="#D3DAE0"/>
<path d="M15.5 100.2C15.5 100.3 15.4 100.4 15.5 100.5C15.6 100.6 15.8 100.6 15.9 100.5C16 100.4 15.9 100.2 15.8 100.2C15.7 100.2 15.5 100.2 15.5 100.2Z" fill="#D3DAE0"/>
<path d="M14.8 103.7C14.7 103.9 14.7 104.2 14.9 104.3C15 104.4 15.5 104.6 15.6 104.4C15.7 104.2 15.6 103.9 15.4 103.8C15.2 103.7 14.9 103.5 14.8 103.7Z" fill="#D3DAE0"/>
<path d="M99.7 76.5C135.764 76.5 165 47.2642 165 11.2C165 -24.8642 135.764 -54.1 99.7 -54.1C63.6358 -54.1 34.4 -24.8642 34.4 11.2C34.4 47.2642 63.6358 76.5 99.7 76.5Z" fill="#F04E98"/>
<path d="M151.6 33.7C151.7 33.6 151.7 33.1 151.6 33C151.5 32.9 151.1 33.2 151 33.3C150.9 33.4 151 33.7 151.1 33.7C151.3 33.8 151.5 33.8 151.6 33.7Z" fill="#E32682"/>
<path d="M92.1 74.8C92 74.5 91.6 74.6 91.4 74.6C91.3 74.6 91.1 74.9 91.2 75C91.3 75.2 91.5 75.3 91.7 75.3C91.7 75.3 92.1 75.1 92.1 74.8Z" fill="#E32682"/>
<path d="M143.4 46.5C143.5 46.4 143.5 46.3 143.5 46.2C143.5 46.1 143.3 46.1 143.2 46.1C143.1 46.1 143 46.3 143.1 46.4C143.1 46.4 143.3 46.5 143.4 46.5Z" fill="#E32682"/>
<path d="M149.5 46.4C149.2 47.1 149.5 48.2 150.2 48.6C150.9 49 151.8 48.7 152.3 47.8C152.7 47.1 152.5 46.2 151.8 45.8C151.1 45.3 149.9 45.7 149.5 46.4Z" fill="#E32682"/>
<path d="M153.5 37.3C153.6 37.4 154.1 37.5 154.2 37.3C154.3 37.1 154.1 36.8 154 36.7C153.8 36.6 153.5 36.5 153.4 36.7C153.3 36.9 153.4 37.2 153.5 37.3Z" fill="#E32682"/>
<path d="M158.9 38C158.8 38.2 158.8 38.4 158.9 38.6C159.1 38.3 159.2 37.9 159.4 37.6C159.2 37.7 159 37.8 158.9 38Z" fill="#E32682"/>
<path d="M153.9 33.3C154 33.2 153.8 33 153.8 33C153.7 33 153.5 33.1 153.5 33.1C153.5 33.2 153.5 33.3 153.6 33.4C153.7 33.5 153.8 33.5 153.9 33.3Z" fill="#E32682"/>
<path d="M140.8 60.3C140.3 61.2 140.2 61.6 140.6 61.9C140.6 61.9 140.7 61.9 140.7 62C141.2 61.6 141.6 61.2 142.1 60.8C141.8 60.4 141.2 60.4 140.8 60.3Z" fill="#E32682"/>
<path d="M130.1 50.7C130.2 50.9 130.4 51 130.6 51C130.7 51 131.1 50.8 131 50.5C130.9 50.2 130.5 50.3 130.3 50.3C130.2 50.4 130.1 50.7 130.1 50.7Z" fill="#E32682"/>
<path d="M131 41C130.8 41 130.3 41.4 130.4 41.7C130.5 42 131 42.1 131.2 42C131.4 41.9 131.7 41.6 131.7 41.4C131.6 41.2 131.2 41 131 41Z" fill="#E32682"/>
<path d="M130.3 56.3C130.2 56.5 130.5 56.8 130.6 56.9C130.7 57 131 56.9 131.1 56.8C131.2 56.7 131 56.4 130.9 56.3C130.9 56.2 130.5 56.1 130.3 56.3Z" fill="#E32682"/>
<path d="M127.1 63.2C127.4 63.9 127.9 64.2 128.6 64.6C129.1 64.9 129.6 64.4 129.7 65C129.8 65.6 130.1 66.6 130.9 66.6C130.7 66.8 130.6 67.1 130.5 67.4C130.9 67.8 131.2 68.3 131.8 68C132.2 67.8 132.4 67.4 132.3 67C132.2 66.6 132 66.4 131.7 66.4C132.1 66.1 132.3 65.5 132.2 65.1C132.6 65.4 133.2 65.5 133.7 65.3C134.4 65 134.8 64 134.5 63.3C134.2 62.6 133.4 62.2 132.8 62.5C132.2 62.7 131.8 63.6 131.7 64.3C131.5 64.1 131.3 64 131.1 64C130.6 64 130.9 62.9 130.2 62.8C129.5 62.8 129.3 62 128.4 62C127.6 61.9 126.8 62.5 127.1 63.2Z" fill="#E32682"/>
<path d="M96.1 76.2C95.9 75.9 95.5 75.9 95.1 76C95.1 75.9 95.1 75.8 95.1 75.7C95 75.4 94.6 75.4 94.5 75.5C94.3 75.6 94.1 75.7 94.2 76C94.2 76.1 94.3 76.1 94.3 76.2C95 76.3 95.6 76.3 96.3 76.4C96.2 76.3 96.2 76.2 96.1 76.2Z" fill="#E32682"/>
<path d="M135.9 53.1C135.6 53.3 135.6 53.6 135.6 53.9C135.6 54.3 136.1 54.6 136.5 54.5H136.6C136.6 54.7 136.7 54.9 136.8 54.9C136.9 55 137.4 55.1 137.5 54.9C137.6 54.7 137.3 54.3 137.2 54.3C137.1 54.3 137 54.3 136.9 54.3C137 54.1 137 54 137 53.7C137 53.3 136.2 52.9 135.9 53.1Z" fill="#E32682"/>
<path d="M142.2 48.6C142.4 49 143.1 49.4 143.5 49.3C143.9 49.2 144.1 48.6 143.9 48.2C143.7 47.8 143.3 47.6 142.8 47.8C142.3 47.9 142 48.2 142.2 48.6Z" fill="#E32682"/>
<path d="M129.7 59.2C129.4 59.7 129.6 60.9 130.5 61.3C131.3 61.6 132 61.4 132.4 60.9C132.8 60.4 132.4 59.5 131.7 58.9C131.2 58.5 130 58.7 129.7 59.2Z" fill="#E32682"/>
<path d="M155.9 41.2C155.7 41.4 155.9 42.2 156.3 42.4C156.7 42.6 156.9 42.3 157 42.1C157.2 41.7 157.1 41.3 156.7 41.2C156.4 41.1 156 41 155.9 41.2Z" fill="#E32682"/>
<path d="M155.4 34.2C155 34 154.5 34.2 154.3 34.7C154 35.2 154.1 35.6 154.5 35.8C154.9 36 155.7 35.7 155.9 35.4C156.1 34.9 155.9 34.4 155.4 34.2Z" fill="#E32682"/>
<path d="M104.9 75.3C104.7 75.1 104.5 75 104.2 74.9C104 74.8 103.7 74.7 103.5 74.6C102.7 74.4 102.1 74.5 101.9 75.2C101.7 75.6 101.8 76 102 76.4C103.2 76.4 104.5 76.3 105.7 76.2C105.4 75.9 105.1 75.6 104.9 75.3Z" fill="#E32682"/>
<path d="M112 67.3C112.3 67.2 112.2 66.4 112.2 66.2C112.1 66 111.7 65.9 111.5 66C111.4 66 111.4 66 111.3 66.1C111.3 65.9 111.3 65.8 111.2 65.6C110.9 65.1 110.1 65 109.6 65.3C109.1 65.6 109 66 109.2 66.4C109.5 66.9 110.4 67.2 110.9 66.9C111 66.8 111.1 66.8 111.2 66.7C111.3 66.9 111.7 67.5 112 67.3Z" fill="#E32682"/>
<path d="M129 69.3C128.8 69.4 128.6 69.5 128.5 69.8C128.8 69.7 129.1 69.5 129.4 69.4C129.2 69.3 129.1 69.3 129 69.3Z" fill="#E32682"/>
<path d="M150.1 40.8C149.8 40.6 149.5 40.7 149.4 41C149.2 41.4 149.2 41.7 149.6 42C149.9 42.2 150.5 42 150.7 41.7C150.8 41.5 150.6 41 150.1 40.8Z" fill="#E32682"/>
<path d="M153.1 43.3C153.1 43.6 153.2 43.9 153.5 44.1C153.8 44.4 154.3 44.3 154.5 43.9C154.7 43.5 154.6 43.2 154.3 42.9C154 42.6 153.1 43 153.1 43.3Z" fill="#E32682"/>
<path d="M154.6 45.4C154.3 45.5 154.3 45.9 154.5 46.2C154.5 46.3 154.6 46.3 154.7 46.4C154.9 46.1 155 45.9 155.2 45.6C155 45.4 154.9 45.3 154.6 45.4Z" fill="#E32682"/>
<path d="M150.8 51.8C150.9 51.7 151 51.6 151 51.5C150.9 51.6 150.8 51.7 150.8 51.8Z" fill="#E32682"/>
<path d="M114.4 74.5C114.5 74.5 114.6 74.5 114.6 74.5C114.8 74.3 114.7 73.6 114.6 73.6C114.4 73.5 113.8 73.3 113.7 73.5C113.7 73.6 113.6 73.6 113.6 73.7C113.6 73.7 113.6 73.7 113.5 73.7C112.8 73.6 112.4 74.3 112.4 74.7C112.4 74.8 112.5 75 112.7 75.1C113.2 75 113.8 74.9 114.3 74.8C114.4 74.7 114.4 74.6 114.4 74.5Z" fill="#E32682"/>
<path d="M120.5 72.5C122.2 72 122.5 71.5 121.7 70.2C121.3 69.5 120.4 69.3 119.8 69.9C119.4 70.4 119.1 71 118.7 71.7C118.2 71.7 117.6 71.8 117.2 72.1C116.7 72 116.2 71.9 116 72.1C115.6 72.5 115.6 73.4 116 74C116.1 74.2 116.3 74.3 116.4 74.3C117.7 73.9 119.1 73.6 120.4 73.1C120.4 72.9 120.4 72.7 120.5 72.5Z" fill="#E32682"/>
<path d="M110.9 74.8C110.5 74.2 109.8 74 109.4 74.4C109.4 74.4 109.4 74.4 109.4 74.3C109.2 73.9 108.7 73.7 108.3 73.8C107.9 74 107.6 74.5 107.8 74.9C108 75.4 108.6 75.6 109 75.4C109.1 75.4 109.1 75.3 109.2 75.3C109.2 75.5 109.2 75.7 109.2 75.8C109.8 75.7 110.5 75.6 111.1 75.5C111 75.2 111 75 110.9 74.8Z" fill="#E32682"/>
<path d="M103.7 72.4C103.2 72.6 103.1 73.5 103.4 74C103.6 74.4 104.3 74.6 104.7 74.4C105.4 74 105.8 73.2 105.5 72.7L105.4 72.6C105.5 72.6 105.5 72.6 105.6 72.5C106.2 72.2 106.3 71.3 106.2 71C106.1 70.7 105.1 70.5 104.6 70.9C104.3 71.2 104.2 71.6 104.5 72C104.5 72 104.5 72 104.6 72.1C104.3 72.2 104 72.2 103.7 72.4Z" fill="#E32682"/>
<path d="M121.8 68.4C122.2 68.3 122.7 67.7 122.6 67.3C122.4 66.5 121.8 65.9 121.2 66.1C120.7 66.2 120.2 67 120.3 67.7C120.4 68.1 121.2 68.5 121.8 68.4Z" fill="#E32682"/>
<path d="M136.3 65.2C136.7 64.9 137.1 64.7 137.5 64.4C137.4 64.4 137.4 64.4 137.3 64.4C137 64.4 136.6 64.8 136.3 65.2Z" fill="#E32682"/>
<path d="M142.4 59.2C142.7 59.3 143.2 59.2 143.4 59C143.9 58.6 143.4 58.1 143.2 57.7C142.9 57.7 142.6 57.8 142.3 57.9L142.2 57.8C142.1 57.8 141.9 57.9 141.9 57.9C141.9 58 141.9 58.1 142 58.2C142 58.3 141.9 58.4 141.9 58.5C142 58.8 142.2 59.2 142.4 59.2Z" fill="#E32682"/>
<path d="M132.8 67.5H132.9C132.8 67.4 132.8 67.4 132.8 67.5Z" fill="#E32682"/>
<path d="M157.4 28.8C157.3 28.7 157 28.8 156.9 28.9C156.8 29 156.9 29.3 157 29.4C157.1 29.5 157.6 29.6 157.7 29.4C157.8 29.2 157.5 28.9 157.4 28.8Z" fill="#E32682"/>
<path d="M132.6 57.9C132.6 58.1 132.9 58.5 133.1 58.5C133.7 58.7 133.9 58.2 134 57.8C133.8 57.3 133.4 57 132.9 57.3C132.7 57.4 132.5 57.7 132.6 57.9Z" fill="#E32682"/>
<path d="M116.7 50.8C116.9 50.7 117 50.3 116.9 50.1C116.8 50 116.6 49.7 116.4 49.8C116.2 49.9 116.1 50.2 116.1 50.3C116.2 50.5 116.5 50.8 116.7 50.8Z" fill="#E32682"/>
<path d="M123.8 62.8C123.9 63.2 124.9 63.6 125.4 63.5C125.9 63.4 126 62.9 125.8 62.3C125.6 61.6 125.2 61.3 124.7 61.5C124 61.7 123.6 62.2 123.8 62.8Z" fill="#E32682"/>
<path d="M110.7 47.8C110.9 47.8 110.9 47.4 110.9 47.3C110.9 47.2 110.7 46.9 110.4 47C110.2 47.1 110.2 47.5 110.2 47.7C110.3 47.7 110.6 47.8 110.7 47.8Z" fill="#E32682"/>
<path d="M131.2 52.9C130.5 53.1 130 54.2 130.2 54.9C130.4 55.7 131.3 56.1 132.3 55.8C133.1 55.6 133.5 54.8 133.3 54C133.1 53.2 132 52.7 131.2 52.9Z" fill="#E32682"/>
<path d="M109.7 53C109.7 53.4 110 53.8 110.4 53.9C110.8 54 111.1 53.9 111.2 53.6C111.5 53 111.2 52.6 110.8 52.2C110.2 52.3 109.7 52.4 109.7 53Z" fill="#E32682"/>
<path d="M125.9 54.7C125.7 54.3 125 53.9 124.6 54.1C124.1 54.3 123.4 55.4 123.6 55.8C123.8 56.3 124.7 56.6 125.4 56.3C126 56 126.2 55.5 125.9 54.7Z" fill="#E32682"/>
<path d="M122.9 67.9C122.7 68.1 122.6 68.3 122.4 68.5C121.9 69.2 122 69.8 122.5 70.2C123.1 70.7 123.8 70.6 124.4 70.1C125 69.5 125.6 68.9 126.3 68.4C126.9 68 127.3 67.2 127 66.8C126.7 66.4 125.9 66.5 125.8 66.7C125.4 67.2 125 66.9 124.6 66.9C124.2 66.9 123.8 67.1 123.5 67.3C123.2 67.4 123 67.7 122.9 67.9Z" fill="#E32682"/>
<path d="M125 58.5C125.2 58.4 125.6 57.9 125.5 57.7C125.4 57.5 124.7 57.3 124.6 57.4C124.4 57.6 124.1 58 124.2 58.2C124.3 58.4 124.8 58.6 125 58.5Z" fill="#E32682"/>
<path d="M88.1 75C88.3 75 88.4 74.9 88.5 74.8C88.8 74.4 88.7 74.1 88.4 73.8C88.1 73.6 87.8 73.6 87.5 73.8C87.2 73.7 86.9 73.7 86.6 73.9C86.3 74.2 86.2 74.7 86.3 75C86.8 75.1 87.3 75.2 87.9 75.3C88 75.3 88 75.2 88.1 75Z" fill="#E32682"/>
<path d="M104.4 55C103.9 54.5 103.5 54.7 102.9 55C102.9 55.6 102.8 56.1 103.4 56.3C103.8 56.4 104.2 56.3 104.5 55.9C104.7 55.6 104.7 55.3 104.4 55Z" fill="#E32682"/>
<path d="M102.7 66.4C102.8 66.8 103.4 67.2 103.7 67.1C103.7 67.1 103.8 67.1 103.8 67C104.2 67.7 105.6 68.1 106.2 67.6C106.8 67.1 107 66.1 106.6 65.5C106.1 64.8 105.2 64.6 104.5 65C104.2 65.2 104 65.4 103.9 65.6C103.7 65.4 103.4 65.3 103.2 65.4C102.8 65.5 102.5 66 102.7 66.4Z" fill="#E32682"/>
<path d="M87.9 61.6C88.4 62.3 89.1 62.4 89.7 62C90.4 61.5 90.6 60.4 90 59.7C89.6 59.2 88.5 59 87.9 59.4C87.4 59.9 87.4 60.8 87.9 61.6Z" fill="#E32682"/>
<path d="M104.4 59.4C104.6 59.2 104.5 58.5 104.4 58.2C104.3 57.9 103.7 57.9 103.4 58.1C103.1 58.4 103 58.7 103.3 59C103.4 59.1 103.8 59.3 104 59.4C103.9 59.4 103.8 59.4 103.8 59.4C103.6 59.5 103.5 59.7 103.5 59.9C103.5 60 103.8 60.2 103.9 60.2C104.1 60.1 104.4 60 104.4 59.7C104.4 59.6 104.3 59.5 104.2 59.5C104.2 59.4 104.4 59.4 104.4 59.4Z" fill="#E32682"/>
<path d="M115.2 60C115.3 60.5 115.7 60.8 116.2 60.7C116.8 60.6 117.3 59.8 117.1 59.2C117 58.7 116.4 58.4 116 58.5C115.4 58.6 115 59.4 115.2 60Z" fill="#E32682"/>
<path d="M84.3 73.1C84.1 73.1 84 73.1 83.9 73.2C83.6 73.4 83.4 73.9 83.4 74.3C84.1 74.5 84.7 74.6 85.4 74.8C85.5 74.7 85.5 74.6 85.6 74.5C85.9 74.1 85.8 73.3 85.4 73.1C85 72.8 84.6 72.9 84.3 73.1Z" fill="#E32682"/>
<path d="M99.7 55.1C99.3 55.4 99.1 56 99.4 56.3C99.6 56.6 100.2 56.7 100.5 56.5C100.8 56.3 101 55.6 100.8 55.3C100.7 55 100.1 54.9 99.7 55.1Z" fill="#E32682"/>
<path d="M93 62.3C92.6 62.6 92.5 63.2 92.9 63.6C93.2 63.9 93.8 64 94.1 63.7C94.4 63.4 94.5 62.8 94.2 62.5C93.9 62.1 93.4 62.1 93 62.3Z" fill="#E32682"/>
<path d="M95.7 48.8C95.4 49.1 95.2 49.5 95.4 49.9C95.6 50.3 96.1 50.4 96.5 50.2C96.8 50 97 49.5 96.8 49.1C96.6 48.7 96 48.6 95.7 48.8Z" fill="#E32682"/>
<path d="M94.4 68.5C94.7 68.9 95 68.9 95.4 68.7C95.5 68.7 95.5 68.6 95.6 68.6C95.8 68.9 96.1 69.1 96.5 69C96.9 68.9 97.2 68.5 97.1 68.1C97 67.7 96.5 67.5 96.1 67.5C96 67.5 96 67.5 95.9 67.6C95.7 67 95 66.8 94.7 67C94.3 67.1 94 67.9 94.4 68.5Z" fill="#E32682"/>
<path d="M94.7 59.7C95.1 60.2 96.1 60 96.3 59.8C96.5 59.6 96.5 58.6 95.9 58.3C95.5 58.1 95.1 58.2 94.8 58.5C94.4 58.9 94.4 59.3 94.7 59.7Z" fill="#E32682"/>
<path d="M97.7 62.7C97.6 62.8 97.5 63 97.3 63.2C97.3 63 97.2 62.7 97.1 62.5C96.8 62.2 96.3 62.1 96 62.4C95.7 62.7 95.6 63.3 96 63.8C96.2 63.8 96.7 63.9 97 63.8C97 63.8 97 63.8 97.1 63.7C97 63.9 97 64.1 97.1 64.3C97.4 64.9 97.9 64.5 98.2 64.6C99 64.8 99.9 64.2 99.9 63.6C99.9 63 99.6 62.6 99 62.4C98.4 62 98 62.2 97.7 62.7Z" fill="#E32682"/>
<path d="M92 53.9C91.5 54.2 91.5 55 91.8 55.5C92.2 56 92.6 56.1 93 55.8C93.6 55.4 93.9 54.4 93.6 53.9C93.4 53.5 92.5 53.5 92 53.9Z" fill="#E32682"/>
<path d="M89.2 68.3C89.1 68.3 88.9 68.3 88.7 68.4C88.5 68.3 88.3 68.2 88.1 68.4C87.7 68.6 87.6 69 87.8 69.4C87.9 69.5 88.2 69.8 88.5 69.8C88.2 70.1 88.1 70.5 88.3 70.8C88.6 71.3 89.3 71.3 89.7 70.8C90.1 70.3 90.5 70.5 91 70.5C91 71.8 91.7 72.3 92.8 72C92.9 72 93 71.9 93.1 71.9C93.8 71.6 93.9 71.1 93.5 70.4C93.2 69.8 92.8 69.3 91.8 69.6C92 69.2 92.1 68.9 92.3 68.8C92.7 68.5 92.7 68.1 92.5 67.7C92.2 67.3 91.9 66.9 91.3 67C89.9 67 89.4 67.2 89.2 68.3Z" fill="#E32682"/>
<path d="M89.1 63.7C88.5 64.1 88.5 64.8 88.9 65.5C89.3 66 89.8 66 90.5 65.5C91 65.1 91.2 64.6 90.9 64.2C90.6 63.8 89.4 63.5 89.1 63.7Z" fill="#E32682"/>
<path d="M162.5 26.1C162.4 26.3 162.4 27 162.8 27.2C162.9 27.2 162.9 27.2 163 27.3C163.2 26.6 163.3 26 163.4 25.3C163.1 25.4 162.7 25.8 162.5 26.1Z" fill="#E32682"/>
<path d="M145.8 36.4C145.6 36.8 145.7 37.3 146.1 37.6C146.4 37.8 147 37.7 147.2 37.3C147.4 36.9 147.3 36.4 146.9 36.1C146.5 35.9 146.1 36 145.8 36.4Z" fill="#E32682"/>
<path d="M100.3 50.2C100.3 51 101.1 51.7 101.8 51.5C102.4 51.3 102.7 50.9 102.7 50.3C102.8 49.7 102.4 49.3 101.9 49.2C101.5 49.1 100.7 48.6 100.3 49C99.9 49.4 100.3 49.9 100.3 50.2Z" fill="#E32682"/>
<path d="M99.8 71.9C99.7 71.9 99.6 72 99.6 72.1C99.5 72.1 99.4 72.1 99.3 72C99 71.3 98.7 70.4 97.7 70.3C96.5 70.2 95.5 71.3 95.5 72.7C95.5 73.2 95.3 73.3 95.1 73.6C94.7 73.9 94.7 74.7 95.1 75C95.5 75.4 95.8 75.3 96.1 74.9C96.3 74.7 96.6 74.4 96.9 74.3C97.6 74.1 98.3 74 99 73.9C99.9 75.4 100.5 75.5 101.6 74.4C102.2 73.8 102.1 72.9 101.3 72.5C101.2 72.5 101.1 72.4 101 72.4C100.7 72 100.2 71.7 99.8 71.9Z" fill="#E32682"/>
<path d="M135.4 43.2C134.9 43.3 134.7 43.8 134.8 44.2C134.9 44.6 135.4 44.9 135.8 44.8C136.2 44.7 136.5 44.2 136.4 43.7C136.2 43.2 135.9 43 135.4 43.2Z" fill="#E32682"/>
<path d="M137.3 63.1C137.4 63.3 137.6 63.5 137.8 63.6C137.7 63.8 137.7 64.1 137.7 64.3C138.3 63.8 139 63.4 139.6 62.9L139.5 62.8H139.4C139.4 62.6 139.4 62.4 139.4 62.2C139.2 61.7 138.8 61.6 138.3 61.8C137.3 62.1 137 62.5 137.3 63.1Z" fill="#E32682"/>
<path d="M135.6 55.7C135.3 55.5 135 55.8 135 56.2C135 56.5 135.2 57 135.4 57.2C135.7 57.4 136 57.2 136 57.1C136.1 56.9 136 56.6 135.9 56.4C135.9 56.1 135.9 55.9 135.6 55.7Z" fill="#E32682"/>
<path d="M138.8 46.6C138.6 46.5 138 46.8 137.8 47C137.5 47.3 137.7 47.7 138.1 47.9C138.5 48.2 138.8 47.9 138.9 47.6C138.9 47.5 139 46.7 138.8 46.6Z" fill="#E32682"/>
<path d="M126 59.7C126 60.3 125.9 60.8 126.5 61C126.9 61.1 127.3 61 127.6 60.6C127.8 60.3 127.8 60 127.5 59.7C127.1 59.2 126.6 59.4 126 59.7Z" fill="#E32682"/>
<path d="M139.4 53.5C139.1 53.5 138.7 54.2 138.9 54.6C139.1 55 139.4 54.9 139.6 54.8C140 54.7 140.2 54.3 140 53.9C139.8 53.8 139.6 53.5 139.4 53.5Z" fill="#E32682"/>
<path d="M134.3 49.8C134.4 50.2 134.9 50.5 135.3 50.4C135.6 50.3 135.7 49.8 135.6 49.3C135.5 48.9 135.2 48.8 134.9 49C134.5 49.1 134.2 49.3 134.3 49.8Z" fill="#E32682"/>
<path d="M135.6 62.2C135.9 61.9 136.5 61.5 137 61C137.3 60.7 137.3 60.2 136.9 59.9C136.6 59.6 136.2 59.5 135.8 59.9C135.6 60.1 135.4 60.2 135.1 60.3C134.4 60.6 134.1 61 134.2 61.7C134.3 62.2 134.7 62.5 135.6 62.2Z" fill="#E32682"/>
<path d="M141.9 44.7C141.9 44.6 141.4 44.5 141.2 44.5C141.1 44.5 140.9 44.8 141 44.9C141.1 45.1 141.3 45.2 141.5 45.2C141.6 45.2 142 44.8 141.9 44.7Z" fill="#E32682"/>
<path d="M147.1 45.1C147 45.2 147.1 45.5 147.2 45.5C147.4 45.5 147.6 45.5 147.8 45.4C147.9 45.3 148 44.9 147.8 44.7C147.5 44.6 147.2 45 147.1 45.1Z" fill="#E32682"/>
<path d="M145.5 51.8C145.3 52.3 145.6 53.6 146 53.7C146.5 53.9 147.3 53.5 147.6 52.8C147.9 52.2 147.6 51.7 146.9 51.3C146.4 51.2 145.7 51.4 145.5 51.8Z" fill="#E32682"/>
<path d="M143.8 53.3C143.4 53.4 143.1 54.4 143.3 55C143.4 55.3 143.7 55.5 144 55.5C143.7 56 143.9 56.5 144.3 56.8C144.7 57 145.3 56.8 145.5 56.4C145.7 56 145.5 55.4 145.1 55.1C145.4 54.8 145.5 54.4 145.4 54.1C145.2 53.6 144.3 53.1 143.8 53.3Z" fill="#E32682"/>
<path d="M147.8 54.2C147.8 54.4 147.9 54.9 148 55C148.3 54.7 148.5 54.4 148.8 54.1C148.8 53.9 148.7 53.8 148.6 53.8C148.5 53.7 147.9 54.1 147.8 54.2Z" fill="#E32682"/>
<path d="M140.7 48.5C140.5 48.6 140.4 48.9 140.4 49C140.4 49.2 140.7 49.6 140.9 49.5C141.1 49.4 141.2 49 141.1 48.9C141 48.8 140.9 48.4 140.7 48.5Z" fill="#E32682"/>
<path d="M141.3 54C141.1 54.3 141.2 54.6 141.6 54.8C142 54.9 142.3 54.9 142.4 54.5C142.5 54.2 142.5 53.4 142.2 53.3C141.9 53.2 141.5 53.7 141.3 54Z" fill="#E32682"/>
<path d="M141.1 37.9C141 38 140.9 38.7 141.1 38.8C141.3 38.9 141.8 38.6 141.9 38.5C142 38.3 142 37.8 141.8 37.7C141.7 37.6 141.3 37.7 141.1 37.9Z" fill="#E32682"/>
<path d="M122.2 45.3C121.8 45.3 121.7 45.7 121.8 46.2C121.9 46.7 122.3 46.7 122.6 46.6C122.9 46.5 123.4 46 123.3 45.8C123.2 45.5 122.5 45.3 122.2 45.3Z" fill="#E32682"/>
<path d="M120 52.8C119.6 52.9 119.5 53.2 119.7 53.6C119.9 53.9 120.1 54.2 120.5 54C120.8 53.8 121.3 53.3 121.2 53C121.2 52.6 120.3 52.7 120 52.8Z" fill="#E32682"/>
<path d="M106.9 62.8C106.6 62.8 106.4 63.4 106.5 63.7C106.7 64 107 64.3 107.3 64.1C107.6 63.9 108.2 63.4 108 63.1C107.9 62.8 107.2 62.8 106.9 62.8Z" fill="#E32682"/>
<path d="M110.9 57.3C110.1 57.6 109.9 58.2 110.1 58.9C110.4 59.6 111.1 59.9 111.9 59.6C112.5 59.4 112.8 58.5 112.6 57.9C112.3 57.2 111.7 56.9 110.9 57.3Z" fill="#E32682"/>
<path d="M108.9 62C109.3 62.5 110.2 62.6 110.8 62.1C111.4 61.7 111.4 61 110.9 60.3C110.4 59.7 109.7 59.6 109.1 60C108.5 60.6 108.5 61.4 108.9 62Z" fill="#E32682"/>
<path d="M120.9 55.8C120.4 56 120.1 56.4 120.3 56.9C120.2 56.9 120.1 57 120 57C119.9 57.1 119.8 57.3 119.9 57.5C120 57.6 120.3 57.6 120.5 57.6C120.5 57.6 120.6 57.5 120.7 57.4C120.9 57.5 121.2 57.6 121.4 57.5C121.8 57.3 122.1 56.7 121.9 56.3C121.8 55.9 121.4 55.7 120.9 55.8Z" fill="#E32682"/>
<path d="M107.4 69.9C107.3 69.3 107.2 68.7 106.5 68.8C106 68.8 105.7 69.1 105.6 69.5C105.6 69.7 105.6 69.9 105.7 70C106 70.3 106.4 70.4 106.8 70.7C107 71.7 107.5 72.4 108.1 72.3C108.2 72.3 108.4 72.2 108.5 72.1C108.7 72.4 109.2 72.6 109.8 72.4C109.9 72.2 110.1 71.8 110 71.4C110 71.1 109.6 70.9 109.3 70.8C109.3 70.7 109.3 70.6 109.3 70.4C109.2 69.9 108.8 69.7 107.4 69.9Z" fill="#E32682"/>
<path d="M148.5 45.4C148.4 45.4 148.2 45.7 148.2 45.9C148.2 46.1 148.5 46.4 148.7 46.3C148.9 46.2 149 45.8 148.9 45.7C149 45.5 148.7 45.4 148.5 45.4Z" fill="#E32682"/>
<path d="M101.3 70.9C101.3 71.1 101.5 71.4 101.7 71.4C102.2 71.5 102.5 71.2 102.7 70.7C102.4 70.3 102.2 69.9 101.6 70.2C101.4 70.2 101.3 70.6 101.3 70.9Z" fill="#E32682"/>
<path d="M101.9 63.3C101.7 63.5 101.3 64.1 101.5 64.4C101.7 64.7 102.4 64.4 102.6 64.2C102.7 64.1 102.7 63.6 102.6 63.4C102.5 63.1 102.2 63 101.9 63.3Z" fill="#E32682"/>
<path d="M106.3 54C106.2 54 106.1 54.4 106.1 54.4C106.2 54.5 106.4 54.8 106.7 54.7C107 54.6 106.9 54.2 106.8 54.1C106.7 54.1 106.5 54 106.3 54Z" fill="#E32682"/>
<path d="M119 63.4C118.4 63.4 117.9 63.2 117.7 64C117.6 64.5 117.7 64.8 118.2 65C118.4 65.1 118.6 65.1 118.7 65C119 64.8 119.3 64.4 119.7 64.1C120.7 64.2 121.5 63.9 121.6 63.3C121.7 62.7 121 61.8 120.3 61.7C119.5 61.6 119.2 61.9 119 63.4Z" fill="#E32682"/>
<path d="M117.8 56.1C117.7 56.1 117.6 56.3 117.7 56.4C117.7 56.5 117.9 56.6 118 56.6C118.1 56.6 118.1 56.4 118.1 56.3C118.1 56.2 117.8 56.1 117.8 56.1Z" fill="#E32682"/>
<path d="M100.3 67C100.8 66.6 101.1 65.7 100.7 65.2C100.4 64.7 99.4 64.5 98.8 64.9C98.4 65.2 98.3 66 98.7 66.5C99.3 67.1 99.8 67.3 100.3 67Z" fill="#E32682"/>
<path d="M117 67.8C116.7 68.1 116.5 68.4 116.8 68.7C117 68.8 117.3 69.1 117.6 69.1C117.7 69.3 118 69.4 118.2 69.5C118.4 69.6 118.7 69.4 118.8 69.2C119.1 68.7 118.8 68.3 118.4 68C118.3 68.1 118.1 68.1 118 68.2C117.9 68 117.9 67.9 117.8 67.8C117.7 67.5 117.3 67.5 117 67.8Z" fill="#E32682"/>
<path d="M113.7 66.6C113.6 66.7 113.5 66.8 113.6 67C113.7 67.1 113.9 67.1 113.9 67C114 67 114 66.7 113.9 66.7C113.9 66.6 113.8 66.5 113.7 66.6Z" fill="#E32682"/>
<path d="M114.6 62.8C113.8 63 113.3 63.9 113.5 64.6C113.7 65.5 114.6 66.1 115.2 65.9C116 65.7 116.7 64.5 116.5 63.8C116.3 63.1 115.4 62.6 114.6 62.8Z" fill="#E32682"/>
<path d="M112.6 68.3C112 68.5 111.6 69.4 111.8 70C111.9 70.5 112.7 70.8 113.3 70.6C113.5 70.5 113.6 70.5 113.7 70.4V70.5C114 70.9 114.6 71 115 70.7C115.3 70.4 115.4 70 115.2 69.6C114.9 69.2 114.5 69.1 114.1 69.2C113.9 68.6 113.1 68.2 112.6 68.3Z" fill="#E32682"/>
<path d="M71.9 -47.9C65.4 -44.8 59.3 -40.7 53.9 -35.3C28.2 -9.99999 28 31.3 53.3 57C61.9 65.7 72.3 71.5 83.3 74.3C104.7 35.9 101 -12.9 71.9 -47.9Z" fill="#FF957D"/>
</g>
<defs>
<clipPath id="clip0_4_3259">
<rect width="165" height="130" fill="white"/>
</clipPath>
</defs>
</svg>
